<svg width="15" height="15" viewBox="0 0 15 15" fill="none" xmlns="http://www.w3.org/2000/svg">
<path d="M6.04814 3.56263L6.04812 3.56267L5.84319 3.93003C5.83213 3.94988 5.82123 3.96948 5.81047 3.98884C5.61808 4.33482 5.46892 4.60306 5.23017 4.78469L5.22966 4.78508C4.98784 4.96838 4.69289 5.03474 4.31821 5.11905C4.29745 5.12372 4.27644 5.12845 4.25518 5.13325L3.85782 5.22322L3.85768 5.22325C3.07626 5.39986 2.5339 5.52371 2.15996 5.67111C1.79324 5.81568 1.68513 5.94603 1.64373 6.0788C1.60133 6.21567 1.61787 6.39514 1.8362 6.74201C2.05718 7.09306 2.42788 7.52808 2.95995 8.14992L2.96013 8.15013L3.23112 8.46734C3.24537 8.48398 3.25945 8.50039 3.27336 8.51661C3.52989 8.81573 3.72826 9.04702 3.81784 9.33858C3.90779 9.6271 3.87802 9.93216 3.83899 10.3321C3.83689 10.3536 3.83477 10.3753 3.83264 10.3973L3.83261 10.3977L3.79139 10.8198C3.71116 11.6497 3.65579 12.231 3.67463 12.6523C3.69343 13.0728 3.78304 13.2231 3.88657 13.3018C3.98325 13.3751 4.1341 13.418 4.51495 13.3088C4.90038 13.1984 5.4091 12.9654 6.14071 12.6287L6.51236 12.4575C6.5319 12.4485 6.5512 12.4396 6.57029 12.4308C6.92096 12.2687 7.19812 12.1406 7.49999 12.1406C7.80223 12.1406 8.07959 12.269 8.43034 12.4313C8.44894 12.4399 8.46774 12.4486 8.48677 12.4574C8.48691 12.4575 8.48706 12.4576 8.4872 12.4576L8.85954 12.6285L8.85996 12.6287C9.59133 12.9655 10.0998 13.1985 10.4852 13.309C10.8658 13.4181 11.0167 13.3751 11.1137 13.3014L11.114 13.3012C11.2171 13.223 11.3067 13.073 11.3254 12.6523C11.3442 12.2311 11.2888 11.6498 11.2086 10.8201L6.04814 3.56263ZM6.04814 3.56263C6.4502 2.84164 6.73179 2.33855 6.98303 2.0105C7.23406 1.68271 7.38388 1.62499 7.49999 1.62499C7.61611 1.62499 7.76592 1.68271 8.01696 2.0105C8.2682 2.33855 8.54978 2.84164 8.95185 3.56263L8.95187 3.56267M6.04814 3.56263L8.95187 3.56267M8.95187 3.56267L9.15679 3.93003C9.15682 3.93007 9.15684 3.93012 9.15687 3.93017C9.16791 3.94997 9.17878 3.96953 9.18953 3.98885C9.38191 4.33482 9.53107 4.60306 9.76982 4.78469L9.99686 4.48623M8.95187 3.56267L9.99686 4.48623M9.99686 4.48623L9.76982 4.78469C10.0112 4.96828 10.307 5.03474 10.6815 5.11886M9.99686 4.48623L10.6815 5.11886M10.6815 5.11886C10.7025 5.12358 10.7238 5.12836 10.7453 5.13322L10.6815 5.11886ZM11.1674 10.397L11.2086 10.8198L10.7455 5.13328L11.1428 5.22322C11.9243 5.40017 12.4665 5.524 12.8404 5.67135C13.2068 5.81581 13.3148 5.94597 13.3562 6.07872C13.3986 6.21517 13.3823 6.39439 13.1638 6.74154C12.9428 7.09261 12.5721 7.52776 12.0401 8.14986C12.0401 8.1499 12.04 8.14995 12.04 8.15L11.7688 8.46673L11.7686 8.46697C11.754 8.48405 11.7396 8.5009 11.7254 8.51754C11.4694 8.81651 11.272 9.04709 11.1819 9.33671L11.1818 9.33701C11.0921 9.62629 11.1219 9.93124 11.1611 10.3323C11.1632 10.3535 11.1652 10.375 11.1674 10.3968L11.1674 10.397Z" stroke="black" stroke-width="0.750004"/>
</svg>
