<svg width="15" height="15" viewBox="0 0 15 15" fill="none" xmlns="http://www.w3.org/2000/svg">
<g clip-path="url(#clip0_16_2703)">
<path fill-rule="evenodd" clip-rule="evenodd" d="M9.14039 2.57837C9.07823 2.51621 8.99392 2.48129 8.90602 2.48129C8.81812 2.48129 8.73381 2.51621 8.67165 2.57837L3.14386 8.10616L3.14433 5.15641C3.14433 5.0684 3.10936 4.98398 3.04712 4.92175C2.98489 4.85951 2.90048 4.82455 2.81246 4.82455C2.72444 4.82455 2.64003 4.85951 2.5778 4.92175C2.51556 4.98398 2.4806 5.0684 2.4806 5.15641L2.4806 8.90629C2.48054 8.94989 2.48909 8.99307 2.50575 9.03336C2.5224 9.07365 2.54685 9.11025 2.57767 9.14108C2.6085 9.17191 2.64511 9.19635 2.6854 9.21301C2.72569 9.22967 2.76886 9.23821 2.81246 9.23816L6.56234 9.23816C6.65036 9.23816 6.73477 9.20319 6.79701 9.14096C6.85924 9.07872 6.89421 8.99431 6.89421 8.90629C6.89421 8.81828 6.85924 8.73387 6.79701 8.67163C6.73477 8.60939 6.65036 8.57443 6.56234 8.57443L3.61259 8.5749L9.14039 3.0471C9.20255 2.98494 9.23747 2.90064 9.23747 2.81274C9.23747 2.72483 9.20255 2.64053 9.14039 2.57837ZM5.85924 12.4218C5.79708 12.3597 5.76216 12.2753 5.76216 12.1874C5.76216 12.0995 5.79708 12.0152 5.85924 11.9531L11.387 6.42528L8.43728 6.42575C8.34927 6.42575 8.26486 6.39078 8.20262 6.32855C8.14038 6.26631 8.10542 6.1819 8.10542 6.09388C8.10542 6.00587 8.14038 5.92146 8.20262 5.85922C8.26486 5.79698 8.34927 5.76202 8.43728 5.76202L12.1872 5.76202C12.2308 5.76196 12.2739 5.77051 12.3142 5.78717C12.3545 5.80383 12.3911 5.82827 12.422 5.8591C12.4528 5.88992 12.4772 5.92653 12.4939 5.96682C12.5105 6.00711 12.5191 6.05029 12.519 6.09388L12.519 9.84376C12.519 9.93178 12.4841 10.0162 12.4218 10.0784C12.3596 10.1407 12.2752 10.1756 12.1872 10.1756C12.0992 10.1756 12.0147 10.1407 11.9525 10.0784C11.8903 10.0162 11.8553 9.93178 11.8553 9.84377L11.8558 6.89401L6.32798 12.4218C6.26582 12.484 6.18151 12.5189 6.09361 12.5189C6.0057 12.5189 5.9214 12.484 5.85924 12.4218Z" fill="black"/>
</g>
<defs>
<clipPath id="clip0_16_2703">
<rect width="10" height="10" fill="white" transform="translate(0 7.5) scale(1.06063) rotate(-45)"/>
</clipPath>
</defs>
</svg>
