<svg width="13" height="13" viewBox="0 0 13 13" fill="none" xmlns="http://www.w3.org/2000/svg">
<path d="M4.95794 2.92914C5.64424 1.69847 5.98711 1.08314 6.50007 1.08314C7.01303 1.08314 7.35591 1.69847 8.0422 2.92914L8.21986 3.24764C8.41487 3.59756 8.51236 3.77252 8.66403 3.88789C8.8157 4.00327 9.00528 4.04606 9.38445 4.13164L9.72895 4.20964C11.0615 4.51135 11.7272 4.66194 11.8859 5.17165C12.044 5.68081 11.5901 6.21219 10.6817 7.2744L10.4467 7.54903C10.1888 7.85073 10.0594 8.00186 10.0014 8.18819C9.94345 8.37507 9.96295 8.57657 10.002 8.97903L10.0377 9.34574C10.1747 10.7633 10.2435 11.4718 9.82862 11.7865C9.4137 12.1017 8.7897 11.8141 7.54278 11.2399L7.21941 11.0915C6.86515 10.9279 6.68803 10.8467 6.50007 10.8467C6.31211 10.8467 6.13499 10.9279 5.78019 11.0915L5.4579 11.2399C4.21044 11.8141 3.58644 12.1012 3.17207 11.787C2.75661 11.4718 2.8254 10.7633 2.96244 9.34574L2.99819 8.97957C3.03719 8.57657 3.05669 8.37507 2.99819 8.18874C2.94077 8.00186 2.81132 7.85073 2.55348 7.54957L2.3184 7.2744C1.41002 6.21273 0.956104 5.68136 1.11427 5.17165C1.27298 4.66194 1.93923 4.51081 3.27173 4.20964L3.61623 4.13164C3.99486 4.04606 4.1839 4.00327 4.33611 3.88789C4.48778 3.77252 4.58528 3.59756 4.78028 3.24764L4.95794 2.92914Z" fill="#FFD700"/>
</svg>
