<svg width="24" height="24" viewBox="0 0 24 24" fill="none" xmlns="http://www.w3.org/2000/svg">
<path fill-rule="evenodd" clip-rule="evenodd" d="M3.464 20.535C4.93 22 7.286 22 12 22C16.714 22 19.071 22 20.535 20.535C22 19.072 22 16.714 22 12C22 7.286 22 4.929 20.535 3.464C19.072 2 16.714 2 12 2C7.286 2 4.929 2 3.464 3.464C2 4.93 2 7.286 2 12C2 16.714 2 19.071 3.464 20.535ZM9.97 15.53C9.82955 15.3894 9.75066 15.1988 9.75066 15C9.75066 14.8012 9.82955 14.6106 9.97 14.47L12.44 12L9.97 9.53C9.83752 9.38783 9.7654 9.19978 9.76882 9.00548C9.77225 8.81118 9.85097 8.62579 9.98838 8.48838C10.1258 8.35097 10.3112 8.27225 10.5055 8.26882C10.6998 8.2654 10.8878 8.33752 11.03 8.47L14.03 11.47C14.1705 11.6106 14.2493 11.8012 14.2493 12C14.2493 12.1988 14.1705 12.3894 14.03 12.53L11.03 15.53C10.8894 15.6705 10.6988 15.7493 10.5 15.7493C10.3012 15.7493 10.1106 15.6705 9.97 15.53Z" fill="black"/>
</svg>
