<svg width="20" height="22" viewBox="0 0 20 22" fill="none" xmlns="http://www.w3.org/2000/svg">
<path d="M16.8827 8.65674V7.93535C16.8827 3.97637 13.7884 0.767442 9.97571 0.767442C6.16306 0.767442 3.06874 3.97637 3.06874 7.93535V8.65674C3.06997 9.51787 2.82423 10.3613 2.36065 11.087L1.22688 12.8521C0.192366 14.4637 0.982319 16.6545 2.78223 17.1641C7.48522 18.4974 12.4662 18.4974 17.1692 17.1641C18.9691 16.6545 19.7591 14.4637 18.7246 12.8531L17.5908 11.088C17.1268 10.3624 16.8807 9.51899 16.8817 8.65777L16.8827 8.65674Z" stroke="black" stroke-width="1.5"/>
<path d="M5.37106 18.1628C6.0413 19.9514 7.84939 21.2326 9.97571 21.2326C12.102 21.2326 13.9101 19.9514 14.5804 18.1628" stroke="black" stroke-width="1.5" stroke-linecap="round"/>
</svg>
