<svg width="24" height="24" viewBox="0 0 24 24" fill="none" xmlns="http://www.w3.org/2000/svg">
<path fill-rule="evenodd" clip-rule="evenodd" d="M14.1 2.39102C14.8331 1.67252 15.8202 1.27241 16.8467 1.27764C17.8733 1.28287 18.8562 1.69302 19.582 2.41895C20.3078 3.14488 20.7178 4.12793 20.7229 5.15444C20.7279 6.18096 20.3276 7.16799 19.609 7.90102L12.015 15.495C11.587 15.923 11.325 16.185 11.035 16.412C10.6916 16.6796 10.32 16.9089 9.92697 17.096C9.59297 17.255 9.24197 17.372 8.66797 17.563L5.99597 18.454L5.35397 18.668C5.07233 18.7621 4.77003 18.7759 4.48101 18.7077C4.19198 18.6396 3.92765 18.4923 3.71768 18.2823C3.5077 18.0723 3.36039 17.808 3.29226 17.519C3.22413 17.23 3.23788 16.9277 3.33197 16.646L4.43697 13.332C4.62797 12.758 4.74497 12.407 4.90397 12.073C5.09141 11.6802 5.3211 11.309 5.58897 10.966C5.81597 10.675 6.07697 10.413 6.50497 9.98602L14.1 2.39102ZM5.95997 16.884L5.11597 16.039L5.84397 13.854C6.05597 13.218 6.14397 12.959 6.25797 12.719C6.39797 12.424 6.57097 12.146 6.77097 11.889C6.93497 11.679 7.12697 11.485 7.60097 11.01L13.492 5.12002C13.7981 5.88476 14.2571 6.57894 14.841 7.16002C15.4221 7.74351 16.1163 8.20221 16.881 8.50802L10.99 14.398C10.515 14.873 10.322 15.065 10.112 15.228C9.85453 15.4286 9.57626 15.6009 9.28197 15.742C9.04197 15.856 8.78197 15.944 8.14597 16.156L5.96097 16.885L5.95997 16.884ZM18.076 7.31202C17.9219 7.27797 17.77 7.2349 17.621 7.18302C16.973 6.95648 16.3849 6.58584 15.901 6.09902C15.4143 5.61496 15.0437 5.02689 14.817 4.37902C14.7648 4.23003 14.7214 4.0781 14.687 3.92402L15.16 3.45202C15.6117 3.01484 16.2172 2.77273 16.8458 2.77788C17.4745 2.78304 18.0759 3.03505 18.5204 3.47957C18.9649 3.9241 19.217 4.52552 19.2221 5.15415C19.2273 5.78278 18.9851 6.38826 18.548 6.84002L18.076 7.31202ZM3.24997 22C3.24997 21.8011 3.32899 21.6103 3.46964 21.4697C3.6103 21.329 3.80106 21.25 3.99997 21.25H20V22.75H3.99997C3.80106 22.75 3.6103 22.671 3.46964 22.5303C3.32899 22.3897 3.24997 22.1989 3.24997 22Z" fill="#121212"/>
</svg>
