<svg width="22" height="18" viewBox="0 0 22 18" fill="none" xmlns="http://www.w3.org/2000/svg">
<path d="M4.86046 4.86046H8.95348" stroke="black" stroke-width="1.5" stroke-linecap="round" stroke-linejoin="round"/>
<path d="M20.0384 5.88372H17.3759C15.5494 5.88372 14.0698 7.25795 14.0698 8.95348C14.0698 10.649 15.5504 12.0233 17.3749 12.0233H20.0384C20.1244 12.0233 20.1663 12.0233 20.2021 12.0212C20.7547 11.9874 21.1947 11.5792 21.2305 11.0665C21.2325 11.0338 21.2325 10.9939 21.2325 10.9151V6.9919C21.2325 6.91311 21.2325 6.87321 21.2305 6.84046C21.1937 6.32781 20.7547 5.91953 20.2021 5.88576C20.1673 5.88372 20.1244 5.88372 20.0384 5.88372Z" stroke="black" stroke-width="1.5"/>
<path d="M20.1735 5.88372C20.0937 3.96818 19.8379 2.79349 19.01 1.9667C17.8118 0.767441 15.8819 0.767442 12.0233 0.767442H8.95348C5.09479 0.767442 3.16493 0.767441 1.9667 1.9667C0.767441 3.16493 0.767442 5.09479 0.767442 8.95348C0.767442 12.8122 0.767441 14.742 1.9667 15.9403C3.16493 17.1395 5.09479 17.1395 8.95348 17.1395H12.0233C15.8819 17.1395 17.8118 17.1395 19.01 15.9403C19.8379 15.1135 20.0947 13.9388 20.1735 12.0233" stroke="black" stroke-width="1.5"/>
<path d="M17.1303 8.95348H17.1405" stroke="black" stroke-width="2" stroke-linecap="round" stroke-linejoin="round"/>
</svg>
