<svg width="39" height="39" viewBox="0 0 39 39" fill="none" xmlns="http://www.w3.org/2000/svg">
<g clip-path="url(#clip0_4_4062)">
<path d="M38.7489 21.9375C39.0536 24.0508 39.2535 26.9417 38.3053 28.0483C36.738 29.8789 26.8149 29.8789 26.8149 26.2177C26.8149 24.375 28.4481 23.166 26.8807 21.3354C25.3402 19.5366 22.5761 19.5073 19.5024 19.5049C16.4287 19.5024 13.6671 19.5341 12.1241 21.3354C10.5568 23.166 12.1899 24.375 12.1899 26.2177C12.1899 29.8764 2.26688 29.8764 0.699564 28.0483C-0.248624 26.9417 -0.0487488 24.0508 0.255939 21.9375C0.489939 20.5262 1.08225 19.0052 2.98106 17.0625C5.82806 14.4056 10.1351 12.2362 19.3513 12.1875H19.6584C28.8746 12.2338 33.1817 14.4056 36.0287 17.0625C37.9251 19.0052 38.5198 20.5262 38.7538 21.9375H38.7489Z" fill="white"/>
</g>
<defs>
<clipPath id="clip0_4_4062">
<rect width="39" height="39" fill="white"/>
</clipPath>
</defs>
</svg>
