<svg width="30" height="30" viewBox="0 0 30 30" fill="none" xmlns="http://www.w3.org/2000/svg">
<path d="M9.375 5.625C9.375 4.13316 9.96763 2.70242 11.0225 1.64752C12.0774 0.592632 13.5082 0 15 0C16.4918 0 17.9226 0.592632 18.9775 1.64752C20.0324 2.70242 20.625 4.13316 20.625 5.625V15C20.625 16.4918 20.0324 17.9226 18.9775 18.9775C17.9226 20.0324 16.4918 20.625 15 20.625C13.5082 20.625 12.0774 20.0324 11.0225 18.9775C9.96763 17.9226 9.375 16.4918 9.375 15V5.625Z" fill="black"/>
<path d="M6.5625 12.1875C6.81114 12.1875 7.0496 12.2863 7.22541 12.4621C7.40123 12.6379 7.5 12.8764 7.5 13.125V15C7.5 16.9891 8.29018 18.8968 9.6967 20.3033C11.1032 21.7098 13.0109 22.5 15 22.5C16.9891 22.5 18.8968 21.7098 20.3033 20.3033C21.7098 18.8968 22.5 16.9891 22.5 15V13.125C22.5 12.8764 22.5988 12.6379 22.7746 12.4621C22.9504 12.2863 23.1889 12.1875 23.4375 12.1875C23.6861 12.1875 23.9246 12.2863 24.1004 12.4621C24.2762 12.6379 24.375 12.8764 24.375 13.125V15C24.375 17.3241 23.5118 19.5654 21.9527 21.289C20.3937 23.0126 18.25 24.0957 15.9375 24.3281V28.125H21.5625C21.8111 28.125 22.0496 28.2238 22.2254 28.3996C22.4012 28.5754 22.5 28.8139 22.5 29.0625C22.5 29.3111 22.4012 29.5496 22.2254 29.7254C22.0496 29.9012 21.8111 30 21.5625 30H8.4375C8.18886 30 7.9504 29.9012 7.77459 29.7254C7.59877 29.5496 7.5 29.3111 7.5 29.0625C7.5 28.8139 7.59877 28.5754 7.77459 28.3996C7.9504 28.2238 8.18886 28.125 8.4375 28.125H14.0625V24.3281C11.75 24.0957 9.60633 23.0126 8.04727 21.289C6.48822 19.5654 5.62497 17.3241 5.625 15V13.125C5.625 12.8764 5.72377 12.6379 5.89959 12.4621C6.0754 12.2863 6.31386 12.1875 6.5625 12.1875Z" fill="black"/>
</svg>
