<svg width="14" height="14" viewBox="0 0 14 14" fill="none" xmlns="http://www.w3.org/2000/svg">
<path d="M8.20934 1.00264L9.44121 3.46637C9.60919 3.80933 10.0571 4.13829 10.4351 4.20129L12.6679 4.57224C14.0957 4.81022 14.4317 5.8461 13.4028 6.86799L11.667 8.6038C11.373 8.89777 11.212 9.4647 11.303 9.87066L11.7999 12.0194C12.1919 13.7202 11.289 14.3782 9.78417 13.4893L7.6914 12.2504C7.31344 12.0264 6.69051 12.0264 6.30556 12.2504L4.21279 13.4893C2.71495 14.3782 1.80505 13.7132 2.19701 12.0194L2.69395 9.87066C2.78494 9.4647 2.62396 8.89777 2.32999 8.6038L0.594187 6.86799C-0.4277 5.8461 -0.0987362 4.81022 1.32911 4.57224L3.56186 4.20129C3.93282 4.13829 4.38077 3.80933 4.54875 3.46637L5.78061 1.00264C6.45254 -0.334213 7.54442 -0.334213 8.20934 1.00264Z" fill="#FFA500"/>
</svg>
