<svg width="30" height="30" viewBox="0 0 30 30" fill="none" xmlns="http://www.w3.org/2000/svg">
<path d="M16.875 5.09324C16.875 3.78261 15.2419 3.18449 14.3953 4.18386L10.5647 8.71199C10.3887 8.91972 10.1695 9.08662 9.92243 9.20108C9.67537 9.31554 9.40635 9.37483 9.13406 9.3748H5.625C4.63044 9.3748 3.67661 9.76989 2.97335 10.4732C2.27009 11.1764 1.875 12.1302 1.875 13.1248V16.8748C1.875 17.8694 2.27009 18.8232 2.97335 19.5265C3.67661 20.2297 4.63044 20.6248 5.625 20.6248H9.13406C9.40642 20.6249 9.67549 20.6843 9.92255 20.7989C10.1696 20.9136 10.3887 21.0807 10.5647 21.2886L14.3953 25.8157C15.2409 26.8151 16.875 26.217 16.875 24.9064V5.09324ZM20.0934 8.6023C20.1949 8.53251 20.3092 8.48341 20.4297 8.4578C20.5501 8.43218 20.6745 8.43056 20.7956 8.45302C20.9167 8.47548 21.0322 8.52159 21.1355 8.58871C21.2387 8.65582 21.3278 8.74263 21.3975 8.84418C22.7709 10.8411 23.4956 12.8979 23.4956 14.9998C23.4956 17.1017 22.7709 19.1586 21.3975 21.1564C21.3283 21.2592 21.2395 21.3473 21.1361 21.4155C21.0326 21.4838 20.9167 21.5308 20.795 21.554C20.6733 21.5772 20.5482 21.576 20.4269 21.5505C20.3056 21.5251 20.1906 21.4758 20.0885 21.4056C19.9864 21.3354 19.8992 21.2457 19.832 21.1416C19.7648 21.0375 19.7189 20.9211 19.697 20.7991C19.675 20.6772 19.6775 20.5521 19.7042 20.4311C19.7309 20.3101 19.7813 20.1956 19.8525 20.0942C21.0572 18.3411 21.6216 16.6479 21.6216 14.9998C21.6216 13.3517 21.0572 11.6586 19.8525 9.90636C19.7119 9.70146 19.6583 9.44909 19.7037 9.20473C19.749 8.96037 19.8896 8.74402 20.0944 8.60324L20.0934 8.6023ZM24.0844 4.94605C23.9952 4.8611 23.8902 4.79454 23.7754 4.75017C23.6605 4.7058 23.5381 4.68448 23.415 4.68744C23.2919 4.6904 23.1706 4.71758 23.058 4.76742C22.9454 4.81726 22.8437 4.88879 22.7587 4.97793C22.6738 5.06706 22.6072 5.17206 22.5629 5.28691C22.5185 5.40177 22.4972 5.52425 22.5001 5.64734C22.5031 5.77044 22.5303 5.89174 22.5801 6.00434C22.63 6.11693 22.7015 6.2186 22.7906 6.30355C25.0284 8.43449 26.1919 11.6839 26.1919 14.9998C26.1919 18.3167 25.0284 21.5651 22.7906 23.6961C22.7015 23.781 22.63 23.8827 22.5801 23.9953C22.5303 24.1079 22.5031 24.2292 22.5001 24.3523C22.4972 24.4754 22.5185 24.5978 22.5629 24.7127C22.6072 24.8275 22.6738 24.9325 22.7587 25.0217C22.8437 25.1108 22.9454 25.1823 23.058 25.2322C23.1706 25.282 23.2919 25.3092 23.415 25.3122C23.5381 25.3151 23.6605 25.2938 23.7754 25.2494C23.8902 25.2051 23.9952 25.1385 24.0844 25.0536C26.7684 22.497 28.0659 18.7151 28.0659 14.9998C28.0659 11.2845 26.7684 7.50261 24.0844 4.94605Z" fill="black"/>
</svg>
