<svg width="59" height="60" viewBox="0 0 59 60" fill="none" xmlns="http://www.w3.org/2000/svg">
<path d="M5.52973 40.5969H1.97998V42.0256H5.52973V40.5969Z" fill="#EBEBEB"/>
<path d="M3.54975 42.3982H0V43.8268H3.54975V42.3982Z" fill="#EBEBEB"/>
<path d="M37.5365 31.4976H33.9867V32.9262H37.5365V31.4976Z" fill="#EBEBEB"/>
<path d="M35.5565 33.2991H32.0067V34.7277H35.5565V33.2991Z" fill="#EBEBEB"/>
<path d="M58.6245 42.3982H55.0747V43.8268H58.6245V42.3982Z" fill="#EBEBEB"/>
<path d="M56.6445 14.5061H53.0948V15.9347H56.6445V14.5061Z" fill="#EBEBEB"/>
<path d="M58.6245 16.3074H55.0747V17.736H58.6245V16.3074Z" fill="#EBEBEB"/>
<path d="M33.5765 31.4976H30.0268V32.9262H33.5765V31.4976Z" fill="#EBEBEB"/>
<path d="M5.52973 14.5061H1.97998V15.9347H5.52973V14.5061Z" fill="#EBEBEB"/>
<path d="M53.0653 13.357H35.4117V5.91895H53.0653V13.357ZM35.9479 12.8463H52.529V6.42963H35.9479V12.8463Z" fill="#EBEBEB"/>
<path d="M44.2981 6.36841H43.7619V12.9064H44.2981V6.36841Z" fill="#EBEBEB"/>
<path d="M30.9544 60C43.8863 60 54.3696 59.038 54.3696 57.8513C54.3696 56.6646 43.8863 55.7026 30.9544 55.7026C18.0225 55.7026 7.5392 56.6646 7.5392 57.8513C7.5392 59.038 18.0225 60 30.9544 60Z" fill="#EBEBEB"/>
<path d="M2.09661 54.9149L8.90119 54.883L15.7044 54.8728L29.3122 54.8511L42.9201 54.8728L49.7233 54.883L56.5265 54.9149L49.7233 54.9455L42.9201 54.957L29.3122 54.9787L15.7044 54.957L8.90119 54.9455L2.09661 54.9149Z" fill="#263238"/>
<path d="M9.76048 9.10303H5.48952V31.4147H9.76048V9.10303Z" fill="#A6A6A6"/>
<path d="M20.7784 9.10303H9.76183V31.4147H20.7784V9.10303Z" fill="#DBDBDB"/>
<path d="M20.4325 9.46167H10.1077V31.0635H20.4325V9.46167Z" fill="#C7C7C7"/>
<path d="M20.4325 9.46167H17.1482V31.0635H20.4325V9.46167Z" fill="#A6A6A6"/>
<path d="M26.7438 32.0581L20.7784 31.4146V9.10293L26.7438 8.45947V32.0581Z" fill="#C7C7C7"/>
<path d="M17.3573 16.0825H11.8423V22.2541H17.3573V16.0825Z" fill="#DBDBDB"/>
<path d="M12.4724 16.0825H11.8423V22.2541H12.4724V16.0825Z" fill="#A6A6A6"/>
<path d="M13.211 16.5971C13.2113 16.6335 13.2002 16.6692 13.1792 16.6996C13.1581 16.73 13.128 16.7538 13.0928 16.7679C13.0575 16.782 13.0187 16.7858 12.9812 16.7789C12.9436 16.7719 12.9091 16.7545 12.882 16.7288C12.8548 16.7032 12.8363 16.6704 12.8288 16.6347C12.8212 16.599 12.825 16.562 12.8395 16.5283C12.8541 16.4947 12.8788 16.4659 12.9106 16.4456C12.9424 16.4254 12.9798 16.4146 13.018 16.4146C13.0433 16.4144 13.0683 16.419 13.0918 16.4281C13.1152 16.4372 13.1365 16.4506 13.1544 16.4676C13.1724 16.4845 13.1866 16.5047 13.1963 16.527C13.206 16.5492 13.211 16.573 13.211 16.5971Z" fill="#C7C7C7"/>
<path d="M13.018 21.9275C13.1246 21.9275 13.211 21.8452 13.211 21.7437C13.211 21.6421 13.1246 21.5598 13.018 21.5598C12.9114 21.5598 12.825 21.6421 12.825 21.7437C12.825 21.8452 12.9114 21.9275 13.018 21.9275Z" fill="#C7C7C7"/>
<path d="M17.0275 16.5971C17.0278 16.6335 17.0167 16.6692 16.9957 16.6996C16.9746 16.73 16.9446 16.7538 16.9093 16.7679C16.8741 16.782 16.8352 16.7858 16.7977 16.7789C16.7601 16.7719 16.7256 16.7545 16.6985 16.7288C16.6713 16.7032 16.6528 16.6704 16.6453 16.6347C16.6377 16.599 16.6415 16.562 16.656 16.5283C16.6706 16.4947 16.6953 16.4659 16.7271 16.4456C16.7589 16.4254 16.7963 16.4146 16.8345 16.4146C16.8598 16.4144 16.8849 16.419 16.9083 16.4281C16.9317 16.4372 16.953 16.4506 16.9709 16.4676C16.9889 16.4845 17.0031 16.5047 17.0128 16.527C17.0225 16.5492 17.0275 16.573 17.0275 16.5971Z" fill="#C7C7C7"/>
<path d="M17.0275 21.7437C17.0275 21.78 17.0162 21.8156 16.995 21.8458C16.9738 21.876 16.9436 21.8996 16.9084 21.9135C16.8731 21.9274 16.8343 21.9311 16.7968 21.924C16.7594 21.9169 16.725 21.8994 16.698 21.8737C16.671 21.848 16.6526 21.8152 16.6452 21.7795C16.6377 21.7439 16.6415 21.7069 16.6562 21.6733C16.6708 21.6397 16.6955 21.611 16.7273 21.5908C16.759 21.5706 16.7963 21.5598 16.8345 21.5598C16.8599 21.5596 16.8851 21.5643 16.9086 21.5735C16.9321 21.5826 16.9534 21.5962 16.9714 21.6133C16.9894 21.6304 17.0036 21.6507 17.0132 21.6731C17.0228 21.6955 17.0277 21.7195 17.0275 21.7437Z" fill="#C7C7C7"/>
<path d="M13.455 17.5815C13.455 17.6409 13.4365 17.699 13.4018 17.7483C13.3671 17.7977 13.3179 17.8362 13.2602 17.8588C13.2026 17.8815 13.1392 17.8874 13.078 17.8757C13.0169 17.864 12.9608 17.8353 12.9167 17.7932C12.8727 17.7511 12.8428 17.6976 12.8308 17.6393C12.8188 17.581 12.8253 17.5206 12.8493 17.4658C12.8734 17.411 12.914 17.3643 12.9659 17.3314C13.0179 17.2986 13.079 17.2812 13.1413 17.2815C13.2246 17.2818 13.3044 17.3136 13.3632 17.3698C13.422 17.4261 13.455 17.5022 13.455 17.5815Z" fill="#263238"/>
<path d="M13.455 18.6169C13.455 18.6763 13.4365 18.7344 13.4018 18.7837C13.3671 18.8331 13.3179 18.8716 13.2602 18.8942C13.2026 18.9169 13.1392 18.9228 13.078 18.9111C13.0169 18.8994 12.9608 18.8707 12.9167 18.8286C12.8727 18.7865 12.8428 18.733 12.8308 18.6747C12.8188 18.6164 12.8253 18.556 12.8493 18.5012C12.8734 18.4464 12.914 18.3997 12.9659 18.3668C13.0179 18.334 13.079 18.3166 13.1413 18.3169C13.1826 18.3169 13.2235 18.3247 13.2617 18.3398C13.2998 18.3549 13.3345 18.377 13.3636 18.4048C13.3928 18.4327 13.4158 18.4658 13.4315 18.5022C13.4472 18.5386 13.4552 18.5776 13.455 18.6169Z" fill="#263238"/>
<path d="M12.5475 30.535C12.4402 28.6506 13.0435 24.8396 13.4429 22.3181C13.6253 21.1614 13.77 20.2473 13.7834 19.9179C13.8237 18.9655 13.1306 18.7472 13.1011 18.7382L13.1789 18.4944C13.1882 18.4944 14.0998 18.7714 14.0516 19.9281C14.0368 20.2716 13.892 21.1921 13.707 22.3539C13.3049 24.8664 12.7097 28.6608 12.8156 30.5248L12.5475 30.535Z" fill="#DD6A57"/>
<path d="M13.077 30.5401C12.9322 29.1255 13.3116 26.8019 13.6762 24.5549C14.0676 22.156 14.4711 19.6754 14.1494 18.6527C13.8813 17.8037 13.1561 17.7118 13.1252 17.708L13.1547 17.4526C13.1936 17.4526 14.0864 17.5612 14.4054 18.5774C14.7446 19.655 14.3545 22.0526 13.9416 24.5907C13.5783 26.8224 13.203 29.1294 13.3437 30.5133L13.077 30.5401Z" fill="#455A64"/>
<path d="M16.5584 22.2542H15.9498V31.0634H16.5584V22.2542Z" fill="white"/>
<path d="M15.8814 9.46167H15.2728V16.0827H15.8814V9.46167Z" fill="white"/>
<path d="M14.7245 30.5286H11.6225V31.0635H14.7245V30.5286Z" fill="#DBDBDB"/>
<path d="M13.8505 0H12.4979V9.1029H13.8505V0Z" fill="#263238"/>
<path d="M15.1964 9.10303H15.6441L15.6441 0.000125885H15.1964L15.1964 9.10303Z" fill="#263238"/>
<path d="M16.2541 9.10303H16.7018V0.000125885H16.2541V9.10303Z" fill="#263238"/>
<path d="M14.4497 41.5798C14.4497 41.7904 14.3156 41.9628 14.1574 41.9628C13.9993 41.9628 13.8652 41.7917 13.8652 41.5798C13.8652 41.3679 13.9993 41.1968 14.1574 41.1968C14.3156 41.1968 14.4497 41.3653 14.4497 41.5798Z" fill="#A6A6A6"/>
<path d="M15.1964 40.5176H15.6441L15.6441 31.4147H15.1964L15.1964 40.5176Z" fill="#263238"/>
<path d="M15.1977 40.5176H15.6455L14.1052 41.7509V41.4049L15.1977 40.5176Z" fill="#263238"/>
<path d="M13.5113 31.4146H12.8357V41.8056H13.5113V31.4146Z" fill="#C7C7C7"/>
<path d="M11.8812 43.0889C12.0426 43.0889 12.1735 42.918 12.1735 42.7072C12.1735 42.4964 12.0426 42.3254 11.8812 42.3254C11.7198 42.3254 11.589 42.4964 11.589 42.7072C11.589 42.918 11.7198 43.0889 11.8812 43.0889Z" fill="#A6A6A6"/>
<path d="M12.8357 41.8057H13.5113L11.8276 42.9547V42.4849L12.8357 41.8057Z" fill="#C7C7C7"/>
<path d="M15.4537 41.5798C15.4537 41.7904 15.3197 41.9628 15.1615 41.9628C15.0033 41.9628 14.8693 41.7917 14.8693 41.5798C14.8693 41.3679 15.0033 41.1968 15.1615 41.1968C15.3197 41.1968 15.4537 41.3653 15.4537 41.5798Z" fill="#A6A6A6"/>
<path d="M16.2541 40.5176H16.7018V31.4147H16.2541V40.5176Z" fill="#263238"/>
<path d="M16.2541 40.5176H16.7018L15.1615 41.7509V41.4049L16.2541 40.5176Z" fill="#263238"/>
<path d="M33.3915 41.2107C32.9371 40.7855 32.3486 40.2723 31.6488 40.4561C30.9933 40.6285 30.7426 41.309 30.626 41.8758C30.4745 42.6061 30.3579 43.344 30.2359 44.0807C30.1139 44.8173 29.9973 45.568 29.8847 46.3124C29.8221 46.7328 29.7596 47.1529 29.697 47.5725L29.6045 48.2032C29.575 48.41 29.5388 48.6155 29.5267 48.8236C29.5267 48.89 29.6313 48.9002 29.6474 48.8364C29.7319 48.4866 29.7667 48.1215 29.8203 47.7653C29.8739 47.4091 29.9289 47.0503 29.9839 46.6915C30.0938 45.9817 30.2055 45.2714 30.319 44.5607C30.4325 43.85 30.5482 43.1398 30.6662 42.4299C30.7681 41.8286 30.815 41.0804 31.3754 40.6834C31.5272 40.584 31.7032 40.5232 31.8866 40.5067C32.0701 40.4901 32.2549 40.5184 32.4237 40.5889C32.7923 40.723 33.0859 40.9719 33.3754 41.2273C33.3875 41.2375 33.4009 41.2183 33.3915 41.2107Z" fill="#263238"/>
<path d="M32.7695 40.7769C32.7695 40.7769 31.8311 40.4577 31.3794 41.105C30.9276 41.7523 31.4692 43.403 35.7053 44.3248C35.5816 43.0634 35.2372 41.8305 34.6865 40.6773C33.7776 38.7903 32.1596 39.5053 32.7695 40.7769Z" fill="white"/>
<path d="M35.4627 44.0551C35.3983 43.9419 35.3271 43.8324 35.2495 43.727C35.1785 43.6236 35.1074 43.5202 35.0337 43.4168C34.9801 43.3389 34.9238 43.2623 34.8688 43.1857C34.8688 43.1678 34.8688 43.1474 34.8768 43.1282C34.8849 43.1091 34.8862 43.058 34.8902 43.0236C34.901 42.9482 34.913 42.8729 34.9251 42.7963C34.9372 42.7197 34.9492 42.6469 34.964 42.5716C34.9745 42.4909 34.9933 42.4113 35.0203 42.3341C35.0203 42.3226 35.0029 42.3163 35.0015 42.3341C34.9923 42.3796 34.9798 42.4244 34.964 42.4682C34.9533 42.5014 34.9439 42.5359 34.9358 42.569C34.9144 42.6457 34.8956 42.7235 34.8768 42.8001C34.8581 42.8767 34.846 42.9431 34.8339 43.0146C34.8272 43.0491 34.8219 43.0836 34.8165 43.118C34.7414 43.0146 34.665 42.9138 34.5846 42.8142C34.3594 42.532 34.1221 42.2601 33.8755 41.9945C33.8982 41.5707 33.8875 41.1506 33.9854 40.7331C33.9854 40.7217 33.9706 40.7153 33.968 40.7268C33.8561 41.1199 33.8028 41.526 33.8098 41.9333L33.5417 41.6537C33.3352 41.4426 33.1248 41.2349 32.9103 41.0306C32.9009 41.023 32.8875 41.0306 32.8969 41.0434C33.2534 41.4098 33.5926 41.7903 33.9224 42.1784C33.6638 42.1743 33.4051 42.1837 33.1475 42.2065C32.8607 42.2256 32.5751 42.2614 32.2896 42.2984C32.2775 42.2984 32.2816 42.3188 32.2896 42.3163C32.5736 42.278 32.8595 42.2537 33.1462 42.2435C33.4224 42.232 33.6972 42.2435 33.9733 42.2435C34.1521 42.4537 34.3286 42.6665 34.5028 42.8818H34.2723C34.1382 42.8818 34.0149 42.8921 33.8862 42.9023C33.6234 42.9226 33.3623 42.9598 33.1046 43.0133C33.0926 43.0133 33.0953 43.0338 33.1046 43.0312C33.3647 43.0044 33.6248 42.9801 33.8875 42.9712C34.0122 42.9712 34.1369 42.9712 34.2615 42.9712H34.4573C34.4929 42.9751 34.529 42.9717 34.5632 42.961L34.905 43.3849C34.9944 43.4972 35.0837 43.6108 35.1731 43.7257C35.2616 43.8432 35.342 43.9709 35.4412 44.0807C35.4448 44.0834 35.4493 44.0846 35.4538 44.0842C35.4584 44.0837 35.4625 44.0815 35.4653 44.0781C35.4682 44.0747 35.4695 44.0704 35.469 44.0661C35.4685 44.0618 35.4662 44.0578 35.4627 44.0551Z" fill="#263238"/>
<path d="M33.1743 41.6935C33.0242 41.6748 32.8726 41.6676 32.7212 41.6718C32.5698 41.6718 32.4183 41.6718 32.2681 41.6821C32.2657 41.6821 32.2633 41.683 32.2615 41.6847C32.2597 41.6863 32.2588 41.6886 32.2588 41.691C32.2588 41.6934 32.2597 41.6956 32.2615 41.6973C32.2633 41.699 32.2657 41.6999 32.2681 41.6999C32.4223 41.6884 32.5751 41.6859 32.7293 41.6884C32.8834 41.691 33.0255 41.7038 33.1743 41.6999C33.1784 41.6999 33.1797 41.6935 33.1743 41.6935Z" fill="#263238"/>
<path d="M34.5042 42.0176C34.5216 41.881 34.539 41.7418 34.5698 41.6065C34.5704 41.6051 34.5706 41.6037 34.5705 41.6022C34.5703 41.6008 34.5698 41.5994 34.5689 41.5982C34.568 41.597 34.5669 41.596 34.5655 41.5953C34.5642 41.5946 34.5627 41.5942 34.5611 41.5942C34.5596 41.5942 34.5581 41.5946 34.5567 41.5953C34.5554 41.596 34.5542 41.597 34.5534 41.5982C34.5525 41.5994 34.552 41.6008 34.5518 41.6022C34.5516 41.6037 34.5518 41.6051 34.5524 41.6065C34.5296 41.7418 34.5028 41.8772 34.4814 42.0125C34.4706 42.0802 34.4613 42.1478 34.4519 42.2168C34.4394 42.2803 34.4335 42.3449 34.4344 42.4095C34.4353 42.4121 34.437 42.4143 34.4393 42.4159C34.4416 42.4175 34.4444 42.4183 34.4472 42.4183C34.45 42.4183 34.4528 42.4175 34.455 42.4159C34.4573 42.4143 34.459 42.4121 34.4599 42.4095C34.4732 42.346 34.4803 42.2815 34.4814 42.2168C34.4881 42.1491 34.4961 42.084 34.5042 42.0176Z" fill="#263238"/>
<path d="M34.2253 40.4908C34.1878 40.6262 34.1516 40.7615 34.1261 40.8981C34.1127 40.9671 34.1007 41.0373 34.0913 41.1062C34.0783 41.1736 34.0734 41.2421 34.0765 41.3105C34.0765 41.3105 34.0859 41.3105 34.0886 41.3105C34.1053 41.2468 34.1165 41.1819 34.1221 41.1164C34.1315 41.05 34.1422 40.9824 34.1543 40.916C34.1797 40.7756 34.2066 40.6364 34.2428 40.4972C34.2468 40.4857 34.228 40.4806 34.2253 40.4908Z" fill="#263238"/>
<path d="M28.7077 48.6757C28.6844 48.4203 28.659 48.165 28.6313 47.9097C28.575 47.4066 28.5111 46.9049 28.4396 46.4044C28.3699 45.9052 28.3055 45.4048 28.2184 44.9069C28.1868 44.6761 28.1324 44.4487 28.0562 44.2276C28.0292 44.1325 27.9794 44.0446 27.9108 43.9709C27.8422 43.8971 27.7566 43.8395 27.6607 43.8025C27.162 43.6378 26.8255 44.1306 26.6245 44.4792C26.6245 44.4894 26.6352 44.497 26.6419 44.4881C26.7625 44.3221 27.095 43.86 27.473 43.8817C27.7277 43.8957 27.9315 44.0668 28.0535 44.6719C28.3578 46.1772 28.6326 49.2323 28.6634 49.4328C28.6809 49.5387 28.7599 49.5336 28.7599 49.42C28.7613 49.1736 28.7318 48.9234 28.7077 48.6757Z" fill="#263238"/>
<path d="M26.7652 44.3018C26.7652 44.3018 27.2009 42.8361 26.2384 43.569C24.6298 44.7895 24.5775 47.4412 24.5775 47.4412C24.5775 47.4412 27.4288 45.8645 27.7827 44.8252C28.3042 43.2702 26.7652 44.3018 26.7652 44.3018Z" fill="white"/>
<path d="M27.3014 45.014C27.0776 45.0574 26.851 45.0855 26.6312 45.1174L26.3108 45.1595C26.2384 45.1697 26.166 45.1761 26.0923 45.185C26.3054 44.9055 26.5186 44.6284 26.7223 44.3437C26.7304 44.3335 26.7129 44.322 26.7036 44.3309C26.535 44.497 26.3762 44.6718 26.2277 44.8544C26.1861 44.7408 26.1432 44.6271 26.1017 44.5148C26.0521 44.3871 26.0011 44.2531 25.9676 44.1177C25.9682 44.1164 25.9684 44.1149 25.9682 44.1134C25.9681 44.112 25.9675 44.1106 25.9667 44.1094C25.9658 44.1082 25.9646 44.1072 25.9633 44.1065C25.9619 44.1058 25.9604 44.1055 25.9589 44.1055C25.9574 44.1055 25.9558 44.1058 25.9545 44.1065C25.9531 44.1072 25.952 44.1082 25.9511 44.1094C25.9503 44.1106 25.9497 44.112 25.9496 44.1134C25.9494 44.1149 25.9496 44.1164 25.9502 44.1177C25.9891 44.2454 26.0159 44.3884 26.0534 44.5237C26.0909 44.659 26.1325 44.7791 26.1875 44.9067C26.0829 45.0344 25.9824 45.1621 25.8858 45.3025C25.8362 45.1748 25.7759 45.0472 25.7317 44.9067C25.7317 44.8965 25.7102 44.9067 25.7142 44.9067C25.7652 45.0561 25.792 45.2106 25.8403 45.36C25.7746 45.4506 25.7062 45.5425 25.6472 45.6344C25.5319 45.803 25.4233 45.9753 25.3174 46.1451C25.3094 46.1487 25.3026 46.1545 25.2981 46.1618C25.2935 46.1691 25.2914 46.1775 25.292 46.186C25.1123 46.4822 24.9408 46.7835 24.7718 47.0873C24.7706 47.0895 24.7703 47.0921 24.7711 47.0945C24.7718 47.0969 24.7736 47.0989 24.7759 47.1001C24.7782 47.1013 24.7809 47.1016 24.7834 47.1008C24.7859 47.1001 24.788 47.0985 24.7893 47.0963C24.9582 46.7962 25.1459 46.5039 25.3416 46.2166C25.3692 46.2138 25.3971 46.2138 25.4247 46.2166L25.5239 46.1975C25.5976 46.1822 25.67 46.163 25.7437 46.1464C25.8885 46.1119 26.0306 46.08 26.1781 46.0558C26.1901 46.0558 26.1848 46.0353 26.1781 46.0379C26.0051 46.0698 25.8322 46.0877 25.6579 46.1068C25.5762 46.1158 25.4931 46.126 25.4113 46.1387H25.3992C25.5024 45.9906 25.6057 45.8438 25.7116 45.6983C25.8175 45.5527 25.9207 45.4136 26.0279 45.2731C26.1271 45.2591 26.225 45.2348 26.3228 45.217L26.654 45.1557C26.8751 45.1136 27.0937 45.0676 27.3162 45.028C27.3162 45.0306 27.3108 45.0127 27.3014 45.014Z" fill="#263238"/>
<path d="M25.5856 45.1597L25.5467 45.0422C25.5205 44.9617 25.499 44.8799 25.4823 44.7971C25.4823 44.7856 25.4609 44.7907 25.4636 44.7971C25.4823 44.8801 25.5024 44.9618 25.5225 45.0448C25.5406 45.1278 25.5652 45.2093 25.5963 45.2886C25.5977 45.2929 25.6008 45.2964 25.605 45.2984C25.6091 45.3005 25.614 45.3009 25.6184 45.2995C25.6228 45.2981 25.6265 45.2952 25.6287 45.2912C25.6308 45.2873 25.6312 45.2827 25.6298 45.2784C25.6177 45.2414 25.6003 45.1954 25.5856 45.1597Z" fill="#263238"/>
<path d="M27.5897 44.6758C27.4556 44.6936 27.3296 44.7026 27.1982 44.7141C27.0668 44.7256 26.9368 44.7422 26.8068 44.76C26.7987 44.76 26.7987 44.7715 26.8068 44.7715C26.9408 44.7626 27.0682 44.7537 27.1982 44.7371C27.3283 44.7205 27.4663 44.7026 27.591 44.6936C27.6031 44.6924 27.6017 44.6732 27.5897 44.6758Z" fill="#263238"/>
<path d="M30.8056 46.8207C30.7547 45.7419 30.6836 44.6643 30.5697 43.5894C30.5134 43.0544 30.449 42.5195 30.3699 41.9871C30.2995 41.4639 30.1911 40.9461 30.0455 40.4372C29.9471 40.0414 29.7646 39.669 29.5093 39.343C29.3823 39.1849 29.2151 39.0601 29.0236 38.9803C28.832 38.9006 28.6223 38.8686 28.4141 38.8873C27.9181 38.946 27.5186 39.2435 27.1741 39.5665C26.7867 39.929 26.4314 40.3248 26.0722 40.7155L25.8041 41.0117C25.796 41.0206 25.8041 41.0334 25.8175 41.0245C26.1687 40.6414 26.5333 40.2674 26.914 39.9112C27.2666 39.5818 27.6299 39.2218 28.1205 39.0851C28.3474 39.0164 28.5903 39.011 28.8203 39.0698C29.0028 39.1252 29.1672 39.2246 29.2975 39.3584C29.5568 39.6455 29.7406 39.9873 29.8337 40.3555C30.138 41.3475 30.248 42.3867 30.3606 43.4106C30.4732 44.4345 30.5536 45.4942 30.6086 46.5398C30.6635 47.5854 30.7064 48.6413 30.8123 49.6882C30.8257 49.8158 30.8432 49.9435 30.8606 50.0712C30.8713 50.158 31.0134 50.158 31.0054 50.0712C30.9088 48.9873 30.8566 47.9046 30.8056 46.8207Z" fill="#263238"/>
<path d="M27.1057 39.6838C27.1057 39.6838 27.7532 38.5437 26.9878 38.1773C26.2223 37.8109 23.6659 40.5315 22.9192 44.5085C22.9192 44.5085 27.0508 42.7671 28.453 41.032C29.8552 39.297 28.2653 38.9152 27.1057 39.6838Z" fill="white"/>
<path d="M27.713 40.6108C27.2492 40.6108 26.7853 40.5776 26.3215 40.5802L26.5829 40.2955C26.7129 40.1694 26.8343 40.0355 26.9462 39.8946C26.9529 39.8857 26.9382 39.8716 26.9288 39.8793C26.8031 39.9832 26.6857 40.0958 26.5776 40.2163C26.4609 40.3338 26.3456 40.4512 26.2304 40.57C26.0516 40.7538 25.8769 40.9389 25.7062 41.1253C25.7062 41.1075 25.7062 41.0896 25.7062 41.0717C25.7062 40.9938 25.7062 40.9172 25.7062 40.8394C25.7062 40.69 25.7062 40.5393 25.7062 40.39C25.7062 40.0861 25.7062 39.7797 25.7303 39.4771C25.7303 39.4644 25.7129 39.4656 25.7116 39.4771C25.6888 39.7823 25.6566 40.0861 25.6405 40.3912C25.6325 40.5406 25.6285 40.6913 25.6271 40.8419C25.6271 40.9185 25.6271 40.9964 25.6271 41.073C25.6271 41.1151 25.6271 41.1598 25.6271 41.2007L25.5453 41.2862C25.1754 41.6897 24.8228 42.1071 24.4729 42.5323C24.4743 42.5085 24.4743 42.4846 24.4729 42.4608C24.4729 42.4148 24.4622 42.3676 24.4568 42.3203C24.4448 42.2195 24.43 42.1186 24.4153 42.0178C24.4005 41.9169 24.3844 41.8275 24.367 41.7331C24.3496 41.6386 24.3214 41.5198 24.312 41.4113C24.312 41.3986 24.2906 41.4011 24.2946 41.4113C24.3139 41.5182 24.3264 41.6261 24.3322 41.7343C24.3429 41.8314 24.3523 41.9297 24.3616 42.0267C24.371 42.1237 24.3791 42.2208 24.3898 42.3191C24.3898 42.365 24.3992 42.4123 24.4045 42.4595C24.4045 42.4825 24.4045 42.5055 24.4139 42.5297C24.4158 42.5493 24.4227 42.5682 24.434 42.5846L24.2571 42.8042C24.0225 43.1004 23.7933 43.3979 23.5627 43.6979C23.5627 43.7068 23.5694 43.7196 23.5761 43.7107C23.7946 43.44 24.0185 43.1745 24.2464 42.9115C24.4153 42.9178 24.5895 42.9115 24.7598 42.9038C24.93 42.8961 25.1177 42.9038 25.296 42.9038C25.3081 42.9038 25.3067 42.8859 25.296 42.8859H24.7598C24.5962 42.8859 24.43 42.8783 24.2665 42.8859C24.4662 42.6548 24.6686 42.425 24.871 42.1952L25.0922 41.9399C25.1613 41.9476 25.231 41.9476 25.3 41.9399H25.544C25.6968 41.9399 25.8496 41.9399 26.0025 41.9399C26.3175 41.9399 26.6325 41.9258 26.9489 41.9246C26.961 41.9246 26.9596 41.9067 26.9489 41.9067C26.6339 41.9067 26.3175 41.8901 26.0025 41.8824C25.8496 41.8824 25.6968 41.8735 25.544 41.8722H25.3C25.2531 41.8722 25.2048 41.8722 25.1579 41.8722L25.6794 41.2849C25.6835 41.2824 25.6867 41.2789 25.6888 41.2747C25.8577 41.0845 26.0266 40.8917 26.1982 40.7053L26.2692 40.6287C26.7505 40.6428 27.2317 40.6121 27.713 40.6211C27.7264 40.63 27.7251 40.6108 27.713 40.6108Z" fill="#263238"/>
<path d="M27.4756 41.3921H27.3631C27.3614 41.3928 27.3599 41.394 27.3588 41.3955C27.3578 41.3971 27.3572 41.3989 27.3572 41.4008C27.3572 41.4027 27.3578 41.4045 27.3588 41.4061C27.3599 41.4076 27.3614 41.4088 27.3631 41.4095H27.4756C27.489 41.4122 27.4877 41.3921 27.4756 41.3921Z" fill="#263238"/>
<path d="M27.2264 41.3933C27.0776 41.3933 26.9288 41.3933 26.78 41.3844H26.5561C26.4871 41.3761 26.4173 41.3761 26.3483 41.3844C26.3483 41.3844 26.3483 41.3959 26.3483 41.3972C26.4166 41.4108 26.4865 41.4155 26.5561 41.4112H26.7786H27.225C27.2384 41.4125 27.2384 41.3946 27.2264 41.3933Z" fill="#263238"/>
<path d="M25.9274 42.7225C25.6251 42.6745 25.3195 42.648 25.0131 42.6433V42.6497C25.3174 42.6778 25.6204 42.6931 25.922 42.7391C25.9341 42.7416 25.9395 42.7237 25.9274 42.7225Z" fill="#263238"/>
<path d="M24.6847 41.456C24.6847 41.4305 24.6847 41.405 24.6753 41.3807C24.6673 41.3233 24.6579 41.2671 24.6485 41.2096C24.6311 41.1024 24.611 40.9939 24.5895 40.8866C24.5895 40.8764 24.5694 40.879 24.5708 40.8866C24.5855 40.9977 24.5976 41.1088 24.6083 41.2211C24.6083 41.276 24.6177 41.3309 24.6231 41.3858C24.6217 41.4387 24.6298 41.4914 24.6472 41.5416C24.6552 41.5582 24.682 41.5518 24.6861 41.5416C24.6922 41.5133 24.6918 41.4841 24.6847 41.456Z" fill="#263238"/>
<path d="M30.7654 38.2197C30.6166 37.9579 30.4289 37.6107 30.0603 37.6337C29.7546 37.6515 29.6179 37.9477 29.5522 38.1928C29.3511 38.9499 29.3377 39.7479 29.2975 40.5241C29.2157 42.1647 29.1407 43.8065 29.1299 45.4484C29.1299 45.9029 29.1299 46.3582 29.1299 46.8144C29.1299 47.2779 29.1299 47.7452 29.1648 48.2086C29.1664 48.2164 29.1708 48.2235 29.1773 48.2286C29.1838 48.2337 29.1919 48.2365 29.2003 48.2365C29.2087 48.2365 29.2169 48.2337 29.2233 48.2286C29.2298 48.2235 29.2342 48.2164 29.2358 48.2086C29.2358 47.8128 29.2238 47.4145 29.2224 47.0174C29.2211 46.6204 29.2224 46.2425 29.2305 45.8556C29.2439 45.0709 29.2658 44.2861 29.2962 43.5014C29.327 42.7213 29.3632 41.9425 29.3967 41.1625C29.4137 40.7726 29.4316 40.3833 29.4503 39.9943C29.4678 39.6113 29.4852 39.2385 29.5308 38.8631C29.5562 38.6537 29.5884 38.4431 29.6353 38.2363C29.6577 38.082 29.7234 37.9364 29.8257 37.8149C29.8961 37.7495 29.9886 37.7099 30.0867 37.7031C30.1848 37.6963 30.2823 37.7228 30.3619 37.7779C30.5295 37.8937 30.6615 38.0502 30.744 38.2312C30.7547 38.2401 30.7708 38.2299 30.7654 38.2197Z" fill="#263238"/>
<path d="M30.6649 38.0943C30.6649 38.0943 30.3619 37.073 31.0322 37.5837C32.1488 38.4339 32.1891 40.2813 32.1891 40.2813C32.1891 40.2813 30.2037 39.1834 29.9571 38.4582C29.5897 37.3794 30.6649 38.0943 30.6649 38.0943Z" fill="white"/>
<path d="M31.7708 39.5243C31.7534 39.4962 31.7333 39.4681 31.7145 39.44C31.7172 39.4112 31.7172 39.3821 31.7145 39.3532C31.7145 39.3098 31.7145 39.2651 31.7145 39.2256C31.7145 39.1387 31.7145 39.0532 31.7239 38.9702C31.7239 38.9678 31.7229 38.9656 31.7211 38.9639C31.7194 38.9622 31.717 38.9613 31.7145 38.9613C31.712 38.9613 31.7096 38.9622 31.7079 38.9639C31.7061 38.9656 31.7051 38.9678 31.7051 38.9702C31.7051 39.0545 31.6971 39.1387 31.6944 39.2256C31.6944 39.2677 31.6944 39.3111 31.6944 39.3532C31.6944 39.3698 31.6944 39.389 31.6944 39.4069C31.6166 39.2919 31.5376 39.1783 31.4544 39.066C31.4303 39.0328 31.4048 39.0021 31.3807 38.9689C31.3684 38.8583 31.3662 38.7468 31.374 38.6357C31.374 38.517 31.374 38.3995 31.3821 38.2808C31.3821 38.2784 31.3811 38.2762 31.3793 38.2745C31.3775 38.2728 31.3752 38.2719 31.3727 38.2719C31.3702 38.2719 31.3678 38.2728 31.366 38.2745C31.3643 38.2762 31.3633 38.2784 31.3633 38.2808C31.3633 38.4085 31.3526 38.5272 31.3459 38.651C31.3389 38.739 31.3367 38.8272 31.3392 38.9153C31.1475 38.6664 30.9437 38.4276 30.7373 38.1889C30.7306 38.1812 30.7158 38.1889 30.7225 38.2004C30.8566 38.3536 30.9732 38.5119 31.0925 38.6715C30.8592 38.6191 30.622 38.5898 30.3834 38.5566C30.3713 38.5566 30.3673 38.5732 30.3834 38.5744C30.634 38.6102 30.8807 38.6702 31.13 38.7225C31.2252 38.8502 31.3191 38.9779 31.4129 39.1055L31.5255 39.2626H31.5148L31.437 39.2524L31.2721 39.2383C31.1582 39.2294 31.0429 39.2243 30.929 39.2179C30.9169 39.2179 30.9169 39.2358 30.929 39.237C31.0416 39.237 31.1542 39.2473 31.2668 39.2588L31.4437 39.2792L31.5215 39.2881H31.5443L31.7346 39.5562C31.8472 39.7145 31.9478 39.8831 32.0671 40.0363C32.0738 40.0452 32.0872 40.0363 32.0832 40.0261C31.9892 39.8532 31.885 39.6857 31.7708 39.5243Z" fill="#263238"/>
<path d="M31.2775 38.3713V38.2513C31.2748 38.1661 31.2784 38.0808 31.2882 37.996C31.2882 37.9936 31.2872 37.9914 31.2854 37.9897C31.2837 37.988 31.2813 37.9871 31.2788 37.9871C31.2763 37.9871 31.2739 37.988 31.2722 37.9897C31.2704 37.9914 31.2694 37.9936 31.2694 37.996C31.2694 38.079 31.26 38.1607 31.256 38.2437C31.256 38.2845 31.256 38.3267 31.256 38.3713V38.4288C31.252 38.4482 31.252 38.4681 31.256 38.4875C31.256 38.4896 31.2569 38.4915 31.2584 38.4929C31.2599 38.4944 31.2619 38.4952 31.2641 38.4952C31.2662 38.4952 31.2682 38.4944 31.2698 38.4929C31.2713 38.4915 31.2721 38.4896 31.2721 38.4875C31.2748 38.4693 31.2748 38.4508 31.2721 38.4326L31.2775 38.3713Z" fill="#263238"/>
<path d="M31.0322 38.794C30.9576 38.783 30.8824 38.7757 30.807 38.7723C30.7252 38.7659 30.6434 38.7583 30.5616 38.748C30.5592 38.748 30.5568 38.749 30.555 38.7507C30.5533 38.7523 30.5523 38.7546 30.5523 38.757C30.5523 38.7594 30.5533 38.7616 30.555 38.7633C30.5568 38.765 30.5592 38.7659 30.5616 38.7659C30.7185 38.7761 30.874 38.8029 31.0308 38.8081C31.0389 38.8119 31.0402 38.7953 31.0322 38.794Z" fill="#263238"/>
<path d="M30.811 43.6634C30.3941 43.3646 30.0187 42.9356 29.457 42.9139C28.9932 42.8973 28.6688 43.2293 28.4825 43.5995C28.3891 43.7961 28.3133 43.9998 28.2559 44.2085C28.1719 44.4885 28.0928 44.7694 28.0186 45.0511C27.8739 45.6052 27.7505 46.1657 27.6473 46.7287C27.591 47.0428 27.5387 47.3581 27.4972 47.6735C27.4432 47.9938 27.4105 48.317 27.3993 48.6412C27.3992 48.6535 27.4039 48.6653 27.4124 48.6745C27.421 48.6837 27.4327 48.6895 27.4455 48.691C27.4583 48.6924 27.4712 48.6893 27.4817 48.6822C27.4922 48.6752 27.4996 48.6647 27.5025 48.6527C27.5588 48.3884 27.583 48.1152 27.6245 47.8484C27.6661 47.5816 27.7076 47.3109 27.7586 47.0428C27.8533 46.5083 27.9641 45.9755 28.091 45.4444C28.2103 44.9439 28.3283 44.4358 28.4932 43.9481C28.6152 43.5995 28.8096 43.1922 29.2064 43.0659C29.8083 42.8756 30.3552 43.3608 30.7962 43.6761C30.8083 43.6851 30.8217 43.6723 30.811 43.6634Z" fill="#263238"/>
<path d="M30.3847 43.3801C30.3847 43.3801 30 42.3332 30.5563 42.1277C31.3901 41.82 33.5738 44.1627 33.1462 47.7452C33.1462 47.7452 31.4598 46.8604 30.2144 45.8646C28.9691 44.8687 28.6487 43.5665 29.1983 43.232C29.7479 42.8975 30.3847 43.3801 30.3847 43.3801Z" fill="white"/>
<path d="M32.8888 46.9826C32.8309 46.8575 32.7633 46.7368 32.6864 46.6213C32.6153 46.4936 32.543 46.3762 32.4679 46.2549C32.3231 46.0187 32.1797 45.7825 32.0309 45.5476L31.9571 45.434C31.9571 45.4199 31.9571 45.4059 31.9665 45.3918L31.992 45.2884C32.0108 45.2106 32.0242 45.1327 32.0403 45.0535C32.0697 44.9003 32.0979 44.7446 32.1421 44.5939C32.1421 44.5824 32.1247 44.5786 32.1234 44.5939C32.0885 44.7484 32.0376 44.899 31.9893 45.0497C31.9665 45.1225 31.941 45.1965 31.9209 45.2718C31.9209 45.2974 31.9062 45.3229 31.8995 45.3484C31.7199 45.0688 31.5376 44.7892 31.3418 44.5199C31.3544 44.4827 31.3608 44.444 31.3606 44.405C31.3606 44.3526 31.3727 44.3003 31.3794 44.2479C31.3941 44.1305 31.4089 44.0117 31.4263 43.8943C31.4625 43.6632 31.4987 43.4334 31.5603 43.2061C31.5603 43.1946 31.5443 43.1921 31.5416 43.2061C31.4812 43.4321 31.4156 43.6581 31.3713 43.8866C31.3485 43.999 31.3284 44.1126 31.3123 44.2249C31.3043 44.2824 31.2976 44.3398 31.2922 44.396C31.2922 44.4126 31.2922 44.4305 31.2855 44.4471C31.2239 44.3667 31.1635 44.2849 31.1005 44.2058C30.9075 43.9645 30.7078 43.7283 30.5067 43.4934C30.4986 43.4845 30.4839 43.4934 30.4906 43.5036C30.8348 43.9206 31.1513 44.3577 31.4383 44.8122L31.6032 45.0676H31.5483C31.4772 45.0586 31.4062 45.0548 31.3351 45.0484C31.193 45.0356 31.0523 45.0229 30.9102 45.0127C30.626 44.991 30.3404 44.9744 30.0563 44.9463C30.0442 44.9463 30.0415 44.9629 30.0563 44.9642C30.3431 44.9948 30.63 45.0382 30.9155 45.0778L31.3378 45.1314C31.445 45.1525 31.5541 45.1632 31.6636 45.1633L31.9987 45.6817C31.9737 45.6798 31.9486 45.6798 31.9236 45.6817H31.5215C31.3378 45.6817 31.1555 45.6817 30.9718 45.6817C30.9598 45.6817 30.9611 45.6995 30.9718 45.6995C31.1582 45.6995 31.3432 45.711 31.5282 45.72L31.7963 45.7353L31.9303 45.7442C31.9683 45.7519 32.0076 45.7519 32.0456 45.7442L32.3311 46.1847C32.4183 46.32 32.5068 46.4553 32.5993 46.5894C32.6836 46.7326 32.7791 46.8696 32.8848 46.9992C32.8781 46.9992 32.8942 46.9928 32.8888 46.9826Z" fill="#263238"/>
<path d="M32.0858 44.0822C32.0689 44.1974 32.0433 44.3113 32.0094 44.4231C31.9786 44.5393 31.9437 44.6542 31.9035 44.7678C31.903 44.7692 31.9028 44.7707 31.9028 44.7722C31.9029 44.7738 31.9033 44.7752 31.904 44.7766C31.9047 44.778 31.9057 44.7792 31.9068 44.7802C31.908 44.7812 31.9094 44.782 31.9109 44.7825C31.9124 44.783 31.914 44.7832 31.9156 44.7831C31.9171 44.783 31.9187 44.7827 31.9201 44.782C31.9216 44.7814 31.9228 44.7804 31.9239 44.7793C31.925 44.7782 31.9258 44.7769 31.9263 44.7755C31.9638 44.6618 31.9974 44.5482 32.0269 44.4333C32.0563 44.3184 32.0751 44.1997 32.1046 44.0848C32.1048 44.0836 32.1047 44.0824 32.1044 44.0813C32.1041 44.0801 32.1035 44.079 32.1028 44.0781C32.1013 44.0762 32.099 44.0749 32.0966 44.0746C32.0941 44.0742 32.0915 44.0748 32.0895 44.0763C32.0875 44.0777 32.0862 44.0798 32.0858 44.0822Z" fill="#263238"/>
<path d="M30.8458 44.7831C30.8201 44.762 30.7873 44.7502 30.7533 44.75L30.5952 44.7295L30.2976 44.695C30.0924 44.6721 29.886 44.6529 29.6809 44.6287C29.6688 44.6287 29.6662 44.6453 29.6809 44.6465C29.8739 44.6682 30.067 44.6963 30.2614 44.7206C30.3552 44.7334 30.4504 44.7461 30.5456 44.7563L30.6796 44.7704C30.733 44.7703 30.7861 44.779 30.8364 44.7959C30.8458 44.801 30.8525 44.7895 30.8458 44.7831Z" fill="#263238"/>
<path d="M32.0818 46.361C31.9853 46.3533 31.8874 46.3495 31.7909 46.3469H31.6435H31.5724C31.5417 46.3501 31.5107 46.3501 31.4799 46.3469C31.4665 46.3469 31.4652 46.3674 31.4799 46.3648C31.5084 46.3623 31.5372 46.3623 31.5657 46.3648H31.6421L31.7896 46.3725C31.8861 46.3788 31.9839 46.3839 32.0818 46.3839C32.0939 46.3801 32.0939 46.3622 32.0818 46.361Z" fill="#263238"/>
<path d="M32.677 45.9616L32.7092 45.8045C32.7293 45.7011 32.7494 45.5977 32.7682 45.4943C32.7682 45.4919 32.7672 45.4896 32.7654 45.488C32.7637 45.4863 32.7613 45.4854 32.7588 45.4854C32.7563 45.4854 32.7539 45.4863 32.7522 45.488C32.7504 45.4896 32.7494 45.4919 32.7494 45.4943C32.7266 45.5951 32.7025 45.696 32.6784 45.7969C32.6663 45.8467 32.6542 45.8977 32.6435 45.9475C32.6435 45.9718 32.6328 45.9948 32.6288 46.0177C32.621 46.0417 32.6179 46.0668 32.6194 46.0918C32.6194 46.1007 32.6341 46.1071 32.6408 46.0918C32.6609 46.0508 32.6731 46.0067 32.677 45.9616Z" fill="#263238"/>
<path d="M32.4531 49.0522L32.3593 50.5358L32.0818 54.9149H26.3966L26.1191 50.5358L26.0253 49.0522H32.4531Z" fill="#455A64"/>
<path d="M32.4531 49.0522L32.3593 50.5358H26.1191L26.0253 49.0522H32.4531Z" fill="#263238"/>
<path d="M32.8875 48.0029H25.5896V49.4877H32.8875V48.0029Z" fill="#455A64"/>
<path d="M41.0822 49.1697C41.0822 49.1697 41.0822 54.8842 41.0822 54.888C41.0822 55.9809 41.0728 56.9397 41.0165 57.4351C41.0171 57.4376 41.0171 57.4402 41.0165 57.4427C41.0164 57.5601 40.9879 57.6758 40.9334 57.781L40.9267 57.7874C40.5862 58.0096 31.4169 58.3083 31.0938 58.2164C30.7708 58.1245 31.0201 57.2385 31.3619 56.9576C31.7038 56.6767 35.1651 55.0655 35.1651 55.0655L35.224 49.3522L41.0822 49.1697Z" fill="#EB9481"/>
<path d="M41.0808 53.7146V54.8879C41.0808 55.9808 41.0715 56.9396 41.0152 57.4349C41.0158 57.4374 41.0158 57.4401 41.0152 57.4426C41.0018 57.5581 40.9739 57.6717 40.932 57.7809L40.9253 57.7873C40.5848 58.0094 31.4156 58.3082 31.0925 58.2163C30.7694 58.1243 31.0188 57.2383 31.3606 56.9574C31.7024 56.6766 35.1637 55.0654 35.1637 55.0654L35.1476 53.8742L41.0808 53.7146Z" fill="white"/>
<path d="M31.0911 58.2176C31.4156 58.3096 40.5835 58.0108 40.924 57.7887C41.0581 57.7057 41.0876 56.4315 41.0809 54.8893C41.0809 54.874 41.0809 54.8574 41.0809 54.842L35.1637 54.9697V55.0655C35.1637 55.0655 31.7078 56.6754 31.3606 56.9575C31.0134 57.2397 30.7667 58.1257 31.0911 58.2176Z" fill="white"/>
<path d="M31.189 57.8744C32.7333 57.7888 38.9708 57.5782 40.5044 57.6037C40.5165 57.6037 40.5165 57.6126 40.5044 57.6139C38.9762 57.7314 32.7373 57.8935 31.1903 57.8986C31.1515 57.8986 31.1501 57.8769 31.189 57.8744Z" fill="#263238"/>
<path d="M34.6744 55.0986C35.279 54.971 36.0257 55.0361 36.5056 55.4331C36.5243 55.4485 36.5056 55.474 36.4801 55.4676C35.891 55.308 35.2857 55.2087 34.6744 55.1714C34.6655 55.1698 34.6575 55.1653 34.6517 55.1587C34.6459 55.152 34.6427 55.1437 34.6427 55.135C34.6427 55.1264 34.6459 55.118 34.6517 55.1114C34.6575 55.1048 34.6655 55.1002 34.6744 55.0986Z" fill="#263238"/>
<path d="M34.2414 55.3655C34.846 55.2378 35.5927 55.3017 36.0726 55.7C36.0914 55.7153 36.0726 55.7396 36.0485 55.7345C35.4607 55.5747 34.8567 55.4754 34.2468 55.4383C34.2377 55.4374 34.2292 55.4334 34.2228 55.4272C34.2164 55.4209 34.2126 55.4127 34.212 55.404C34.2113 55.3953 34.2139 55.3867 34.2193 55.3796C34.2247 55.3726 34.2325 55.3676 34.2414 55.3655Z" fill="#263238"/>
<path d="M33.8111 55.6311C34.4157 55.5034 35.1637 55.5686 35.6423 55.9656C35.661 55.9809 35.6423 56.0065 35.6181 56.0014C35.0306 55.841 34.4265 55.7417 33.8165 55.7052C33.8077 55.7036 33.7997 55.6994 33.7937 55.693C33.7878 55.6867 33.7842 55.6786 33.7836 55.6701C33.783 55.6616 33.7853 55.6532 33.7903 55.6461C33.7953 55.6391 33.8026 55.6338 33.8111 55.6311Z" fill="#263238"/>
<path d="M41.3771 45.0611V45.1236L41.2444 55.1292L34.8259 55.0066L36.1436 24.5049H41.5648L41.3771 45.0611Z" fill="#455A64"/>
<path d="M35.094 53.988C36.0967 53.979 35.8085 53.9688 36.8112 53.9701C37.3005 53.9701 40.5232 53.9828 40.9803 54.0594C40.9824 54.0602 40.9841 54.0615 40.9854 54.0632C40.9866 54.0649 40.9873 54.0669 40.9873 54.069C40.9873 54.0711 40.9866 54.0731 40.9854 54.0749C40.9841 54.0766 40.9824 54.0779 40.9803 54.0786C40.5218 54.1463 37.2992 54.0786 36.8099 54.0722C35.8072 54.0518 36.0954 54.0467 35.094 54.0148C35.0918 54.0154 35.0895 54.0156 35.0872 54.0152C35.0849 54.0148 35.0827 54.014 35.0809 54.0127C35.079 54.0114 35.0775 54.0097 35.0764 54.0077C35.0754 54.0057 35.0749 54.0036 35.0749 54.0014C35.0749 53.9992 35.0754 53.997 35.0764 53.995C35.0775 53.9931 35.079 53.9913 35.0809 53.99C35.0827 53.9887 35.0849 53.9879 35.0872 53.9875C35.0895 53.9871 35.0918 53.9873 35.094 53.988Z" fill="#263238"/>
<path d="M40.1545 50.5959C40.1679 49.6817 40.1836 48.7676 40.2015 47.8535C40.2372 46.0253 40.273 44.1953 40.3087 42.3637C40.3784 38.7259 40.4396 35.0886 40.4924 31.4517C40.5259 29.4 40.5245 27.3471 40.5795 25.2954H40.5889C40.6237 27.1237 40.6023 28.9532 40.5996 30.7852C40.5969 32.6173 40.5875 34.443 40.5688 36.2751C40.5321 39.9128 40.4723 43.5506 40.3891 47.1883C40.3637 48.2097 40.3369 49.24 40.3007 50.2652C40.2645 51.2904 40.239 52.3181 40.1666 53.3421C40.1657 53.3446 40.164 53.3468 40.1617 53.3484C40.1594 53.35 40.1567 53.3508 40.1539 53.3508C40.151 53.3508 40.1483 53.35 40.146 53.3484C40.1437 53.3468 40.142 53.3446 40.1411 53.3421C40.1197 52.4241 40.1425 51.5087 40.1545 50.5959Z" fill="#263238"/>
<path d="M41.5648 24.5676L41.4227 40.1421L37.0767 24.5063H41.5634L41.5648 24.5676Z" fill="#263238"/>
<path d="M51.2408 46.311C51.2408 46.311 54.3374 51.1038 54.3401 51.1063C54.8428 52.0894 55.2651 52.9588 55.4394 53.4287C55.4401 53.4312 55.4401 53.4338 55.4394 53.4363C55.4929 53.5417 55.52 53.6576 55.5185 53.7746C55.5186 53.7776 55.5186 53.7806 55.5185 53.7836C55.312 54.1245 47.187 58.1806 46.8532 58.2316C46.5194 58.2827 46.3425 57.3801 46.5261 56.983C46.7098 56.5859 49.0919 53.7083 49.0919 53.7083L46.0489 48.8976L51.2408 46.311Z" fill="#EB9481"/>
<path d="M55.5212 53.7762C55.5217 53.7774 55.5221 53.7787 55.5221 53.78C55.5221 53.7814 55.5217 53.7827 55.5212 53.7839C55.316 54.1248 47.1897 58.1808 46.8559 58.2319C46.5221 58.283 46.3452 57.3804 46.5275 56.9833C46.7098 56.5862 49.0946 53.7073 49.0946 53.7073L48.5517 52.8481C49.8802 52.174 52.2945 50.9905 53.7932 50.2563C54.1189 50.7606 54.3415 51.1066 54.3415 51.1079C54.8455 52.0897 55.2678 52.9591 55.4421 53.4277C55.4426 53.4306 55.4426 53.4337 55.4421 53.4366C55.4965 53.5422 55.5236 53.6586 55.5212 53.7762Z" fill="white"/>
<path d="M46.8532 58.2316C47.187 58.1805 55.312 54.1244 55.5185 53.7836C55.5989 53.6559 55.0479 52.4928 54.3388 51.1025C54.332 51.0876 54.3244 51.0732 54.316 51.0591L49.0437 53.6125L49.0919 53.6968C49.0919 53.6968 46.7111 56.5744 46.5261 56.9728C46.3411 57.3711 46.5194 58.2827 46.8532 58.2316Z" fill="white"/>
<path d="M46.7795 57.8857C48.1321 57.1695 53.6565 54.4042 55.0506 53.8003C55.0613 53.8003 55.0654 53.8003 55.0506 53.808C53.7262 54.5459 48.179 57.2678 46.7875 57.9126C46.7621 57.9202 46.7513 57.9011 46.7795 57.8857Z" fill="#263238"/>
<path d="M48.6603 53.9434C49.1469 53.5783 49.8493 53.328 50.462 53.4889C50.4861 53.4953 50.4767 53.5272 50.462 53.5298C49.8578 53.6275 49.2663 53.7867 48.6978 54.0047C48.6897 54.0066 48.6811 54.0059 48.6734 54.0028C48.6657 53.9997 48.6593 53.9943 48.6551 53.9874C48.6509 53.9805 48.6491 53.9725 48.65 53.9646C48.651 53.9567 48.6546 53.9492 48.6603 53.9434Z" fill="#263238"/>
<path d="M48.3935 54.3607C48.8801 53.9955 49.5826 53.7453 50.1952 53.9061C50.2193 53.9061 50.2099 53.9444 50.1952 53.947C49.5931 54.0458 49.0039 54.2059 48.4377 54.4245C48.4288 54.4301 48.418 54.4321 48.4076 54.43C48.3971 54.428 48.388 54.4221 48.3821 54.4136C48.3762 54.4052 48.3741 54.3948 48.3763 54.3849C48.3784 54.375 48.3846 54.3662 48.3935 54.3607Z" fill="#263238"/>
<path d="M48.1281 54.7784C48.6133 54.4132 49.3171 54.163 49.9297 54.3239C49.9539 54.3303 49.9445 54.3622 49.923 54.3647C49.321 54.4637 48.7319 54.6238 48.1656 54.8422C48.1569 54.8453 48.1473 54.8453 48.1386 54.8423C48.1299 54.8392 48.1227 54.8333 48.1181 54.8256C48.1136 54.8179 48.1121 54.8089 48.1139 54.8002C48.1158 54.7916 48.1208 54.7838 48.1281 54.7784Z" fill="#263238"/>
<path d="M37.0391 24.5011C37.0619 24.6071 37.4413 26.2885 37.8341 27.721C38.1196 28.7717 38.4145 29.6948 38.5821 29.7905C38.7738 29.8977 39.7041 30.291 40.0165 30.4148C40.0165 30.4148 42.1104 40.3731 43.215 43.4525C44.2351 46.3008 48.4552 53.9125 48.4552 53.9125L54.5774 50.9672C54.5774 50.9672 49.7957 43.2419 49.293 41.8554C48.5141 39.7067 45.5931 29.216 45.5931 29.216C45.5931 29.216 45.6159 25.931 44.455 24.4922L37.0391 24.5011Z" fill="#455A64"/>
<path d="M48.5463 52.7816C49.4203 52.3156 49.163 52.4381 50.0437 51.9811C50.474 51.7577 53.3066 50.2933 53.7463 50.1528C53.7556 50.1528 53.7637 50.1643 53.7556 50.1694C53.387 50.4388 50.529 51.856 50.0933 52.0704C49.2045 52.5109 49.4539 52.3756 48.5597 52.8058C48.5565 52.8067 48.553 52.8064 48.55 52.8051C48.5469 52.8039 48.5444 52.8016 48.5428 52.7988C48.5412 52.796 48.5407 52.7927 48.5414 52.7896C48.542 52.7865 48.5438 52.7836 48.5463 52.7816Z" fill="#263238"/>
<path d="M44.0247 28.3056C43.8571 28.2647 43.6775 28.2519 43.5059 28.2264C43.3718 28.2047 43.2311 28.1817 43.0943 28.1536C42.832 28.1087 42.5833 28.0089 42.3664 27.8613C42.1292 27.6863 42.0098 27.4195 41.8946 27.1642C41.8262 27.0123 41.7605 26.8603 41.6854 26.7097L41.5809 26.4914C41.531 26.4066 41.4863 26.3192 41.4468 26.2296C41.4468 26.2156 41.4213 26.2296 41.4267 26.2296C41.45 26.2914 41.4692 26.3545 41.4843 26.4186C41.5085 26.4926 41.5299 26.5654 41.5541 26.6382C41.597 26.7658 41.6372 26.8999 41.6881 27.0301C41.7568 27.2692 41.8549 27.4998 41.9803 27.717C42.2324 28.1 42.6841 28.2545 43.1359 28.3081C43.2699 28.3247 43.396 28.3324 43.5273 28.34C43.6914 28.3541 43.8565 28.3541 44.0207 28.34C44.0237 28.3383 44.0263 28.3359 44.0282 28.3331C44.0301 28.3303 44.0313 28.3271 44.0317 28.3237C44.0321 28.3204 44.0317 28.317 44.0304 28.3139C44.0292 28.3107 44.0272 28.3079 44.0247 28.3056Z" fill="#263238"/>
<path d="M38.0888 29.5605C38.7529 29.791 39.3947 30.0759 40.0071 30.412C40.0312 30.4248 40.0151 30.4605 39.9897 30.4491C39.3435 30.1848 38.684 29.932 38.0539 29.6345C38.0449 29.6294 38.0382 29.6213 38.035 29.6117C38.0318 29.6022 38.0325 29.5919 38.0368 29.5827C38.0411 29.5736 38.0487 29.5663 38.0583 29.5622C38.0679 29.5581 38.0787 29.5575 38.0888 29.5605Z" fill="#263238"/>
<path d="M37.8917 25.3437C37.8917 25.3233 37.9319 25.3182 37.9319 25.3437C37.9321 26.0306 37.9683 26.717 38.0405 27.4005C38.07 27.7171 38.3381 29.47 38.9159 29.3423C39.0124 29.3206 39.062 29.23 39.0767 29.087C39.0745 28.9055 39.0488 28.725 39.0003 28.5495C38.936 28.1818 38.885 27.8141 38.8515 27.4439C38.7845 26.7538 38.7926 26.059 38.8757 25.3705C38.8767 25.3667 38.8791 25.3634 38.8824 25.361C38.8857 25.3587 38.8896 25.3574 38.8938 25.3574C38.8979 25.3574 38.9019 25.3587 38.9051 25.361C38.9084 25.3634 38.9108 25.3667 38.9119 25.3705C38.8952 26.3271 38.9539 27.2834 39.0875 28.2316C39.1599 28.6874 39.4012 29.3806 38.9011 29.4445C38.4011 29.5083 38.0606 28.3657 37.9989 28.0516C37.8398 27.1572 37.8037 26.2469 37.8917 25.3437Z" fill="#263238"/>
<path d="M38.9025 29.3871C38.9558 29.5049 39.0005 29.6261 39.0365 29.7497C39.0739 29.8452 39.0925 29.9465 39.0915 30.0484C39.0906 30.0525 39.0885 30.0562 39.0855 30.0591C39.0824 30.0621 39.0786 30.0641 39.0744 30.0651C39.0701 30.066 39.0657 30.0658 39.0616 30.0644C39.0575 30.0631 39.0539 30.0606 39.0513 30.0574C38.9909 29.9676 38.9457 29.8694 38.9172 29.7663C38.873 29.6539 38.8261 29.5429 38.7832 29.4292C38.78 29.4149 38.7824 29.3999 38.7899 29.3871C38.7973 29.3742 38.8094 29.3644 38.8238 29.3593C38.8382 29.3542 38.8541 29.3542 38.8685 29.3593C38.883 29.3644 38.895 29.3743 38.9025 29.3871Z" fill="#263238"/>
<path d="M52.9259 50.0045C52.0545 48.4418 51.1563 46.8932 50.2542 45.3471C49.8091 44.5811 49.3453 43.8304 48.9217 43.058C48.5221 42.2923 48.1976 41.4931 47.9525 40.6705C47.4162 39.0023 46.9059 37.3255 46.4216 35.6403C45.9372 33.955 45.4845 32.263 45.0636 30.5641C44.9563 30.1403 44.8397 29.7151 44.7539 29.2874C44.6775 28.8542 44.6775 28.412 44.7539 27.9788C44.8194 27.575 44.8225 27.1642 44.7633 26.7595C44.6959 26.3562 44.596 25.9584 44.4644 25.5696C44.3973 25.3641 44.3236 25.1598 44.2499 24.9568C44.2476 24.953 44.244 24.95 44.2397 24.9484C44.2354 24.9467 44.2306 24.9466 44.2262 24.9479C44.2218 24.9493 44.218 24.9521 44.2154 24.9558C44.2129 24.9595 44.2118 24.9639 44.2123 24.9683C44.4805 25.7905 44.7486 26.6217 44.6896 27.4936C44.6614 27.9124 44.5448 28.3235 44.5555 28.7448C44.5841 29.163 44.6587 29.5773 44.7781 29.9807C45.1936 31.6906 45.6405 33.3929 46.1186 35.0875C46.5967 36.7821 47.1021 38.469 47.6347 40.1483C47.8948 40.9642 48.1374 41.794 48.5061 42.5741C48.8747 43.3541 49.3426 44.0921 49.7836 44.8377C50.6925 46.3787 51.6094 47.9158 52.5478 49.4415C52.6658 49.6343 52.7864 49.8245 52.9057 50.0198C52.9138 50.0288 52.9326 50.0173 52.9259 50.0045Z" fill="#263238"/>
<path d="M39.751 16.6393C38.8904 17.4398 34.6154 20.8103 32.1582 20.6826C29.8578 20.555 27.2907 15.8516 26.5829 14.949C26.2719 14.5519 29.7479 12.1887 30.1675 12.5347C30.5871 12.8807 32.425 16.6559 32.8204 16.7759C33.2159 16.8959 36.4399 16.1784 38.3931 15.7137C40.1599 15.2886 40.9347 15.5362 39.751 16.6393Z" fill="#EB9481"/>
<path d="M34.4733 16.5027L35.8943 19.5898C35.8943 19.5898 38.6598 18.0463 39.7028 16.9508C40.7457 15.8554 40.676 15.2911 38.5539 15.572C37.1673 15.7656 35.8016 16.0771 34.4733 16.5027Z" fill="white"/>
<path d="M34.035 16.5358L34.8259 16.26L36.275 19.5182L35.531 19.8833L34.035 16.5358Z" fill="white"/>
<path opacity="0.1" d="M34.035 16.5358L34.8259 16.26L36.275 19.5182L35.531 19.8833L34.035 16.5358Z" fill="#121212"/>
<path d="M31.0214 14.299C30.563 12.1414 28.8886 10.2902 28.5361 10.0374C28.2358 9.82161 28.079 9.71309 28.079 9.71309C27.5427 9.31475 27.1526 9.38242 27.1526 9.38242C27.1526 9.38242 26.6821 8.75045 26.233 8.95855C25.729 9.18964 26.4904 10.0323 26.6111 10.7459C26.8886 12.3661 26.8068 14.742 26.8376 15.2144L31.0214 14.299Z" fill="#EB9481"/>
<path d="M28.154 12.2421C28.0793 11.7674 27.97 11.2981 27.8269 10.8378C27.6382 10.3428 27.411 9.86181 27.1473 9.39892C27.1455 9.39588 27.1451 9.39228 27.1461 9.38893C27.1471 9.38558 27.1494 9.38274 27.1526 9.38105C27.1558 9.37936 27.1596 9.37894 27.1631 9.3799C27.1667 9.38086 27.1696 9.38311 27.1714 9.38615C27.7807 10.2293 28.1358 11.2152 28.1983 12.237C28.1978 12.242 28.1955 12.2466 28.1919 12.2502C28.1883 12.2537 28.1835 12.256 28.1783 12.2566C28.1731 12.2572 28.1679 12.2561 28.1635 12.2535C28.1591 12.2508 28.1557 12.2468 28.154 12.2421Z" fill="#263238"/>
<path d="M29.205 12.2257C29.0897 11.7673 28.8806 10.9643 28.0642 9.72077C28.0642 9.72077 28.0642 9.71183 28.0723 9.72077C28.7011 10.433 29.11 11.2975 29.2533 12.218C29.2573 12.2423 29.2131 12.2563 29.205 12.2257Z" fill="#263238"/>
<path d="M26.8148 12.7108C26.7639 12.9355 26.6392 12.9112 26.4529 12.5435C26.2665 12.1758 25.8536 10.5685 25.2772 10.7561C24.7008 10.9438 25.3161 13.1998 25.6794 13.7896C26.0427 14.3794 26.8403 15.2131 26.8403 15.2131C26.8108 14.7471 26.8564 13.6198 26.8148 12.7108Z" fill="#EB9481"/>
<path d="M36.149 25.8646C36.3005 26.0076 44.8866 25.5786 44.9322 25.5225C45.0529 25.3667 42.3074 16.7949 40.1371 15.3088C39.6706 14.9897 38.3073 15.2859 37.9923 15.5935C37.7898 15.7863 37.3796 17.0158 37.0928 18.0193C36.5123 20.0441 36.0217 25.7395 36.149 25.8646Z" fill="white"/>
<path d="M36.1155 25.935C36.1155 25.935 36.0659 21.7474 36.8796 18.4356C37.4641 16.0609 37.7576 15.6869 37.7576 15.6869L37.9882 15.595L37.5686 17.5458L39.3113 17.4666C39.3113 17.4666 40.0513 15.3817 40.1653 15.3307C40.2376 15.2988 40.5312 15.5771 40.5312 15.5771C40.5312 15.5771 39.861 17.7883 39.9521 18.691C40.0433 19.5936 40.7095 21.0044 41.2672 21.4295C41.8248 21.8546 43.7271 21.4703 43.7713 21.4806C43.8155 21.4908 45.1118 25.7269 45.1333 25.7843C45.1547 25.8418 36.1155 25.935 36.1155 25.935Z" fill="#455A64"/>
<path d="M37.2603 19.6176C37.5769 19.8232 37.9325 19.968 38.3073 20.044C38.5137 20.0581 39.4709 19.7491 39.6116 19.6674C39.6827 19.6266 39.5821 18.2452 39.5486 18.1596C39.5151 18.0741 37.3515 18.0971 37.2925 18.1596C37.1611 18.3256 37.1919 19.5614 37.2603 19.6176ZM37.3434 18.249C37.4131 18.189 39.3355 18.1277 39.4883 18.2311C39.5097 18.5171 39.558 19.5768 39.5272 19.6125C39.4963 19.6483 38.499 19.9828 38.3207 19.9611C38.0526 19.9304 37.4373 19.6457 37.3327 19.578C37.2576 19.5193 37.2952 18.2911 37.3434 18.249Z" fill="#263238"/>
<path d="M45.0636 25.8045C45.1145 25.8517 45.4416 28.7626 45.2472 28.8788C45.0529 28.995 42.4241 29.3895 42.2337 29.2924C42.0434 29.1954 41.8396 26.2858 41.857 26.2475C41.8744 26.2092 44.9698 25.7151 45.0636 25.8045Z" fill="white"/>
<path opacity="0.1" d="M41.9482 27.5446C42.0219 28.3502 42.1292 29.2414 42.2337 29.2937C42.4254 29.3895 45.0488 28.995 45.2472 28.8788C45.3545 28.815 45.3036 27.92 45.2285 27.1118C45.1974 26.6736 45.1424 26.2372 45.0636 25.8045C44.9698 25.7138 41.8744 26.2105 41.857 26.2475C41.849 26.2654 41.8879 26.8744 41.9482 27.5446Z" fill="#121212"/>
<path d="M45.388 25.7154C45.4322 25.6771 45.1427 24.5906 44.9698 24.3174C44.9698 24.3174 42.1466 24.7885 39.7417 24.9557C37.9426 25.0834 35.8916 24.9902 35.8809 25.0387C35.8702 25.0872 35.7884 26.2516 35.83 26.3473C35.8715 26.4431 38.5955 26.475 40.1452 26.3971C41.6948 26.3193 45.2405 25.8456 45.388 25.7154Z" fill="white"/>
<path d="M37.2214 26.48C37.2777 26.5196 39.2322 26.5438 39.2711 26.503C39.31 26.4621 39.3247 25.0233 39.1719 24.939C39.0808 24.8892 37.3555 24.902 37.2456 24.9492C37.1356 24.9965 37.1678 26.4391 37.2214 26.48ZM37.4319 25.1216C37.5217 25.0846 38.9212 25.0769 38.995 25.1152C39.1183 25.1803 39.1062 26.2923 39.0767 26.323C39.0473 26.3536 37.4601 26.3345 37.4145 26.3025C37.3689 26.2706 37.3474 25.1586 37.4359 25.1216H37.4319Z" fill="#DBDBDB"/>
<path d="M37.2901 25.8132L37.8384 25.8152L37.8392 25.616L37.291 25.614L37.2901 25.8132Z" fill="#DBDBDB"/>
<path d="M39.7819 25.6973C39.7844 25.7158 39.7939 25.7327 39.8085 25.745C39.8232 25.7572 39.8421 25.764 39.8616 25.764C39.8811 25.764 39.9 25.7572 39.9146 25.745C39.9293 25.7327 39.9388 25.7158 39.9413 25.6973C39.9388 25.6789 39.9293 25.6619 39.9146 25.6497C39.9 25.6374 39.8811 25.6306 39.8616 25.6306C39.8421 25.6306 39.8232 25.6374 39.8085 25.6497C39.7939 25.6619 39.7844 25.6789 39.7819 25.6973Z" fill="#263238"/>
<path d="M40.6143 25.645C40.6138 25.655 40.6153 25.665 40.6189 25.6744C40.6225 25.6839 40.628 25.6925 40.6351 25.6999C40.6422 25.7072 40.6508 25.7132 40.6603 25.7173C40.6699 25.7215 40.6802 25.7238 40.6907 25.7242C40.7013 25.7245 40.7118 25.7229 40.7217 25.7193C40.7316 25.7158 40.7406 25.7104 40.7483 25.7035C40.7561 25.6967 40.7623 25.6884 40.7666 25.6793C40.771 25.6701 40.7734 25.6602 40.7738 25.6501C40.7741 25.6402 40.7724 25.6302 40.7687 25.6208C40.7649 25.6115 40.7593 25.603 40.7521 25.5957C40.7448 25.5885 40.7361 25.5827 40.7265 25.5786C40.7169 25.5746 40.7066 25.5725 40.6961 25.5723C40.6857 25.572 40.6753 25.5736 40.6656 25.5771C40.6559 25.5805 40.647 25.5858 40.6394 25.5925C40.6318 25.5993 40.6257 25.6074 40.6214 25.6164C40.6171 25.6254 40.6147 25.6352 40.6143 25.645Z" fill="#263238"/>
<path d="M44.881 25.2988L43.9099 25.4034L43.6303 23.0475C43.6203 22.9634 43.6458 22.879 43.7012 22.8128C43.7566 22.7466 43.8373 22.704 43.9256 22.6945L44.2267 22.6621C44.315 22.6526 44.4037 22.6769 44.4732 22.7297C44.5427 22.7824 44.5874 22.8593 44.5973 22.9434L44.877 25.2993L44.881 25.2988Z" fill="#37474F"/>
<path d="M44.0991 25.6338L44.7518 25.5635L44.7226 25.3174L44.0699 25.3876L44.0991 25.6338Z" fill="#37474F"/>
<path d="M44.6377 28.262L44.8441 28.2397L44.5294 25.5883L44.3229 25.6106L44.6377 28.262Z" fill="#EBEBEB"/>
<path d="M44.5596 28.5036C44.5596 28.5036 44.7352 28.8981 44.7486 28.8968L44.8169 28.8892L44.8853 28.8815C44.9001 28.8815 44.9778 28.4589 44.9778 28.4589L44.8437 28.238L44.6386 28.2597L44.5596 28.5036Z" fill="#EBEBEB"/>
<path d="M44.588 25.0673L44.7572 25.0491L44.512 22.9838L44.3428 23.002L44.588 25.0673Z" fill="#263238"/>
<path d="M44.2749 25.1002L44.4441 25.082L44.1989 23.0167L44.0298 23.0349L44.2749 25.1002Z" fill="#263238"/>
<path d="M43.9626 25.13L44.1318 25.1118L43.887 23.0465L43.7178 23.0646L43.9626 25.13Z" fill="#263238"/>
<path d="M43.6297 24.4904L44.1871 24.4207L44.0729 23.5928L43.5155 23.6625L43.6297 24.4904Z" fill="#EBEBEB"/>
<path d="M43.4965 23.8231L43.1198 23.8742C43.0622 23.8806 42.8061 23.661 42.6292 23.6827L42.4348 23.7069C42.2672 23.7273 41.5809 23.9789 41.6385 24.3963L41.672 24.644C41.672 24.644 41.7391 24.4129 41.8932 24.3517C41.9657 24.3234 42.0469 24.3231 42.1195 24.351C42.1921 24.3789 42.2504 24.4328 42.282 24.501C42.331 24.6204 42.3713 24.7428 42.4026 24.8674L43.0943 24.7806C43.1071 24.631 43.1335 24.4828 43.1734 24.3376C43.2217 24.2253 43.5488 24.2099 43.5488 24.2099L43.4965 23.8231Z" fill="#EBEBEB"/>
<path d="M42.7416 26.323L43.1709 26.2698L42.969 24.791L42.5396 24.8442L42.7416 26.323Z" fill="#EBEBEB"/>
<path d="M42.99 28.9375L43.6307 28.8582L43.1814 25.5677L42.5406 25.6471L42.99 28.9375Z" fill="#263238"/>
<path d="M41.9482 27.5446C42.0219 28.3502 42.1292 29.2414 42.2337 29.2937C42.4254 29.3895 45.0488 28.995 45.2472 28.8788C45.3545 28.8149 45.3036 27.92 45.2285 27.1118L41.9482 27.5446Z" fill="white"/>
<path d="M38.5419 16.7336C39.062 16.7975 39.8529 15.9676 40.1317 15.3382C40.1505 15.2935 40.0366 14.8671 39.924 14.3436C39.8569 14.0245 39.7899 13.6683 39.7537 13.3389L37.641 14.0577C37.8101 14.4566 37.9272 14.8738 37.9896 15.2999C37.9949 15.3453 37.9949 15.3911 37.9896 15.4365C37.9889 15.4441 37.9889 15.4518 37.9896 15.4595C37.9735 15.7212 38.0378 16.6723 38.5419 16.7336Z" fill="#EB9481"/>
<path d="M39.6532 13.3733C39.6344 13.7882 39.4655 15.296 38.2134 15.4479C38.1392 15.4566 38.0644 15.4604 37.9896 15.4594C37.9881 15.4514 37.9881 15.4432 37.9896 15.4352C37.9936 15.3901 37.9936 15.3449 37.9896 15.2998C37.9265 14.8733 37.809 14.4557 37.6397 14.0563L39.6532 13.3733Z" fill="#263238"/>
<path d="M39.6156 10.9718C39.9481 11.6727 39.8274 13.8316 39.3475 14.3678C38.6491 15.1466 37.3649 15.37 36.6343 14.5389C35.9265 13.7346 36.1356 10.9233 36.6879 10.4228C37.4976 9.6836 39.125 9.93511 39.6156 10.9718Z" fill="#EB9481"/>
<path d="M37.7241 12.5205C37.7241 12.5205 37.7349 12.5282 37.7349 12.5333C37.7228 12.6788 37.7349 12.8473 37.8689 12.9022C37.8689 12.9022 37.8689 12.9112 37.8689 12.9099C37.7014 12.8793 37.688 12.6558 37.7241 12.5205Z" fill="#263238"/>
<path d="M37.8676 12.3751C38.1142 12.3687 38.1102 12.8385 37.881 12.8449C37.6517 12.8513 37.6611 12.384 37.8676 12.3751Z" fill="#263238"/>
<path d="M36.8447 12.5117C36.8447 12.5117 36.8327 12.5194 36.8327 12.5245C36.8327 12.67 36.8139 12.8373 36.6758 12.8845V12.8935C36.8447 12.8769 36.8715 12.6547 36.8447 12.5117Z" fill="#263238"/>
<path d="M36.7093 12.3636C36.464 12.3445 36.4412 12.813 36.6678 12.8322C36.8943 12.8513 36.9158 12.384 36.7093 12.3636Z" fill="#263238"/>
<path d="M38.0646 12.1618C38 12.1429 37.9364 12.1208 37.8743 12.0954C37.8037 12.0814 37.7401 12.0455 37.6933 11.9933C37.6817 11.9743 37.6771 11.9522 37.6803 11.9304C37.6835 11.9087 37.6942 11.8886 37.7107 11.8733C37.749 11.8465 37.7942 11.8302 37.8414 11.8262C37.8887 11.8221 37.9362 11.8305 37.9788 11.8503C38.0696 11.8752 38.1471 11.9317 38.196 12.0086C38.2072 12.0272 38.2121 12.0486 38.2103 12.0699C38.2084 12.0913 38.1998 12.1116 38.1856 12.1282C38.1713 12.1448 38.1522 12.1569 38.1306 12.1629C38.109 12.1689 38.086 12.1685 38.0646 12.1618Z" fill="#263238"/>
<path d="M36.5203 12.1286C36.5868 12.1161 36.6526 12.1003 36.7174 12.0814C36.7889 12.0743 36.8559 12.0446 36.9077 11.9971C36.9235 11.9792 36.9321 11.9566 36.9321 11.9333C36.9321 11.91 36.9235 11.8874 36.9077 11.8695C36.8733 11.8402 36.8312 11.8203 36.786 11.8118C36.7407 11.8033 36.6939 11.8064 36.6504 11.8209C36.5569 11.8382 36.4736 11.8883 36.4171 11.9614C36.4045 11.9781 36.3972 11.9979 36.3962 12.0184C36.3952 12.039 36.4005 12.0593 36.4114 12.0771C36.4224 12.0948 36.4385 12.1091 36.4578 12.1183C36.4772 12.1274 36.4989 12.131 36.5203 12.1286Z" fill="#263238"/>
<path d="M37.8634 13.8751C37.8272 13.9096 37.7897 13.9555 37.7294 13.9593C37.6722 13.9579 37.6161 13.9448 37.5646 13.9211C37.5646 13.9211 37.5552 13.9211 37.5579 13.9287C37.5797 13.9575 37.6093 13.9801 37.6435 13.9943C37.6777 14.0084 37.7152 14.0135 37.7522 14.0091C37.7833 14.0016 37.8113 13.9855 37.8328 13.9627C37.8543 13.94 37.8682 13.9118 37.8728 13.8815C37.8808 13.8739 37.8688 13.87 37.8634 13.8751Z" fill="#263238"/>
<path d="M37.7081 13.4386C37.6688 13.497 37.6171 13.5469 37.5564 13.5851C37.4957 13.6234 37.4273 13.6492 37.3555 13.6608C37.2936 13.6718 37.2304 13.674 37.1678 13.6672C37.1562 13.6685 37.1445 13.6685 37.133 13.6672H37.0994C37.0911 13.6657 37.0836 13.6617 37.078 13.6557C37.0724 13.6496 37.0691 13.642 37.0686 13.634C37.068 13.6289 37.068 13.6237 37.0686 13.6186V13.6059C37.0686 13.4935 37.0807 13.3224 37.0807 13.3224C37.0364 13.3429 36.8126 13.4348 36.8206 13.3761C36.8389 12.8711 36.9117 12.3693 37.0378 11.8785C37.0378 11.8751 37.0392 11.8719 37.0417 11.8695C37.0442 11.8671 37.0476 11.8657 37.0512 11.8657C37.0547 11.8657 37.0582 11.8671 37.0607 11.8695C37.0632 11.8719 37.0646 11.8751 37.0646 11.8785C37.0512 12.3458 36.9506 12.8067 36.9305 13.2752C37.009 13.2416 37.092 13.2184 37.1772 13.2063C37.1933 13.2063 37.145 13.5357 37.1504 13.5893C37.2461 13.5989 37.3428 13.5902 37.4349 13.5636C37.527 13.5371 37.6126 13.4933 37.6866 13.4348C37.7054 13.4169 37.7174 13.4271 37.7081 13.4386Z" fill="#263238"/>
<path d="M37.2576 13.6313C37.3284 13.7038 37.4175 13.7578 37.5164 13.7883C37.5709 13.8048 37.6294 13.8048 37.6839 13.7883C37.8019 13.7487 37.7965 13.644 37.767 13.5547C37.7503 13.5099 37.7282 13.4671 37.7013 13.427C37.5802 13.5385 37.4247 13.6101 37.2576 13.6313Z" fill="#263238"/>
<path d="M37.5163 13.7882C37.5708 13.8047 37.6293 13.8047 37.6838 13.7882C37.8017 13.7486 37.7964 13.644 37.7669 13.5547C37.7038 13.5615 37.6449 13.5882 37.5995 13.6305C37.5541 13.6728 37.5249 13.7283 37.5163 13.7882Z" fill="#F291B8"/>
<path d="M39.5794 12.6036C39.1344 12.7313 38.6826 10.9018 38.6826 10.9018C38.456 11.0889 38.2006 11.2418 37.9252 11.355C37.6393 11.4514 37.343 11.5169 37.0418 11.5504C36.9748 11.5504 37.6611 11.0525 37.6611 11.0525C37.6611 11.0525 36.9238 11.5159 36.2871 11.4355C36.09 11.4087 36.4091 9.83831 37.7979 9.71191C38.7362 9.6251 39.2725 10.3388 39.2725 10.3388C39.2725 10.3388 39.9106 10.7499 39.9776 11.0525C40.0634 11.4521 40.05 12.476 39.5794 12.6036Z" fill="#263238"/>
<path d="M39.2229 12.6955C39.2229 12.6955 39.6465 11.9601 39.9923 12.098C40.3382 12.2359 40.0714 13.2649 39.7041 13.4386C39.6591 13.4631 39.6094 13.4789 39.5579 13.4849C39.5064 13.491 39.4541 13.4871 39.4042 13.4737C39.3542 13.4603 39.3076 13.4375 39.2671 13.4067C39.2265 13.3759 39.1928 13.3377 39.1679 13.2943L39.2229 12.6955Z" fill="#EB9481"/>
<path d="M39.9025 12.3901V12.4003C39.6465 12.528 39.5325 12.7834 39.4615 13.0387C39.4741 13.0115 39.4928 12.9872 39.5162 12.9675C39.5397 12.9478 39.5673 12.9332 39.5973 12.9247C39.6273 12.9162 39.6588 12.914 39.6897 12.9183C39.7207 12.9225 39.7503 12.9331 39.7765 12.9493C39.7832 12.9493 39.7765 12.9647 39.7765 12.9634C39.7276 12.954 39.6769 12.9593 39.6313 12.9785C39.5857 12.9977 39.5474 13.0299 39.5218 13.0706C39.4791 13.1387 39.4444 13.211 39.4186 13.2864C39.4092 13.3106 39.3636 13.303 39.3703 13.2749C39.3301 12.9442 39.5446 12.4616 39.9025 12.3901Z" fill="#263238"/>
<path d="M36.1021 11.1786C36.1021 11.1786 36.4922 8.99033 38.5445 9.30696C40.5969 9.62358 40.2417 11.817 40.2417 11.817L36.1021 11.1786Z" fill="white"/>
<path d="M40.4221 11.6831L35.9745 10.9971L35.9217 11.3071L40.3693 11.9932L40.4221 11.6831Z" fill="white"/>
<path d="M38.1652 11.337L37.2389 11.1941L37.822 9.07983L38.7483 9.22282L38.1652 11.337Z" fill="white"/>
<path opacity="0.1" d="M38.1652 11.337L37.2389 11.1941L37.822 9.07983L38.7483 9.22282L38.1652 11.337Z" fill="#121212"/>
<path d="M37.9882 15.3689L38.5137 16.5741L40.0754 15.0242L40.5299 15.5106C40.5299 15.5106 39.0137 17.9631 39.003 17.8533L38.4668 16.8154L37.7188 17.5495L37.7576 15.7251L37.9882 15.3689Z" fill="white"/>
<path d="M37.6839 16.647C37.7 16.3457 37.7094 16.0431 37.7402 15.7431C37.7402 15.7316 37.759 15.7265 37.7617 15.7431C37.8287 16.0329 37.7617 17.1845 37.7617 17.4602C37.7925 17.4283 38.4547 16.8129 38.4614 16.8219C38.5767 16.9866 38.9708 17.7424 38.9977 17.8113C39.2363 17.4219 40.1572 16.0048 40.4414 15.6409C40.4428 15.6386 40.4452 15.6368 40.448 15.6361C40.4507 15.6354 40.4537 15.6357 40.4562 15.6371C40.4586 15.6385 40.4605 15.6407 40.4612 15.6433C40.462 15.646 40.4616 15.6488 40.4602 15.6511C40.2497 16.0622 39.0325 17.9696 39.0137 17.9645C38.8063 17.6083 38.6188 17.2418 38.4521 16.8666C38.3408 16.9942 37.6732 17.6939 37.6692 17.6492C37.6556 17.3151 37.6605 16.9806 37.6839 16.647Z" fill="#263238"/>
<path d="M29.0522 25.3349C28.9889 25.6258 28.8418 25.8941 28.6272 26.1097C28.4127 26.3253 28.1392 26.4797 27.8376 26.5554L28.1165 25.2787L27.4355 24.8842L26.6499 24.9876L26.3711 26.2643C26.1361 26.0884 25.9547 25.8559 25.8456 25.5908C25.7366 25.3258 25.7038 25.0378 25.7507 24.7567C25.7976 24.4755 25.9226 24.2114 26.1125 23.9916C26.3025 23.7719 26.5507 23.6044 26.8314 23.5066C27.1121 23.4087 27.4152 23.384 27.7092 23.4351C28.0033 23.4861 28.2777 23.6111 28.5041 23.7969C28.7305 23.9828 28.9007 24.2229 28.997 24.4924C29.0934 24.7618 29.1124 25.0509 29.0522 25.3298V25.3349Z" fill="#37474F"/>
<path d="M27.6781 16.255C27.7418 15.964 27.8892 15.6957 28.104 15.4802C28.3187 15.2646 28.5923 15.1102 28.894 15.0344L28.6152 16.3111L29.2935 16.7031L30.079 16.5997L30.3579 15.323C30.5929 15.4989 30.7742 15.7315 30.8833 15.9966C30.9923 16.2617 31.0249 16.5497 30.9779 16.8309C30.9309 17.1121 30.8059 17.3762 30.6158 17.5959C30.4257 17.8156 30.1774 17.983 29.8966 18.0808C29.6158 18.1785 29.3127 18.2031 29.0187 18.1519C28.7246 18.1007 28.4502 17.9756 28.2239 17.7896C27.9976 17.6036 27.8275 17.3633 27.7314 17.0938C27.6352 16.8242 27.6163 16.5351 27.6768 16.2562L27.6781 16.255Z" fill="#37474F"/>
<path d="M29.7368 17.2926L28.2649 17.0452L26.9535 24.1211L28.4254 24.3685L29.7368 17.2926Z" fill="#37474F"/>
<path d="M41.2015 18.1712C40.8248 19.2589 39.5526 23.3227 37.322 24.3134C35.2334 25.2403 31.4745 24.0874 30.3163 23.8231C29.8109 23.707 30.4182 20.4667 30.9062 20.2165C31.3941 19.9662 35.3554 21.0297 35.7629 20.9557C36.1704 20.8816 38.1558 18.9359 39.499 17.5086C40.7672 16.1642 41.9039 16.1374 41.2015 18.1712Z" fill="#EB9481"/>
<path d="M36.8501 24.4819C36.7925 23.481 36.5914 22.5184 36.2522 21.8009C36.1414 21.556 35.9962 21.3267 35.8206 21.1191C35.773 21.0615 35.721 21.0073 35.6651 20.957C35.6463 20.9404 35.6262 20.9225 35.6061 20.9072C35.5795 20.8836 35.5513 20.8619 35.5216 20.8421C35.3726 20.7305 35.1981 20.654 35.0122 20.6186C34.9861 20.6135 34.9597 20.6096 34.9331 20.6071H34.8674H34.779C34.7651 20.6058 34.7512 20.6058 34.7374 20.6071C34.7254 20.6052 34.7132 20.6052 34.7012 20.6071C34.5434 20.6151 34.388 20.6479 34.2414 20.7042L34.4693 20.7514H34.4814H34.4921H34.5082C34.5717 20.7382 34.6363 20.7296 34.7012 20.7259H34.8111H34.8835C35.0675 20.7475 35.2423 20.8149 35.3902 20.9212C36.0525 21.3706 36.6142 22.5809 36.708 24.5087C36.7174 24.6926 36.7214 24.8841 36.7214 25.082C36.7214 26.1608 36.5565 27.1554 36.2589 27.8818C36.035 28.4244 35.6315 29.0691 34.9586 29.1087H34.8473H34.8152H34.7535C34.7486 29.1095 34.7436 29.1095 34.7387 29.1087C33.7387 28.953 32.7534 27.2728 32.7534 24.5522C32.7534 24.5011 32.7534 24.4487 32.7534 24.399L32.6194 24.3721C32.6194 24.4321 32.6194 24.4922 32.6194 24.5522C32.6194 25.9055 32.9116 27.2856 33.4398 28.1971C33.5381 28.3694 33.6534 28.5322 33.7843 28.6836C33.8302 28.7357 33.879 28.7856 33.9304 28.8329C33.9532 28.8547 33.9773 28.8764 34.0001 28.8955C34.2011 29.0767 34.4548 29.196 34.728 29.2377H34.7589H34.8004H34.9573C35.1852 29.2244 35.4044 29.1491 35.5886 29.0206C35.6141 29.004 35.6382 28.9862 35.6637 28.967C35.7182 28.9233 35.7701 28.8769 35.8192 28.8278C36.0164 28.6206 36.1762 28.3838 36.2924 28.1269C36.3233 28.0631 36.3528 27.9993 36.3809 27.929C36.6852 27.1873 36.8528 26.1761 36.8528 25.082C36.8675 24.8854 36.8622 24.6824 36.8501 24.4819Z" fill="#263238"/>
<path d="M37.0565 24.4169C36.9842 23.3955 36.7455 22.4163 36.3474 21.7052C36.215 21.462 36.0451 21.2391 35.8434 21.0439C35.8125 21.0145 35.7817 20.9864 35.7495 20.9609C35.7173 20.9353 35.7039 20.9251 35.6825 20.9085C35.4889 20.7594 35.2579 20.6608 35.0122 20.6225C34.9861 20.6174 34.9597 20.6135 34.9331 20.611H34.8674H34.779C34.7651 20.6098 34.7512 20.6098 34.7374 20.611C34.7254 20.6091 34.7132 20.6091 34.7012 20.611C34.6843 20.6098 34.6672 20.6098 34.6503 20.611H34.6342C34.486 20.6216 34.34 20.6508 34.1999 20.6979L34.2414 20.7055L34.4693 20.7528H34.4814H34.4921C34.5426 20.7437 34.5936 20.7373 34.6449 20.7336H34.661C34.6744 20.7323 34.6878 20.7323 34.7012 20.7336H34.8111H34.8835C35.0968 20.7528 35.3016 20.8231 35.4787 20.9379C35.8063 21.1603 36.071 21.4563 36.2495 21.7997C36.6021 22.4214 36.8568 23.3113 36.9198 24.4578C36.9319 24.6595 36.9386 24.8689 36.9386 25.0872C36.9386 26.1647 36.7563 27.158 36.4238 27.8844C36.3876 27.9661 36.3461 28.0491 36.2991 28.1321C36.0404 28.5956 35.6289 29.0564 35.0229 29.1101H34.9626H34.8514H34.8192H34.8085H34.7816H34.7723C34.7071 29.1046 34.6425 29.0939 34.5792 29.0781C34.5757 29.0792 34.572 29.0792 34.5685 29.0781C34.531 29.0679 34.4948 29.0577 34.4586 29.045C34.4224 29.0322 34.409 29.0284 34.3835 29.0181C33.9956 28.8375 33.6731 28.5508 33.4572 28.1947C33.3481 28.0312 33.2514 27.8605 33.1676 27.684C32.7655 26.8324 32.5269 25.6911 32.5269 24.551C32.5269 24.4833 32.5269 24.4156 32.5269 24.3492L32.3928 24.3224C32.3928 24.3978 32.3928 24.4744 32.3928 24.551C32.3928 25.7919 32.6609 27.0558 33.1623 27.9598C33.2808 28.179 33.4232 28.3857 33.5872 28.5764C33.641 28.6393 33.6988 28.6989 33.7602 28.7551C34.0055 29.0012 34.3257 29.1678 34.6757 29.2314H34.6865H34.7039H34.7334H34.7642H34.8152H34.972C35.2591 29.219 35.5354 29.1237 35.7643 28.9581C35.8153 28.9227 35.8637 28.8839 35.909 28.842C36.0947 28.6758 36.2517 28.4827 36.3742 28.27C36.4412 28.1579 36.5016 28.0424 36.5552 27.924C36.8943 27.1822 37.0807 26.1698 37.0807 25.0757C37.0874 24.8637 37.0726 24.6403 37.0565 24.4169Z" fill="#263238"/>
<path d="M37.2777 24.3326C37.1893 23.3316 36.9265 22.3792 36.4949 21.686C36.3531 21.4534 36.1765 21.2418 35.9707 21.0578C35.9229 21.015 35.8728 20.9745 35.8206 20.9365C35.5652 20.7461 35.2565 20.6315 34.9331 20.6071H34.8835H34.779C34.7652 20.6058 34.7512 20.6058 34.7374 20.6071C34.7254 20.6052 34.7132 20.6052 34.7012 20.6071C34.6843 20.6059 34.6672 20.6059 34.6503 20.6071H34.6342L34.5149 20.6174H34.4961C34.3852 20.6307 34.2757 20.6533 34.169 20.685L34.1999 20.6914L34.2414 20.6991L34.4693 20.7463H34.4814L34.5497 20.7361H34.6181H34.661C34.6744 20.7348 34.6879 20.7348 34.7012 20.7361H34.8111C34.8352 20.7342 34.8594 20.7342 34.8835 20.7361C35.1263 20.7547 35.3605 20.8297 35.5659 20.9544C35.6508 21.0045 35.7315 21.0608 35.8072 21.1229C36.012 21.2908 36.1891 21.4871 36.3327 21.7051C36.7455 22.3166 37.0498 23.2129 37.137 24.3862C37.1544 24.6109 37.1638 24.8471 37.1638 25.0922C37.1638 26.1685 36.9627 27.1617 36.5981 27.8882C36.5292 28.0262 36.4499 28.1594 36.3608 28.2865C36.2178 28.4992 36.0363 28.6859 35.8246 28.8381C35.5911 29.0041 35.3112 29.1005 35.0203 29.1151H34.9599H34.8487H34.8165H34.7562H34.7347H34.7106H34.6771C34.6651 29.1169 34.6529 29.1169 34.6409 29.1151C34.5734 29.1043 34.5071 29.0881 34.4425 29.0666C34.417 29.0589 34.3929 29.05 34.3674 29.0398C34.1557 28.9606 33.9599 28.8475 33.7883 28.7053C33.5364 28.4981 33.3205 28.2542 33.1489 27.9827C32.6341 27.1962 32.2842 26.0357 32.2842 24.5739C32.2842 24.4887 32.2842 24.4036 32.2842 24.3185L32.1502 24.2892C32.1502 24.3811 32.1502 24.4743 32.1502 24.5675C32.1502 25.7382 32.4183 26.9294 32.9049 27.8192C33.0342 28.0609 33.1911 28.2883 33.3727 28.4972C33.6778 28.8742 34.1126 29.1368 34.6007 29.2389H34.6262H34.6623H34.6784H34.6959H34.7254H34.7562H34.7656H34.8071H34.9868C35.3818 29.2231 35.7584 29.0758 36.0511 28.8227C36.2461 28.654 36.4137 28.4587 36.5485 28.2431C36.6075 28.1486 36.6651 28.049 36.7187 27.9418C37.0914 27.1988 37.2979 26.1863 37.2979 25.0909C37.3113 24.8356 37.3005 24.5828 37.2777 24.3326Z" fill="#263238"/>
<path d="M37.4895 24.2291C37.3877 23.292 37.1169 22.4047 36.6852 21.7421L36.6785 21.7332C36.4753 21.4067 36.2011 21.1255 35.8742 20.9084C35.5824 20.7223 35.2424 20.6163 34.8916 20.602H34.7749C34.7611 20.6007 34.7472 20.6007 34.7334 20.602C34.7214 20.6001 34.7092 20.6001 34.6972 20.602C34.6802 20.6007 34.6632 20.6007 34.6463 20.602H34.6369H34.5993L34.5109 20.611H34.4921C34.3735 20.6232 34.2561 20.6441 34.1409 20.6735H34.165L34.1958 20.6799L34.2374 20.6876L34.4653 20.7348L34.535 20.7259H34.5417H34.6101H34.653C34.6663 20.7246 34.6798 20.7246 34.6932 20.7259H34.8728C35.1217 20.735 35.3655 20.7955 35.5873 20.9033C35.6227 20.919 35.6571 20.9365 35.6905 20.9557C35.7368 20.98 35.7815 21.0069 35.8246 21.0361C36.0821 21.2113 36.3035 21.4303 36.4774 21.6821C36.9547 22.3473 37.2469 23.292 37.3488 24.2891C37.3756 24.5521 37.389 24.8173 37.389 25.0845C37.389 26.1608 37.1705 27.1528 36.7737 27.878C36.7064 28.0026 36.6298 28.1225 36.5445 28.2367C36.3724 28.4788 36.1514 28.6859 35.8943 28.8457C35.8207 28.8908 35.7436 28.9305 35.6637 28.9644C35.4886 29.0382 35.3021 29.0844 35.1114 29.101C35.082 29.1029 35.0524 29.1029 35.0229 29.101C35.002 29.1023 34.9809 29.1023 34.9599 29.101H34.9117C34.8795 29.101 34.8487 29.101 34.8165 29.101H34.7307H34.7066H34.6731C34.6611 29.1029 34.6489 29.1029 34.6369 29.101H34.6087L34.5591 29.0921C34.5556 29.0932 34.5519 29.0932 34.5484 29.0921C34.3297 29.043 34.121 28.9602 33.9304 28.847C33.8014 28.7726 33.6798 28.6871 33.5671 28.5916C33.303 28.3683 33.0769 28.1073 32.8968 27.818C32.3915 27.0379 32.0577 25.9335 32.0577 24.5662C32.0577 24.4666 32.0577 24.3683 32.0577 24.27L31.9236 24.2406C31.9183 24.3479 31.9156 24.4564 31.9156 24.5662C31.9156 25.6756 32.1756 26.803 32.6555 27.6762C33.0899 28.4729 33.7106 29.0551 34.48 29.2198C34.5074 29.2262 34.5352 29.2313 34.5631 29.2351H34.5806H34.606H34.6422H34.6583H34.6757H34.7052H34.7146H34.7455H34.8326H34.9961C35.6878 29.2108 36.2763 28.8521 36.716 28.2035C36.7737 28.118 36.8286 28.0286 36.8809 27.9329C37.2831 27.1885 37.5123 26.1761 37.5123 25.0794C37.5199 24.7958 37.5123 24.512 37.4895 24.2291Z" fill="#263238"/>
<path d="M37.7013 24.1104C37.5123 22.706 36.9131 21.4293 35.9265 20.8816C35.6132 20.7068 35.2585 20.6106 34.8956 20.602H34.779C34.7651 20.6007 34.7512 20.6007 34.7374 20.602C34.7254 20.6001 34.7132 20.6001 34.7012 20.602C34.6843 20.6007 34.6672 20.6007 34.6503 20.602H34.6034L34.5149 20.611H34.4961C34.3716 20.6227 34.2481 20.6419 34.1261 20.6684H34.1449H34.169L34.1998 20.6748L34.2414 20.6824L34.4693 20.7297L34.543 20.722H34.5497H34.6181H34.661C34.6744 20.7208 34.6878 20.7208 34.7012 20.722H34.7428H34.8862C35.1012 20.7267 35.314 20.7646 35.5163 20.8344C35.5707 20.8522 35.6239 20.8731 35.6758 20.8969C35.7097 20.9106 35.7433 20.9259 35.7763 20.9429C35.8408 20.9754 35.9035 21.0112 35.964 21.0501C36.2438 21.231 36.4857 21.46 36.6772 21.7255L36.6839 21.7345C37.1557 22.3728 37.4533 23.2461 37.57 24.1755C37.6076 24.4759 37.6264 24.7782 37.6263 25.0807C37.6263 26.1557 37.3903 27.1477 36.9627 27.8728C36.8955 27.9881 36.8202 28.099 36.7375 28.2048C36.5543 28.4496 36.3225 28.6578 36.0552 28.8176C35.9615 28.8736 35.8628 28.9214 35.7602 28.9606C35.7079 28.9825 35.6542 29.0013 35.5994 29.0168C35.4447 29.064 35.2843 29.0919 35.1221 29.0998C35.0927 29.1017 35.0631 29.1017 35.0337 29.0998C35.0127 29.1011 34.9916 29.1011 34.9707 29.0998H34.9224C34.8902 29.0998 34.8594 29.0998 34.8272 29.0998H34.787H34.7749H34.7468H34.7173H34.6838C34.6718 29.101 34.6596 29.101 34.6476 29.0998H34.6194L34.5698 29.0908C34.5664 29.0919 34.5626 29.0919 34.5591 29.0908C34.3687 29.0532 34.1844 28.9918 34.0108 28.9083C33.9212 28.8661 33.8343 28.8188 33.7508 28.7665C33.618 28.6855 33.4929 28.5936 33.3768 28.492C33.1017 28.2534 32.8654 27.9772 32.6757 27.6724C32.185 26.9064 31.8646 25.848 31.8646 24.5624C31.8646 24.4474 31.8646 24.3325 31.874 24.2202L31.74 24.1896C31.74 24.3172 31.7292 24.4372 31.7292 24.5624C31.7292 26.6868 32.7547 28.8776 34.4988 29.2159C34.5262 29.2224 34.5539 29.2275 34.5819 29.2313H34.5993H34.6248H34.661H34.6717H34.6891H34.728L34.8621 29.2402H35.0055C35.8621 29.2249 36.5739 28.7742 37.0673 27.9392C37.507 27.1949 37.7483 26.1812 37.7483 25.0845C37.7547 24.7592 37.739 24.4338 37.7013 24.1104Z" fill="#263238"/>
<path d="M36.149 20.0262C35.4691 20.0403 34.8005 20.1945 34.1891 20.4782H34.1784C34.0837 20.5242 33.9912 20.5739 33.9009 20.6276H33.8701L33.7253 20.5969C34.4461 20.156 35.2817 19.915 36.1383 19.9011L36.149 20.0262Z" fill="#263238"/>
<path d="M35.6262 20.2881C35.0893 20.319 34.5639 20.4491 34.0792 20.6711L33.9023 20.6341H33.8714C33.9693 20.583 34.0725 20.5358 34.1798 20.4911H34.1905C34.6419 20.3061 35.1226 20.1944 35.6128 20.1604L35.6262 20.2881Z" fill="#263238"/>
<path d="M35.5444 19.8833C34.8801 19.9804 34.2481 20.2215 33.6972 20.588L33.5215 20.5549C34.1108 20.1389 34.7979 19.8663 35.523 19.7607L35.5444 19.8833Z" fill="#263238"/>
<path d="M26.9274 18.3068C26.8405 18.3985 26.7851 18.5133 26.7686 18.6358C26.7521 18.7583 26.7752 18.8827 26.8349 18.9924C26.6199 19.0415 26.43 19.1613 26.2987 19.3307C26.0829 19.6384 26.4944 20.0967 26.4944 20.0967C26.2841 20.1932 26.109 20.3475 25.9917 20.5397C25.8161 20.8538 26.162 21.3709 26.162 21.3709C26.0199 21.561 25.9543 21.7935 25.977 22.0258C26.0641 22.6438 26.9757 23.0357 27.5508 23.291C28.1259 23.5464 30.0134 23.7558 30.3659 23.8311L32.1274 20.3201C32.1274 20.3201 29.886 18.4766 29.1635 18.2672C28.5495 18.0923 27.2746 17.9685 26.9274 18.3068Z" fill="#EB9481"/>
<path d="M26.8886 18.9475C27.583 18.9858 28.2291 19.2181 28.8833 19.4148C28.8863 19.4158 28.8888 19.4179 28.8902 19.4206C28.8915 19.4234 28.8917 19.4266 28.8907 19.4294C28.8896 19.4323 28.8874 19.4347 28.8845 19.436C28.8816 19.4373 28.8783 19.4375 28.8752 19.4365C28.2251 19.2335 27.5347 19.1556 26.8832 18.9781C26.8789 18.9774 26.8751 18.9752 26.8726 18.9718C26.8701 18.9685 26.8691 18.9643 26.8698 18.9602C26.8705 18.9562 26.8729 18.9526 26.8764 18.9502C26.8799 18.9478 26.8843 18.9468 26.8886 18.9475Z" fill="#263238"/>
<path d="M26.532 20.0544C26.6888 20.0772 26.8417 20.1202 26.9864 20.1821C27.1446 20.237 27.3001 20.2957 27.4556 20.3557C27.7666 20.477 28.0749 20.6047 28.3792 20.7388C28.3926 20.7388 28.3873 20.7656 28.3792 20.7605C28.0682 20.6405 27.7559 20.5243 27.4408 20.417C27.2827 20.3634 27.1245 20.3098 26.9663 20.2587C26.8129 20.219 26.6645 20.1633 26.5239 20.0927C26.5209 20.0901 26.5187 20.0867 26.5174 20.083C26.5162 20.0793 26.5159 20.0753 26.5167 20.0715C26.5176 20.0676 26.5194 20.0641 26.522 20.0611C26.5247 20.0581 26.5281 20.0558 26.532 20.0544Z" fill="#263238"/>
<path d="M26.1781 21.3733C26.3192 21.3965 26.4551 21.4423 26.5802 21.5086C26.721 21.5673 26.8617 21.6235 27.0025 21.681C27.2854 21.7933 27.5682 21.907 27.8537 22.0104C27.8685 22.0104 27.8618 22.0372 27.8537 22.0321C27.5615 21.9274 27.2693 21.8278 26.9784 21.7218L26.5507 21.5622C26.4159 21.5255 26.2892 21.4658 26.1767 21.3861C26.1767 21.3861 26.1714 21.3733 26.1781 21.3733Z" fill="#263238"/>
<path d="M33.3674 20.5077C32.9294 20.3907 32.4844 20.2986 32.0349 20.2319C31.6528 19.8599 31.2395 19.5183 30.7989 19.2106C30.3663 18.9031 29.9102 18.627 29.4342 18.3845C29.4222 18.3845 29.4128 18.3947 29.4235 18.4024C29.8753 18.6845 30.315 18.9922 30.7439 19.3076C31.1729 19.6229 31.5657 19.96 31.9692 20.2957C31.9853 20.3072 33.0604 20.4592 33.3607 20.5294C33.3728 20.5332 33.3795 20.5115 33.3674 20.5077Z" fill="#263238"/>
<path d="M37.2456 19.4555L40.1947 21.3131C40.1947 21.3131 41.1036 19.3228 41.3543 17.866C41.605 16.4093 41.2296 15.974 39.6036 17.303C37.9775 18.6321 37.2456 19.4555 37.2456 19.4555Z" fill="white"/>
<path d="M36.9064 19.7071L37.4252 19.0764L40.4615 21.1153L40.0312 21.7996L36.9064 19.7071Z" fill="white"/>
<path opacity="0.1" d="M36.9064 19.7071L37.4252 19.0764L40.4615 21.1153L40.0312 21.7996L36.9064 19.7071Z" fill="#121212"/>
<path d="M41.2953 18.9996C41.296 18.9973 41.2957 18.9949 41.2947 18.9928C41.2937 18.9907 41.2919 18.9889 41.2898 18.9879C41.2876 18.9868 41.285 18.9866 41.2826 18.9871C41.2802 18.9876 41.2781 18.9888 41.2766 18.9907C41.0825 19.317 40.9083 19.6538 40.7551 19.9993C40.68 20.1691 40.6076 20.3401 40.5379 20.5099C40.4682 20.6797 40.4106 20.861 40.3422 21.0347C40.3422 21.0436 40.3543 21.05 40.3583 21.0347C40.432 20.8649 40.5178 20.7015 40.5956 20.5342C40.6559 20.4065 40.7162 20.2725 40.7779 20.141C40.9179 19.9835 41.0318 19.8065 41.1157 19.6163C41.1157 19.6163 41.1157 19.6073 41.1063 19.6163C41.046 19.7056 40.991 19.8014 40.9307 19.892C40.8945 19.9456 40.8597 19.998 40.8221 20.0503L40.8342 20.0235C40.9951 19.6865 41.1488 19.3452 41.2953 18.9996Z" fill="#263238"/>
<path d="M23.249 52.4165H8.99771V57.9217H23.249V52.4165Z" fill="white"/>
<path d="M23.879 50.9241H8.37033V52.4165H23.879V50.9241Z" fill="white"/>
<path opacity="0.1" d="M23.2503 52.4165H8.99771V53.4672H23.2503V52.4165Z" fill="#121212"/>
<path d="M17.7809 51.8481H14.6655V52.987H17.7809V51.8481Z" fill="#263238"/>
<path d="M18.9016 50.9239H18.163V50.0328H14.0851V50.9239H13.3464V49.3293H18.9016V50.9239Z" fill="#263238"/>
</svg>
