<svg width="22" height="22" viewBox="0 0 22 22" fill="none" xmlns="http://www.w3.org/2000/svg">
<path opacity="0.5" d="M11 11C12.6954 11 14.0698 9.62562 14.0698 7.93023C14.0698 6.23485 12.6954 4.86047 11 4.86047C9.30461 4.86047 7.93023 6.23485 7.93023 7.93023C7.93023 9.62562 9.30461 11 11 11Z" stroke="black" stroke-width="1.5"/>
<path d="M11 21.2326C16.6513 21.2326 21.2326 16.6513 21.2326 11C21.2326 5.34871 16.6513 0.767442 11 0.767442C5.34871 0.767442 0.767442 5.34871 0.767442 11C0.767442 16.6513 5.34871 21.2326 11 21.2326Z" stroke="black" stroke-width="1.5"/>
<path opacity="0.5" d="M17.1088 19.186C16.9451 16.2268 16.0395 14.0698 11 14.0698C5.96046 14.0698 5.05488 16.2268 4.89116 19.186" stroke="black" stroke-width="1.5" stroke-linecap="round"/>
</svg>
