<svg width="22" height="22" viewBox="0 0 22 22" fill="none" xmlns="http://www.w3.org/2000/svg">
<path d="M7.93228 5.88372C7.94456 3.65814 8.04381 2.45274 8.82967 1.66688C9.72912 0.767442 11.176 0.767442 14.0698 0.767442H15.093C17.9878 0.767442 19.4347 0.767442 20.3341 1.66688C21.2326 2.5653 21.2326 4.01321 21.2326 6.90698V15.093C21.2326 17.9868 21.2326 19.4347 20.3341 20.3331C19.4337 21.2326 17.9878 21.2326 15.093 21.2326H14.0698C11.176 21.2326 9.72912 21.2326 8.82967 20.3331C8.04381 19.5473 7.94456 18.3419 7.93228 16.1163" stroke="black" stroke-width="1.5" stroke-linecap="round"/>
<path d="M14.0698 11H0.767442M0.767442 11L4.34884 7.93023M0.767442 11L4.34884 14.0698" stroke="black" stroke-width="1.5" stroke-linecap="round" stroke-linejoin="round"/>
</svg>
