<svg width="22" height="22" viewBox="0 0 22 22" fill="none" xmlns="http://www.w3.org/2000/svg">
<path d="M11 21.2326C16.6514 21.2326 21.2326 16.6514 21.2326 11C21.2326 5.34856 16.6514 0.767442 11 0.767442C5.34856 0.767442 0.767442 5.34856 0.767442 11C0.767442 12.6372 1.15219 14.1844 1.8347 15.5566C2.01684 15.9208 2.07721 16.3373 1.97181 16.7313L1.36298 19.009C1.3029 19.2344 1.30313 19.4716 1.36363 19.6968C1.42414 19.922 1.54279 20.1274 1.7077 20.2923C1.87261 20.4572 2.07798 20.5759 2.30321 20.6364C2.52845 20.6969 2.76563 20.6971 2.99098 20.637L5.26874 20.0282C5.66414 19.9287 6.08226 19.9771 6.44446 20.1643C7.85955 20.8689 9.41918 21.2347 11 21.2326Z" stroke="black" stroke-width="1.5"/>
<path d="M11 15.093V6.90698M6.90698 13.0465V8.95349M15.093 13.0465V8.95349" stroke="black" stroke-width="1.5" stroke-linecap="round"/>
</svg>
