<svg width="93" height="58" viewBox="0 0 93 58" fill="none" xmlns="http://www.w3.org/2000/svg">
<path d="M14.8859 3.63044C14.9623 3.0759 14.181 2.61983 13.5902 2.57318C13.3103 2.54986 13.0188 2.59262 12.7532 2.50063C12.1779 2.2998 11.9486 1.55609 11.3863 1.32028C10.9678 1.14277 10.4793 1.30084 10.0777 1.50556C9.67601 1.71027 9.26787 1.96811 8.81439 1.99662C8.41792 2.02253 7.98906 1.87482 7.6483 2.06788C7.38916 2.21299 7.2596 2.5097 7.01861 2.68461C6.77761 2.85953 6.4822 2.89192 6.19456 2.90747C5.90693 2.92301 5.60633 2.9269 5.34461 3.0474C5.08289 3.16789 4.86392 3.44516 4.91963 3.72891L14.8859 3.63044Z" fill="#EBEBEB"/>
<path d="M76.2497 2.38785C76.3261 1.83331 75.5435 1.37724 74.954 1.3293C74.6742 1.30727 74.3826 1.35003 74.1183 1.25804C73.543 1.05721 73.3124 0.313498 72.7514 0.0763924C72.3316 -0.0998176 71.8444 0.056957 71.4415 0.261672C71.0385 0.466386 70.633 0.724223 70.1782 0.754023C69.7895 0.778641 69.3529 0.632231 69.0121 0.825285C68.753 0.969103 68.6234 1.26711 68.3824 1.44202C68.1414 1.61693 67.8473 1.64933 67.5584 1.66487C67.2695 1.68042 66.9714 1.68431 66.7084 1.80351C66.4454 1.92271 66.229 2.20257 66.2835 2.48503L76.2497 2.38785Z" fill="#EBEBEB"/>
<path d="M36.5493 17.0989C36.6012 16.7245 36.0725 16.4148 35.6748 16.3837C35.4843 16.3682 35.2861 16.3967 35.1073 16.3345C34.7186 16.1984 34.5631 15.6957 34.1834 15.535C33.8984 15.4158 33.5719 15.5221 33.2959 15.6646C33.0199 15.8071 32.7491 15.9782 32.4408 15.9976C32.1739 16.0144 31.8836 15.9147 31.6491 16.0455C31.4742 16.144 31.3835 16.3448 31.2229 16.4627C31.0554 16.5664 30.8613 16.6191 30.6644 16.6143C30.4686 16.6096 30.2735 16.6412 30.0892 16.7076C29.9978 16.7435 29.9205 16.8079 29.8687 16.8912C29.8169 16.9746 29.7933 17.0724 29.8015 17.1702L36.5493 17.0989Z" fill="#F5F5F5"/>
<path d="M89.9695 9.63067C90.02 9.25622 89.4914 8.94786 89.0936 8.91546C88.9031 8.89992 88.7049 8.92972 88.5274 8.86623C88.1387 8.73666 87.9819 8.22747 87.6023 8.06681C87.3185 7.9476 86.9907 8.05385 86.716 8.19637C86.4414 8.33889 86.168 8.50992 85.8609 8.52936C85.5927 8.5462 85.3025 8.44773 85.068 8.57859C84.893 8.67577 84.8088 8.87659 84.6417 8.99579C84.4739 9.09853 84.28 9.15071 84.0833 9.14609C83.8873 9.14141 83.6922 9.17349 83.508 9.24067C83.4169 9.27651 83.3397 9.3407 83.2879 9.42377C83.2361 9.50683 83.2124 9.60436 83.2203 9.70193L89.9695 9.63067Z" fill="#F5F5F5"/>
<path d="M92.5167 37.9772H50.6098C48.4106 37.9772 46.3014 37.1036 44.7463 35.5485C43.1913 33.9934 42.3176 31.8842 42.3176 29.685V12.8349C42.3173 12.3452 42.1227 11.8757 41.7765 11.5293C41.4304 11.1829 40.961 10.988 40.4713 10.9873H25.6191C25.3 10.9876 24.994 11.1146 24.7684 11.3402C24.5427 11.5659 24.4158 11.8718 24.4154 12.191V18.4244C24.413 20.4008 23.6265 22.2954 22.2285 23.6925C20.8305 25.0895 18.9353 25.8747 16.9589 25.8757H2.75717V19.6281H16.9589C17.278 19.6277 17.584 19.5008 17.8097 19.2751C18.0353 19.0495 18.1622 18.7435 18.1626 18.4244V12.191C18.165 10.2155 18.9508 8.3216 20.3477 6.92472C21.7446 5.52784 23.6385 4.74202 25.6139 4.73962H40.4752C42.622 4.74099 44.6805 5.59424 46.1988 7.11203C47.7171 8.62982 48.571 10.6881 48.5731 12.8349V29.6902C48.5741 30.231 48.7895 30.7493 49.172 31.1315C49.5545 31.5138 50.0729 31.7289 50.6137 31.7295H92.5167V37.9772Z" fill="#EBEBEB"/>
<path d="M27.8425 12.1844C27.643 12.184 27.4519 12.1046 27.311 11.9634C27.1701 11.8223 27.091 11.631 27.091 11.4316V3.71203C27.091 3.51272 27.1702 3.32158 27.3111 3.18065C27.452 3.03972 27.6432 2.96054 27.8425 2.96054C28.0419 2.96054 28.2332 3.03967 28.3743 3.18057C28.5154 3.32146 28.5949 3.5126 28.5953 3.71203V11.4355C28.5942 11.6344 28.5145 11.8249 28.3734 11.9652C28.2323 12.1056 28.0414 12.1844 27.8425 12.1844Z" fill="#E0E0E0"/>
<path d="M25.8109 15.4521C25.8109 15.6514 25.7317 15.8426 25.5908 15.9835C25.4498 16.1244 25.2587 16.2036 25.0594 16.2036H17.3398C17.1404 16.2036 16.9491 16.1245 16.808 15.9836C16.6669 15.8427 16.5874 15.6515 16.5871 15.4521C16.5871 15.3533 16.6065 15.2555 16.6444 15.1642C16.6822 15.073 16.7377 14.9901 16.8076 14.9203C16.8775 14.8505 16.9605 14.7951 17.0519 14.7575C17.1432 14.7198 17.241 14.7004 17.3398 14.7006H25.0594C25.2587 14.7006 25.4498 14.7798 25.5908 14.9207C25.7317 15.0617 25.8109 15.2528 25.8109 15.4521Z" fill="#E0E0E0"/>
<path d="M12.2168 27.7128C12.0175 27.7128 11.8264 27.6336 11.6854 27.4927C11.5445 27.3518 11.4653 27.1606 11.4653 26.9613V19.2418C11.4653 19.0423 11.5444 18.8511 11.6853 18.7099C11.8262 18.5688 12.0174 18.4893 12.2168 18.489C12.3156 18.489 12.4134 18.5085 12.5047 18.5463C12.5959 18.5841 12.6788 18.6396 12.7486 18.7095C12.8184 18.7795 12.8738 18.8624 12.9115 18.9538C12.9491 19.0451 12.9685 19.143 12.9683 19.2418V26.9613C12.9683 27.1606 12.8891 27.3518 12.7482 27.4927C12.6072 27.6336 12.4161 27.7128 12.2168 27.7128Z" fill="#E0E0E0"/>
<path d="M49.6226 16.021C49.6226 16.2204 49.5434 16.4117 49.4025 16.5528C49.2616 16.694 49.0705 16.7734 48.8711 16.7738H41.1515C40.9519 16.7738 40.7604 16.6945 40.6192 16.5533C40.478 16.4121 40.3987 16.2206 40.3987 16.021C40.3991 15.8216 40.4785 15.6304 40.6197 15.4895C40.7608 15.3486 40.9521 15.2695 41.1515 15.2695H48.8711C48.9697 15.2695 49.0675 15.2889 49.1586 15.3267C49.2498 15.3645 49.3327 15.4198 49.4024 15.4896C49.4722 15.5594 49.5276 15.6422 49.5653 15.7334C49.6031 15.8246 49.6226 15.9223 49.6226 16.021Z" fill="#E0E0E0"/>
<path d="M49.6226 28.7015C49.6226 28.901 49.5434 29.0922 49.4025 29.2334C49.2616 29.3745 49.0705 29.454 48.8711 29.4543H41.1515C40.9519 29.4543 40.7604 29.375 40.6192 29.2338C40.478 29.0927 40.3987 28.9012 40.3987 28.7015C40.3991 28.5021 40.4785 28.311 40.6197 28.1701C40.7608 28.0292 40.9521 27.95 41.1515 27.95H48.8711C48.9697 27.95 49.0675 27.9695 49.1586 28.0072C49.2498 28.045 49.3327 28.1004 49.4024 28.1702C49.4722 28.2399 49.5276 28.3228 49.5653 28.4139C49.6031 28.5051 49.6226 28.6028 49.6226 28.7015Z" fill="#E0E0E0"/>
<path d="M70.6783 30.0401C70.7771 30.0399 70.8749 30.0592 70.9661 30.0969C71.0574 30.1346 71.1403 30.19 71.2101 30.2598C71.2799 30.3296 71.3353 30.4125 71.373 30.5038C71.4107 30.595 71.43 30.6928 71.4298 30.7916V38.515C71.43 38.6137 71.4107 38.7115 71.373 38.8028C71.3353 38.894 71.2799 38.9769 71.2101 39.0468C71.1403 39.1166 71.0574 39.1719 70.9661 39.2096C70.8749 39.2473 70.7771 39.2666 70.6783 39.2665C70.479 39.2665 70.2879 39.1873 70.147 39.0464C70.006 38.9054 69.9269 38.7143 69.9269 38.515V30.7916C69.9269 30.5923 70.006 30.4011 70.147 30.2602C70.2879 30.1192 70.479 30.0401 70.6783 30.0401Z" fill="#E0E0E0"/>
<path d="M85.8117 30.0401C86.011 30.0401 86.2021 30.1192 86.3431 30.2602C86.484 30.4011 86.5632 30.5923 86.5632 30.7916V38.515C86.5632 38.7143 86.484 38.9054 86.3431 39.0464C86.2021 39.1873 86.011 39.2665 85.8117 39.2665C85.7129 39.2666 85.6151 39.2473 85.5239 39.2096C85.4326 39.1719 85.3497 39.1166 85.2799 39.0468C85.2101 38.9769 85.1547 38.894 85.117 38.8028C85.0793 38.7115 85.06 38.6137 85.0602 38.515V30.7916C85.06 30.6928 85.0793 30.595 85.117 30.5038C85.1547 30.4125 85.2101 30.3296 85.2799 30.2598C85.3497 30.19 85.4326 30.1346 85.5239 30.0969C85.6151 30.0592 85.7129 30.0399 85.8117 30.0401Z" fill="#E0E0E0"/>
<path d="M39.6472 12.4719C39.5486 12.4719 39.4508 12.4525 39.3597 12.4147C39.2685 12.377 39.1857 12.3216 39.1159 12.2518C39.0461 12.182 38.9907 12.0992 38.953 12.008C38.9152 11.9168 38.8958 11.8191 38.8958 11.7204V4.00089C38.8956 3.90216 38.9149 3.80436 38.9526 3.71311C38.9903 3.62186 39.0457 3.53895 39.1155 3.46913C39.1853 3.39932 39.2682 3.34397 39.3595 3.30626C39.4507 3.26856 39.5485 3.24924 39.6472 3.24941C39.8466 3.24941 40.0377 3.32858 40.1786 3.46951C40.3196 3.61044 40.3987 3.80159 40.3987 4.00089V11.7204C40.3987 11.8191 40.3793 11.9168 40.3415 12.008C40.3038 12.0992 40.2484 12.182 40.1786 12.2518C40.1088 12.3216 40.026 12.377 39.9348 12.4147C39.8437 12.4525 39.7459 12.4719 39.6472 12.4719Z" fill="#E0E0E0"/>
<path d="M92.2122 56.0062C92.2122 56.0256 71.7408 56.0399 46.5026 56.0399C21.2644 56.0399 0.787763 56.0204 0.787763 56.0062C0.787763 55.9919 21.2514 55.9725 46.5026 55.9725C71.7537 55.9725 92.2122 55.9829 92.2122 56.0062Z" fill="#263238"/>
<path d="M84.3683 47.7516C84.5562 47.8408 84.724 47.9671 84.8616 48.123C84.9992 48.2789 85.1038 48.4611 85.169 48.6585C85.2975 49.0541 85.3338 49.4738 85.2753 49.8855C85.1846 50.6824 84.7324 51.487 84.2452 52.1231C83.5741 51.5375 83.4199 50.5165 83.3745 49.9931C83.302 49.1677 83.6725 47.6298 84.3683 47.7529" fill="white"/>
<path d="M85.0252 53.4371C84.9791 53.2095 84.9942 52.9738 85.0688 52.7539C85.1435 52.5341 85.2751 52.3379 85.4502 52.1855C85.6282 52.035 85.8346 51.9218 86.0571 51.8526C86.2797 51.7834 86.5139 51.7595 86.7458 51.7825C86.9596 51.7981 87.1902 51.8602 87.312 52.0416C87.3646 52.1271 87.3932 52.2251 87.3948 52.3254C87.3964 52.4258 87.371 52.5247 87.3211 52.6117C87.2194 52.7855 87.0737 52.9294 86.8987 53.0289C86.317 53.393 85.6886 53.6392 85.0317 53.4422" fill="white"/>
<path d="M84.1649 55.8767C84.1671 55.8216 84.1749 55.7669 84.1882 55.7134C84.2089 55.5981 84.2361 55.4543 84.2698 55.2703C84.3443 54.778 84.4983 54.301 84.7259 53.8581C84.9622 53.4149 85.3124 53.0428 85.7404 52.7801C85.8705 52.7032 86.0093 52.6418 86.1537 52.5974C86.1927 52.5843 86.2325 52.574 86.2729 52.5663C86.3001 52.5663 86.3144 52.5585 86.3157 52.5663C86.1224 52.6333 85.9366 52.7202 85.7611 52.8254C85.3478 53.0933 85.0091 53.4615 84.7764 53.8956C84.5531 54.3348 84.3959 54.8046 84.31 55.2898C84.2685 55.475 84.2361 55.6253 84.2102 55.7277C84.1984 55.7783 84.1832 55.8281 84.1649 55.8767Z" fill="#263238"/>
<path d="M84.1895 48.9475C84.1954 48.9708 84.198 48.9948 84.1973 49.0188C84.1973 49.0719 84.205 49.1393 84.2102 49.2235C84.2193 49.4023 84.2297 49.6601 84.24 49.9801C84.2608 50.6176 84.2776 51.4999 84.2724 52.4743C84.2672 53.4486 84.2452 54.331 84.218 54.9697C84.205 55.2885 84.1934 55.5463 84.1817 55.7251C84.1817 55.8093 84.1714 55.8767 84.1675 55.9298C84.1674 55.9539 84.1644 55.9778 84.1584 56.0011C84.1564 55.9774 84.1564 55.9535 84.1584 55.9298C84.1584 55.8763 84.1584 55.8076 84.1584 55.7238C84.1584 55.5385 84.1688 55.282 84.1765 54.9684C84.1921 54.3297 84.2089 53.4486 84.2141 52.4743C84.2193 51.4999 84.2076 50.6189 84.1973 49.9801C84.1973 49.6666 84.1895 49.41 84.1856 49.2248C84.1856 49.1405 84.1856 49.0719 84.1856 49.0188C84.1852 48.9949 84.1865 48.9711 84.1895 48.9475Z" fill="#263238"/>
<path d="M83.8643 53.9215C83.783 53.4385 83.5879 52.9819 83.2949 52.5894C83.002 52.1969 82.6198 51.8798 82.1799 51.6645C81.9558 51.5569 81.6617 51.4869 81.479 51.6541C81.2963 51.8212 81.3365 52.1205 81.4272 52.3524C81.624 52.8336 81.9589 53.2456 82.3896 53.5366C82.8203 53.8276 83.3276 53.9846 83.8474 53.9876" fill="white"/>
<path d="M82.2901 52.42C82.3392 52.4367 82.3869 52.4575 82.4326 52.4822C82.488 52.5075 82.5417 52.5365 82.5932 52.569C82.6638 52.6084 82.7321 52.6517 82.798 52.6986C82.8795 52.7527 82.9578 52.8115 83.0325 52.8748C83.1203 52.9453 83.2038 53.021 83.2825 53.1015C83.6503 53.4673 83.9222 53.9181 84.0742 54.414C84.1068 54.5217 84.1332 54.6311 84.1532 54.7418C84.1721 54.8377 84.1855 54.9346 84.1934 55.032C84.205 55.1214 84.2012 55.2031 84.2051 55.273C84.2072 55.334 84.205 55.3951 84.1986 55.4557C84.1983 55.5076 84.1927 55.5592 84.1817 55.6099C84.1688 55.6099 84.1921 55.3883 84.1519 55.0359C84.1416 54.9401 84.126 54.845 84.1053 54.7509C84.0842 54.6423 84.0569 54.535 84.0237 54.4296C83.9451 54.1884 83.8409 53.9565 83.7127 53.7377C83.5802 53.5215 83.4252 53.32 83.2501 53.1365C83.1733 53.0568 83.0925 52.9811 83.0079 52.9097C82.9354 52.8463 82.8598 52.7866 82.7811 52.7309C82.487 52.5236 82.2849 52.4316 82.2901 52.42Z" fill="#263238"/>
<path d="M39.9945 45.5891L41.9069 47.6168V56.0011H43.9566V47.6168L45.9506 45.6772L39.9945 45.5891Z" fill="#E0E0E0"/>
<path d="M39.9945 45.5891L45.9545 45.6513H46.0193L45.9727 45.6967L43.9799 47.6401L43.989 47.6181C43.989 49.5538 43.989 51.7422 43.989 54.0511C43.989 54.7119 43.989 55.3649 43.989 56.0024V56.036H41.8745V56.0062C41.8745 52.5624 41.8848 49.6134 41.8874 47.622V47.635L39.9945 45.5891L41.9211 47.6039V47.6116C41.9211 49.6031 41.9289 52.552 41.9341 55.9959L41.9017 55.9635H43.9514L43.9177 55.9972V54.0498C43.9177 51.7409 43.9177 49.5525 43.9177 47.6168V47.6039L43.9268 47.5948L45.9247 45.6578L45.9429 45.7044L39.9945 45.5891Z" fill="#263238"/>
<path d="M43.9566 47.644C43.6144 47.6781 43.2703 47.6893 42.9266 47.6777C42.5828 47.6893 42.2387 47.6781 41.8965 47.644C42.2388 47.6106 42.5828 47.5994 42.9266 47.6103C43.2703 47.5994 43.6143 47.6106 43.9566 47.644Z" fill="#263238"/>
<path d="M59.1366 46.0711H59.055L0 45.4932L0.0919919 35.0813L55.8288 35.628C56.0615 35.6301 56.2923 35.586 56.5079 35.4984C56.7235 35.4108 56.9195 35.2813 57.0848 35.1175C57.2501 34.9536 57.3813 34.7587 57.4708 34.5439C57.5603 34.3291 57.6064 34.0987 57.6064 33.8659V25.9209C57.6064 24.7535 57.8363 23.5976 58.2831 22.5191C58.7298 21.4405 59.3846 20.4606 60.2101 19.6351C61.8772 17.968 64.1383 17.0314 66.496 17.0314H93V27.4446H69.7843C69.553 27.4446 69.3239 27.4902 69.1102 27.5788C68.8965 27.6674 68.7023 27.7972 68.5388 27.9608C68.3753 28.1245 68.2456 28.3187 68.1572 28.5325C68.0688 28.7463 68.0234 28.9754 68.0235 29.2067V37.1815C68.0235 39.5387 67.0873 41.7994 65.4208 43.4665C63.7542 45.1335 61.4938 46.0704 59.1366 46.0711Z" fill="#455A64"/>
<path d="M14.0774 46.7474C13.8918 46.7474 13.7138 46.6737 13.5826 46.5425C13.4514 46.4112 13.3777 46.2333 13.3777 46.0477V35.352C13.3777 35.1664 13.4514 34.9883 13.5826 34.8569C13.7137 34.7254 13.8917 34.6514 14.0774 34.6511C14.1694 34.6511 14.2606 34.6692 14.3456 34.7044C14.4307 34.7397 14.5079 34.7913 14.573 34.8564C14.6381 34.9215 14.6897 34.9988 14.725 35.0838C14.7602 35.1688 14.7783 35.26 14.7783 35.352V46.0477C14.778 46.2334 14.704 46.4114 14.5726 46.5425C14.4411 46.6737 14.263 46.7474 14.0774 46.7474Z" fill="#455A64"/>
<path d="M14.0774 46.7474C14.1661 46.7432 14.2536 46.7248 14.3365 46.693C14.4512 46.6459 14.5513 46.5691 14.6265 46.4705C14.7016 46.3719 14.7491 46.255 14.7641 46.1319C14.7718 45.4841 14.7641 44.5357 14.7641 43.3696C14.7641 42.2035 14.7641 40.8132 14.7641 39.2714C14.7641 38.5005 14.7641 37.6907 14.7641 36.8511V35.571C14.767 35.4638 14.7639 35.3565 14.755 35.2497C14.7398 35.1462 14.6998 35.048 14.6384 34.9633C14.5613 34.8557 14.454 34.7734 14.33 34.7271C14.206 34.6808 14.071 34.6724 13.9422 34.7032C13.8135 34.7339 13.6968 34.8023 13.6071 34.8996C13.5174 34.997 13.4587 35.1188 13.4386 35.2497C13.4294 35.3561 13.4268 35.463 13.4308 35.5697C13.4308 36.0016 13.4308 36.4283 13.4308 36.8498C13.4308 37.6894 13.4308 38.4992 13.4308 39.2714C13.4308 40.8132 13.4308 42.2022 13.423 43.3709C13.4153 44.5396 13.4101 45.4828 13.423 46.1319C13.4378 46.2553 13.4854 46.3723 13.5609 46.471C13.6363 46.5697 13.7368 46.6463 13.8519 46.693C13.9348 46.7249 14.0223 46.7433 14.111 46.7474H14.045C13.9792 46.7432 13.9145 46.7288 13.8532 46.7046C13.7541 46.6666 13.6653 46.6058 13.5941 46.5271C13.4931 46.4201 13.4283 46.2842 13.4088 46.1384C13.3932 45.4828 13.3984 44.5409 13.392 43.3735C13.3855 42.2061 13.392 40.8158 13.392 39.274C13.392 38.4966 13.392 37.692 13.392 36.8524V35.5723C13.3886 35.4621 13.3916 35.3518 13.401 35.2419C13.4177 35.1275 13.4622 35.019 13.5306 34.9258C13.5983 34.8311 13.6877 34.7539 13.7912 34.7007C13.8948 34.6474 14.0095 34.6197 14.1259 34.6197C14.2424 34.6197 14.3571 34.6474 14.4607 34.7007C14.5642 34.7539 14.6536 34.8311 14.7213 34.9258C14.7891 35.0188 14.8336 35.1268 14.8509 35.2406C14.8603 35.3509 14.8633 35.4616 14.8599 35.5723C14.8599 36.005 14.8599 36.4326 14.8599 36.8524C14.8599 37.692 14.8599 38.5018 14.8599 39.2727C14.8599 40.8145 14.8599 42.2035 14.8522 43.3709C14.8444 44.5383 14.8522 45.4815 14.8353 46.1371C14.8162 46.2828 14.7519 46.4187 14.6513 46.5258C14.5801 46.6045 14.4913 46.6653 14.3922 46.7033C14.3308 46.7272 14.2662 46.7417 14.2004 46.7461L14.0774 46.7474Z" fill="#263238"/>
<path d="M69.4721 30.4818C69.4265 30.5618 69.3656 30.6321 69.2928 30.6884C69.22 30.7448 69.1367 30.7862 69.0479 30.8103C68.959 30.8344 68.8663 30.8407 68.7749 30.8288C68.6836 30.8169 68.5956 30.787 68.5159 30.741L57.1244 24.1616C57.0445 24.1159 56.9744 24.0549 56.9182 23.9821C56.8619 23.9093 56.8205 23.8261 56.7965 23.7373C56.7724 23.6484 56.7661 23.5557 56.7779 23.4645C56.7897 23.3732 56.8194 23.2852 56.8653 23.2054C56.911 23.1255 56.972 23.0554 57.0448 22.9992C57.1176 22.9429 57.2008 22.9015 57.2896 22.8775C57.3784 22.8534 57.4711 22.8471 57.5624 22.8589C57.6537 22.8707 57.7417 22.9004 57.8215 22.9463L69.2104 29.5218C69.291 29.5672 69.3618 29.6282 69.4186 29.7013C69.4755 29.7743 69.5173 29.8579 69.5417 29.9471C69.566 30.0364 69.5724 30.1297 69.5604 30.2215C69.5485 30.3132 69.5185 30.4017 69.4721 30.4818Z" fill="#455A64"/>
<path d="M69.4721 30.4818C69.5192 30.3898 69.5478 30.2894 69.5563 30.1864C69.564 30.0844 69.5487 29.9819 69.5114 29.8866C69.4742 29.7913 69.416 29.7056 69.3412 29.6358C69.2734 29.5757 69.198 29.5248 69.1171 29.4842L66.2666 27.8478L62.0376 25.4145L59.5408 23.9763L58.2206 23.2145L57.885 23.0201C57.7814 22.9476 57.661 22.903 57.5352 22.8906C57.4102 22.8806 57.285 22.9061 57.1739 22.9642C57.0629 23.0224 56.9705 23.1107 56.9075 23.2191C56.8445 23.3275 56.8134 23.4514 56.8179 23.5767C56.8224 23.702 56.8621 23.8235 56.9327 23.9271C57.0054 24.0297 57.1031 24.1122 57.2164 24.1668L57.5533 24.3611L58.8736 25.1243L61.3677 26.5663L65.5903 29.0126L68.4407 30.6671C68.5166 30.7165 68.5985 30.7561 68.6843 30.785C68.7602 30.8081 68.8396 30.8178 68.9188 30.8135C69.044 30.8066 69.1648 30.7658 69.2687 30.6956C69.3495 30.638 69.4185 30.5654 69.4721 30.4818C69.4601 30.5055 69.4466 30.5284 69.4319 30.5505C69.3862 30.6142 69.3302 30.6699 69.2661 30.7151C69.1612 30.7897 69.0381 30.8345 68.9098 30.8446C68.8281 30.851 68.7459 30.8423 68.6675 30.8187C68.5792 30.7907 68.4951 30.7511 68.4174 30.7008L65.567 29.0657L61.3366 26.6311L58.8399 25.1929L57.5131 24.4259L57.1763 24.2316C57.0544 24.1719 56.9493 24.0828 56.8705 23.9724C56.7913 23.8583 56.7462 23.724 56.7406 23.5852C56.7349 23.4464 56.7688 23.3089 56.8383 23.1886C56.9079 23.0684 57.0102 22.9704 57.1334 22.9062C57.2565 22.8419 57.3954 22.814 57.5339 22.8258C57.6687 22.837 57.7987 22.8815 57.9122 22.9553L58.2478 23.1497L59.568 23.9115L62.0622 25.3549L66.2835 27.7998L69.1274 29.4544C69.21 29.4969 69.2867 29.55 69.3555 29.6124C69.4142 29.6695 69.4628 29.7361 69.4993 29.8094C69.5552 29.9249 69.579 30.0534 69.568 30.1812C69.5601 30.2591 69.54 30.3351 69.5084 30.4067C69.4981 30.4326 69.4859 30.4577 69.4721 30.4818Z" fill="#263238"/>
<path d="M83.5145 28.2701C83.3288 28.2701 83.1507 28.1964 83.0193 28.0652C82.8878 27.934 82.8138 27.7561 82.8135 27.5704V16.8773C82.8135 16.6914 82.8873 16.5131 83.0188 16.3817C83.1503 16.2502 83.3285 16.1763 83.5145 16.1763C83.7001 16.1767 83.8781 16.2507 84.0093 16.3821C84.1404 16.5135 84.2141 16.6916 84.2141 16.8773V27.573C84.2134 27.7581 84.1394 27.9354 84.0083 28.066C83.8771 28.1967 83.6996 28.2701 83.5145 28.2701Z" fill="#455A64"/>
<path d="M83.5145 28.2699C83.6032 28.2657 83.6907 28.2474 83.7736 28.2155C83.8887 28.1689 83.9892 28.0923 84.0647 27.9936C84.1401 27.8949 84.1877 27.7778 84.2025 27.6545C84.2025 27.0067 84.2025 26.0582 84.2025 24.8934C84.2025 23.7286 84.2025 22.3358 84.1947 20.794C84.1947 20.023 84.1947 19.2133 84.1947 18.3737C84.1947 17.9539 84.1947 17.5263 84.1947 17.0936C84.1986 16.9864 84.196 16.8791 84.1869 16.7722C84.1707 16.6688 84.1303 16.5707 84.069 16.4859C84.0073 16.4 83.9261 16.3301 83.832 16.2818C83.738 16.2336 83.6338 16.2084 83.5281 16.2084C83.4223 16.2084 83.3181 16.2336 83.2241 16.2818C83.13 16.3301 83.0488 16.4 82.9871 16.4859C82.9255 16.5709 82.8855 16.6696 82.8705 16.7735C82.8609 16.8799 82.8579 16.9868 82.8614 17.0936C82.8614 17.5254 82.8614 17.9526 82.8614 18.375C82.8614 19.2133 82.8614 20.0243 82.8614 20.7953C82.8614 22.3371 82.8614 23.7273 82.8537 24.8947C82.8459 26.0621 82.842 27.008 82.8537 27.6558C82.8686 27.7789 82.9161 27.8958 82.9913 27.9944C83.0664 28.093 83.1665 28.1698 83.2812 28.2168C83.3641 28.2487 83.4516 28.2671 83.5404 28.2712H83.473C83.4075 28.2656 83.343 28.2512 83.2812 28.2285C83.1823 28.1895 83.0937 28.1283 83.0221 28.0497C82.9215 27.9425 82.8567 27.8066 82.8368 27.661C82.8213 27.0054 82.8265 26.0634 82.8213 24.896C82.8161 23.7286 82.8213 22.3384 82.8135 20.7966C82.8135 20.0256 82.8135 19.2146 82.8135 18.3763V17.0949C82.8101 16.9846 82.8132 16.8743 82.8226 16.7645C82.8401 16.6503 82.8845 16.542 82.9521 16.4483C83.0199 16.3536 83.1092 16.2765 83.2128 16.2232C83.3163 16.17 83.4311 16.1422 83.5475 16.1422C83.6639 16.1422 83.7787 16.17 83.8822 16.2232C83.9858 16.2765 84.0751 16.3536 84.1429 16.4483C84.2112 16.5411 84.2557 16.6492 84.2724 16.7632C84.2818 16.8735 84.2848 16.9842 84.2815 17.0949V18.375C84.2815 19.2146 84.2815 20.0243 84.2815 20.7953C84.2815 22.3371 84.2815 23.7261 84.275 24.8947C84.2685 26.0634 84.275 27.0041 84.2582 27.6597C84.238 27.8053 84.1733 27.9411 84.0729 28.0484C84.0013 28.127 83.9127 28.1882 83.8138 28.2272C83.752 28.2499 83.6875 28.2643 83.622 28.2699H83.5145Z" fill="#263238"/>
<path d="M50.8262 46.7474C50.6405 46.7474 50.4624 46.6737 50.331 46.5425C50.1996 46.4114 50.1256 46.2334 50.1253 46.0477V35.352C50.1253 35.1661 50.1991 34.9878 50.3306 34.8564C50.462 34.7249 50.6403 34.6511 50.8262 34.6511C51.0119 34.6514 51.1898 34.7254 51.321 34.8569C51.4522 34.9883 51.5259 35.1664 51.5259 35.352V46.0477C51.5259 46.2333 51.4522 46.4112 51.3209 46.5425C51.1897 46.6737 51.0118 46.7474 50.8262 46.7474Z" fill="#455A64"/>
<path d="M50.8262 46.7475C50.9128 46.7427 50.998 46.7244 51.0789 46.6931C51.194 46.6465 51.2945 46.5698 51.3699 46.4712C51.4454 46.3725 51.4929 46.2554 51.5077 46.1321C51.5155 45.4843 51.5077 44.5358 51.5077 43.3697C51.5077 42.2036 51.5077 40.8134 51.5 39.2716C51.5 38.5006 51.5 37.6909 51.5 36.8513V35.5711C51.5029 35.464 51.4998 35.3567 51.4909 35.2498C51.4757 35.1464 51.4357 35.0481 51.3743 34.9635C51.3126 34.8776 51.2314 34.8077 51.1373 34.7594C51.0433 34.7111 50.9391 34.686 50.8333 34.686C50.7276 34.686 50.6234 34.7111 50.5294 34.7594C50.4353 34.8077 50.3541 34.8776 50.2924 34.9635C50.2303 35.0484 50.1899 35.1471 50.1745 35.2511C50.1655 35.3575 50.1625 35.4644 50.1654 35.5711V36.8513C50.1654 37.6909 50.1654 38.5006 50.1654 39.2729C50.1654 40.8147 50.1654 42.2036 50.1589 43.3723C50.1525 44.541 50.146 45.4843 50.1589 46.1334C50.1739 46.2565 50.2214 46.3733 50.2965 46.472C50.3717 46.5706 50.4718 46.6474 50.5865 46.6944C50.6694 46.7263 50.7569 46.7447 50.8456 46.7488H50.7783C50.713 46.7445 50.6487 46.7301 50.5878 46.7061C50.4886 46.6682 50.3998 46.6074 50.3287 46.5286C50.2281 46.4215 50.1638 46.2855 50.1447 46.1399C50.1279 45.4843 50.133 44.5423 50.1279 43.3749C50.1227 42.2075 50.1279 40.8173 50.1201 39.2754C50.1201 38.498 50.1201 37.6934 50.1201 36.8539C50.1201 36.4341 50.1201 36.0074 50.1201 35.5737C50.1165 35.4635 50.12 35.3531 50.1304 35.2433C50.1477 35.1291 50.1921 35.0207 50.26 34.9272C50.3279 34.8325 50.4174 34.7554 50.521 34.7021C50.6247 34.6489 50.7395 34.6211 50.856 34.6211C50.9725 34.6211 51.0874 34.6489 51.191 34.7021C51.2947 34.7554 51.3841 34.8325 51.452 34.9272C51.5204 35.0199 51.5649 35.128 51.5816 35.242C51.591 35.3523 51.594 35.4631 51.5907 35.5737V36.8539C51.5907 37.6934 51.5907 38.5032 51.5907 39.2741C51.5907 40.816 51.5907 42.2049 51.5907 43.3723C51.5907 44.5397 51.5907 45.483 51.5738 46.1386C51.5543 46.2843 51.4895 46.4203 51.3885 46.5273C51.3175 46.6062 51.2287 46.6671 51.1294 46.7048C51.0681 46.7289 51.0034 46.7433 50.9376 46.7475H50.8262Z" fill="#263238"/>
<path d="M35.8535 46.7474C35.6679 46.7474 35.4898 46.6737 35.3584 46.5425C35.2269 46.4114 35.1529 46.2334 35.1526 46.0477V35.352C35.1526 35.1661 35.2264 34.9878 35.3579 34.8564C35.4894 34.7249 35.6676 34.6511 35.8535 34.6511C36.0392 34.6514 36.2172 34.7254 36.3484 34.8569C36.4795 34.9883 36.5532 35.1664 36.5532 35.352V46.0477C36.5532 46.2333 36.4795 46.4112 36.3483 46.5425C36.2171 46.6737 36.0391 46.7474 35.8535 46.7474Z" fill="#455A64"/>
<path d="M35.8535 46.7474C35.9401 46.7425 36.0253 46.7241 36.1062 46.693C36.2213 46.6463 36.3218 46.5697 36.3973 46.471C36.4727 46.3723 36.5203 46.2553 36.5351 46.1319C36.5415 45.4841 36.5351 44.5357 36.5351 43.3696C36.5351 42.2035 36.5351 40.8132 36.5273 39.2714C36.5273 38.5005 36.5273 37.6907 36.5273 36.8511C36.5273 36.4313 36.5273 36.0037 36.5273 35.571C36.5312 35.4638 36.5286 35.3565 36.5195 35.2497C36.4946 35.0927 36.4148 34.9498 36.2942 34.8463C36.1736 34.7428 36.0202 34.6856 35.8613 34.6848C35.7556 34.6853 35.6515 34.7106 35.5574 34.7588C35.4634 34.807 35.3819 34.8766 35.3197 34.962C35.2581 35.047 35.2181 35.1458 35.2031 35.2497C35.1935 35.3561 35.1905 35.4629 35.194 35.5697C35.194 36.0016 35.194 36.4283 35.194 36.8498C35.194 37.6894 35.194 38.4992 35.194 39.2714C35.194 40.8132 35.194 42.2022 35.1863 43.3709C35.1785 44.5396 35.1746 45.4828 35.1863 46.1319C35.2012 46.255 35.2487 46.3719 35.3239 46.4705C35.399 46.5691 35.4991 46.6459 35.6138 46.693C35.6968 46.7248 35.7842 46.7432 35.873 46.7474H35.8056C35.7399 46.743 35.6752 46.7285 35.6138 46.7046C35.5147 46.6666 35.426 46.6058 35.3547 46.5271C35.2543 46.4198 35.1895 46.284 35.1694 46.1384C35.1539 45.4828 35.1591 44.5409 35.1539 43.3735C35.1487 42.2061 35.1539 40.8158 35.1461 39.274C35.1461 38.4966 35.1461 37.692 35.1461 36.8524V35.5723C35.1427 35.4621 35.1458 35.3518 35.1552 35.2419C35.1725 35.1277 35.2169 35.0193 35.2847 34.9258C35.3525 34.8311 35.4418 34.7539 35.5454 34.7007C35.6489 34.6474 35.7637 34.6197 35.8801 34.6197C35.9965 34.6197 36.1113 34.6474 36.2148 34.7007C36.3184 34.7539 36.4077 34.8311 36.4755 34.9258C36.5438 35.0185 36.5883 35.1266 36.605 35.2406C36.6144 35.3509 36.6174 35.4616 36.6141 35.5723V36.8524C36.6141 37.692 36.6141 38.5018 36.6141 39.2727C36.6141 40.8145 36.6141 42.2035 36.6076 43.3709C36.6011 44.5383 36.6076 45.4815 36.5908 46.1371C36.5706 46.2827 36.5059 46.4185 36.4055 46.5258C36.3342 46.6045 36.2455 46.6653 36.1464 46.7033C36.085 46.7272 36.0203 46.7417 35.9546 46.7461L35.8535 46.7474Z" fill="#263238"/>
<g opacity="0.3">
<path d="M59.7157 24.159C59.7157 24.159 64.6095 24.9532 68.8592 29.3041L59.7157 24.159Z" fill="#121212"/>
</g>
<g opacity="0.3">
<path d="M51.5259 35.7071C51.5259 35.7071 53.2335 40.3612 51.5259 46.202V35.7071Z" fill="#121212"/>
</g>
<g opacity="0.3">
<path d="M36.5752 35.7071C36.5752 35.7071 38.2596 40.0139 36.5532 45.8509L36.5752 35.7071Z" fill="#121212"/>
</g>
<g opacity="0.3">
<path d="M14.7135 35.7071C14.7135 35.7071 16.3979 40.0139 14.6928 45.8509L14.7135 35.7071Z" fill="#121212"/>
</g>
<g opacity="0.3">
<path d="M84.2141 16.8773C84.2141 16.8773 85.9218 21.5313 84.2141 27.3721V16.8773Z" fill="#121212"/>
</g>
<path d="M3.30653 45.4855L5.23836 47.534V56.0011H7.30753V47.534L9.32229 45.5762L3.30653 45.4855Z" fill="#E0E0E0"/>
<path d="M3.30653 45.4855L9.32229 45.549H9.38707L9.34042 45.5944L7.32826 47.556L7.33733 47.534C7.33733 49.4891 7.33733 51.6982 7.33733 54.0304C7.33733 54.699 7.33733 55.3572 7.33733 56.0011V56.0348H5.20467V56.0063C5.20467 52.5275 5.21504 49.55 5.21892 47.5392V47.5534L3.30653 45.4855L5.25002 47.521V47.5288C5.25002 49.5397 5.25779 52.5171 5.26298 55.996L5.23059 55.9636H7.30364L7.26996 55.9973V54.0304C7.26996 51.6982 7.26996 49.4891 7.26996 47.534V47.521L7.27903 47.512L9.29637 45.5568L9.31451 45.6022L3.30653 45.4855Z" fill="#263238"/>
<path d="M7.30753 47.5623C6.96309 47.5955 6.61688 47.6067 6.271 47.596C5.92513 47.6067 5.57892 47.5955 5.23448 47.5623C5.57887 47.5284 5.92513 47.5171 6.271 47.5286C6.61688 47.5171 6.96314 47.5284 7.30753 47.5623Z" fill="#263238"/>
<path d="M72.4741 27.3657L74.5005 29.5139V56.0011H76.6695V29.5139L78.8786 27.3657H72.4741Z" fill="#E0E0E0"/>
<path d="M72.4741 27.3722L78.8786 27.3528H78.9278L78.8928 27.3864L76.6902 29.5372V29.5204C76.6902 35.6268 76.6967 44.2624 76.7006 53.8244V56.0413H74.4668V56.0063C74.4746 44.116 74.4824 34.177 74.4863 29.5191V29.5282L72.4741 27.3722L74.5096 29.5113C74.5096 34.1757 74.52 44.1083 74.529 55.9985L74.4954 55.9648H76.6656L76.6319 55.9985V53.8179C76.6319 44.256 76.6397 35.6204 76.6423 29.5139V29.5036L76.65 29.4971L78.8617 27.3515L78.8747 27.3851L72.4741 27.3722Z" fill="#263238"/>
<path d="M76.6695 29.5424C75.9433 29.5873 75.2151 29.5873 74.4889 29.5424C75.2151 29.4975 75.9433 29.4975 76.6695 29.5424Z" fill="#263238"/>
<path d="M50.1279 45.9377C50.1279 45.9558 47.0895 45.9519 43.3425 45.9273C39.5954 45.9027 36.5558 45.869 36.5558 45.8508C36.5558 45.8327 39.5941 45.8366 43.3425 45.8599C47.0908 45.8832 50.1279 45.9182 50.1279 45.9377Z" fill="#263238"/>
<path d="M68.293 8.38683C67.5319 10.1382 67.3827 12.0948 67.8693 13.9413C68.0089 14.4622 68.199 14.9681 68.4368 15.4521C68.457 15.4912 68.4849 15.5259 68.5188 15.5539C68.5528 15.5819 68.5921 15.6027 68.6343 15.615C68.6766 15.6273 68.7209 15.6308 68.7646 15.6255C68.8083 15.6201 68.8504 15.6058 68.8884 15.5836C68.9264 15.5614 68.9595 15.5317 68.9856 15.4962C69.0117 15.4608 69.0304 15.4204 69.0404 15.3776C69.0504 15.3347 69.0515 15.2903 69.0438 15.2469C69.036 15.2036 69.0195 15.1623 68.9953 15.1256C68.5178 14.1284 68.258 13.0409 68.2332 11.9356C68.2084 10.8302 68.4192 9.73225 68.8515 8.71463C68.8922 8.63996 68.903 8.55256 68.8816 8.47023C68.8602 8.3879 68.8081 8.31683 68.7361 8.27151C68.6618 8.22854 68.5736 8.21669 68.4906 8.23853C68.4076 8.26037 68.3365 8.31414 68.293 8.38812V8.38683Z" fill="#E0E0E0"/>
<path d="M68.6247 13.9698L69.9813 11.9888C70.024 11.9145 70.0359 11.8265 70.0143 11.7436C69.9927 11.6607 69.9395 11.5896 69.866 11.5457C69.7913 11.5044 69.7036 11.4934 69.621 11.5151C69.5385 11.5369 69.4675 11.5896 69.4228 11.6623L68.065 13.6381C68.0224 13.7125 68.0107 13.8007 68.0325 13.8836C68.0543 13.9665 68.1079 14.0375 68.1816 14.0813C68.2563 14.1226 68.344 14.1335 68.4265 14.1118C68.5091 14.09 68.58 14.0374 68.6247 13.9647V13.9698Z" fill="#E0E0E0"/>
<path d="M67.9795 11.9849C68.5838 12.0237 69.1902 12.0163 69.7934 11.9628C69.8793 11.9628 69.9617 11.9287 70.0224 11.868C70.0832 11.8072 70.1173 11.7248 70.1173 11.6389C70.1173 11.553 70.0832 11.4706 70.0224 11.4099C69.9617 11.3491 69.8793 11.315 69.7934 11.315C69.1902 11.3685 68.5838 11.3758 67.9795 11.337C67.8937 11.3374 67.8115 11.3716 67.7508 11.4323C67.6901 11.4929 67.6559 11.5751 67.6556 11.6609C67.6575 11.7462 67.6923 11.8275 67.7526 11.8878C67.8129 11.9481 67.8942 11.9829 67.9795 11.9849Z" fill="#E0E0E0"/>
<path d="M68.1142 9.46099C68.5751 10.1209 68.9956 10.8079 69.3736 11.5185C69.4174 11.5922 69.4884 11.6458 69.5713 11.6676C69.6542 11.6894 69.7424 11.6777 69.8167 11.6351C69.8897 11.5907 69.9426 11.5197 69.9643 11.4371C69.9861 11.3544 69.975 11.2666 69.9333 11.192C69.5549 10.4813 69.1343 9.7938 68.674 9.13319C68.6291 9.0607 68.558 9.00828 68.4755 8.98681C68.393 8.96534 68.3054 8.97646 68.2308 9.01787C68.1571 9.06164 68.1036 9.13264 68.0818 9.21554C68.0599 9.29845 68.0716 9.38661 68.1142 9.46099Z" fill="#E0E0E0"/>
<path d="M56.119 49.9802L55.7692 53.9656C55.7692 53.9656 59.7028 55.6603 59.7157 56.404L51.9573 56.0063L52.2476 49.7729L56.119 49.9802Z" fill="#455A64"/>
<path d="M53.389 53.5055C53.3135 53.5246 53.2475 53.5707 53.2038 53.6352C53.1601 53.6998 53.1416 53.7781 53.1519 53.8553C53.1679 53.9317 53.2125 53.9991 53.2766 54.0437C53.3407 54.0882 53.4194 54.1066 53.4966 54.095C53.577 54.0747 53.6471 54.0254 53.6932 53.9565C53.7394 53.8876 53.7584 53.804 53.7466 53.7219C53.7026 53.5729 53.5005 53.4472 53.3579 53.5146" fill="#E0E0E0"/>
<path d="M51.9418 56.1655L51.9703 55.5604L59.4229 55.9945C59.4229 55.9945 59.7611 56.1629 59.7093 56.4039L51.9418 56.1655Z" fill="#E0E0E0"/>
<path d="M55.8974 53.9332C55.8974 53.9707 55.7031 53.9785 55.5087 54.0899C55.3144 54.2014 55.2081 54.3568 55.1745 54.34C55.1408 54.3232 55.2081 54.1068 55.444 53.9759C55.6798 53.8451 55.9065 53.8982 55.8974 53.9332Z" fill="#263238"/>
<path d="M56.693 54.3115C56.6995 54.349 56.5323 54.4047 56.395 54.5576C56.2576 54.7105 56.2123 54.879 56.1747 54.8751C56.1371 54.8712 56.1242 54.6561 56.2978 54.4682C56.4714 54.2804 56.6943 54.2752 56.693 54.3115Z" fill="#263238"/>
<path d="M57.1037 55.3092C57.07 55.3092 57.026 55.1227 57.1348 54.9205C57.2436 54.7184 57.4237 54.6458 57.438 54.6769C57.4522 54.708 57.3369 54.8156 57.2514 54.9827C57.1659 55.1499 57.1426 55.3066 57.1037 55.3092Z" fill="#263238"/>
<path d="M55.8767 53.0158C55.8586 53.0494 55.6875 52.9886 55.4725 52.9911C55.2574 52.9937 55.0838 53.0546 55.0695 53.0209C55.0553 52.9873 55.2185 52.8603 55.4725 52.8603C55.7264 52.8603 55.8961 52.9873 55.8767 53.0158Z" fill="#263238"/>
<path d="M54.9218 9.913C54.8998 10.382 54.8596 10.8938 54.5331 11.2359C54.2584 11.5287 53.8386 11.6246 53.4421 11.6829C53.2192 11.7215 52.992 11.7284 52.7671 11.7036C52.5409 11.6782 52.3298 11.5779 52.1672 11.4186C52.0876 11.338 52.0304 11.2379 52.0016 11.1283C51.9727 11.0187 51.9731 10.9034 52.0027 10.7941C51.8767 10.815 51.7474 10.8012 51.6287 10.7542C51.51 10.7072 51.4063 10.6287 51.3289 10.5271C51.2537 10.4244 51.2012 10.3067 51.1751 10.182C51.1489 10.0573 51.1497 9.92852 51.1773 9.80417C51.2355 9.55272 51.3716 9.32602 51.566 9.15633C51.4531 9.06262 51.3734 8.93494 51.3389 8.79231C51.3043 8.64967 51.3167 8.4997 51.3743 8.36469C51.5388 7.87881 51.8925 7.79848 52.1789 7.88529C52.1322 7.81857 52.1027 7.74134 52.0931 7.66046C52.0835 7.57959 52.094 7.49759 52.1238 7.42178C52.1535 7.34597 52.2016 7.2787 52.2636 7.22597C52.3257 7.17324 52.3999 7.13668 52.4795 7.11955L52.9783 7.03015L54.9218 9.913Z" fill="#263238"/>
<path d="M59.0148 6.51192C59.0737 6.39942 59.1023 6.27354 59.0979 6.14664C59.0934 6.01974 59.056 5.89618 58.9894 5.7881C58.9227 5.68001 58.8291 5.59113 58.7177 5.53017C58.6063 5.46921 58.481 5.43828 58.354 5.4404L57.2164 5.69954L57.7062 7.61841C57.7365 7.80681 57.8202 7.98259 57.9472 8.12501C58.0171 8.18167 58.0979 8.22351 58.1845 8.24801C58.2712 8.27251 58.3619 8.27916 58.4512 8.26754C58.6473 8.25029 58.834 8.17556 58.9878 8.0527C59.1416 7.92984 59.2558 7.76432 59.3159 7.57688C59.3761 7.38943 59.3796 7.18839 59.3261 6.99895C59.2725 6.80951 59.1642 6.64009 59.0148 6.51192Z" fill="#263238"/>
<path d="M55.8974 14.5608C55.4347 14.5966 54.9763 14.4499 54.6204 14.1521C54.2644 13.8542 54.0392 13.4289 53.9928 12.9671L53.4175 7.18457C53.2141 5.62978 53.9449 4.22787 55.4984 4.06591L55.6422 4.05943C56.3431 4.02787 57.0302 4.26135 57.5668 4.71343C58.1034 5.16551 58.4501 5.80304 58.538 6.49916C58.7077 7.84147 58.8775 9.32759 58.9021 10.0519C58.95 11.5497 57.4639 11.849 57.4639 11.849C57.4639 11.849 57.6362 12.8362 57.6751 13.2742C57.7619 14.2589 56.8821 14.4843 55.8974 14.5608Z" fill="#B56760"/>
<path d="M57.4328 11.8241C56.7411 11.8531 56.0554 11.6836 55.4569 11.3356C55.4569 11.3356 56.0076 12.4045 57.495 12.2024L57.4328 11.8241Z" fill="#8A4A43"/>
<path d="M58.2206 7.78187C58.2234 7.83767 58.2045 7.8924 58.1677 7.93448C58.131 7.97656 58.0793 8.00268 58.0236 8.00732C57.9965 8.01074 57.969 8.0087 57.9427 8.00132C57.9164 7.99394 57.8918 7.98136 57.8704 7.96433C57.849 7.94731 57.8313 7.92618 57.8182 7.90218C57.8051 7.87819 57.797 7.85182 57.7943 7.82463C57.7914 7.76883 57.8103 7.7141 57.8471 7.67202C57.8839 7.62994 57.9355 7.60382 57.9912 7.59918C58.0183 7.59576 58.0459 7.5978 58.0722 7.60518C58.0985 7.61257 58.123 7.62514 58.1444 7.64217C58.1658 7.65919 58.1835 7.68033 58.1966 7.70432C58.2097 7.72831 58.2178 7.75468 58.2206 7.78187Z" fill="#263238"/>
<path d="M58.2154 7.10658C58.1895 7.13509 58.0223 7.02237 57.793 7.03403C57.5637 7.04569 57.4043 7.16359 57.3732 7.14027C57.3421 7.11695 57.3849 7.07678 57.4561 7.01977C57.5526 6.9465 57.6693 6.90486 57.7904 6.90057C57.91 6.89443 58.0285 6.92666 58.1286 6.99257C58.2011 7.04439 58.2283 7.09363 58.2154 7.10658Z" fill="#263238"/>
<path d="M56.0516 7.92548C56.0549 7.98115 56.0362 8.03588 55.9997 8.078C55.9631 8.12011 55.9115 8.14628 55.856 8.15092C55.8288 8.15434 55.8011 8.15225 55.7748 8.14479C55.7484 8.13733 55.7237 8.12464 55.7024 8.10748C55.681 8.09032 55.6632 8.06904 55.6502 8.04489C55.6372 8.02075 55.6292 7.99424 55.6266 7.96694C55.6238 7.91043 55.6435 7.85512 55.6814 7.8131C55.7193 7.77109 55.7723 7.7458 55.8288 7.74279C55.8825 7.73772 55.936 7.75407 55.9778 7.78828C56.0195 7.82249 56.0461 7.8718 56.0516 7.92548Z" fill="#263238"/>
<path d="M55.9661 7.30111C55.9402 7.32961 55.773 7.21819 55.5437 7.22855C55.3144 7.23892 55.155 7.35812 55.1239 7.3348C55.0928 7.31147 55.1356 7.27131 55.2068 7.2143C55.3036 7.14154 55.4202 7.09997 55.5411 7.0951C55.6607 7.08941 55.7791 7.1216 55.8793 7.18709C55.9583 7.23892 55.9791 7.28945 55.9661 7.30111Z" fill="#263238"/>
<path d="M56.8653 9.03204C56.9849 8.98892 57.1094 8.96064 57.2358 8.94783C57.2942 8.93876 57.3499 8.9245 57.3576 8.88434C57.3599 8.8235 57.3436 8.76341 57.311 8.71201C57.2488 8.57208 57.1814 8.42567 57.1167 8.27149C56.8472 7.64569 56.6489 7.13001 56.6735 7.11965C56.6981 7.10928 56.9391 7.60811 57.2086 8.23392L57.3952 8.67574C57.4358 8.74485 57.4505 8.82613 57.4367 8.90507C57.4292 8.92635 57.4168 8.94561 57.4007 8.96135C57.3845 8.97708 57.3649 8.98886 57.3434 8.99576C57.3115 9.00603 57.2784 9.01213 57.2449 9.0139C57.1196 9.03587 56.9921 9.04196 56.8653 9.03204Z" fill="#263238"/>
<path d="M56.7448 9.64879C56.7339 9.59427 56.7077 9.54394 56.6695 9.5036C56.6312 9.46326 56.5823 9.43454 56.5284 9.42075C56.4639 9.40866 56.3973 9.41727 56.338 9.44537C56.3089 9.46023 56.2833 9.4809 56.2625 9.50608C56.2418 9.53126 56.2265 9.56043 56.2175 9.59178C56.2161 9.60167 56.2161 9.61169 56.2175 9.62158C56.2077 9.63863 56.2019 9.65769 56.2006 9.67729C56.1928 9.73586 56.1991 9.79544 56.2189 9.85109C56.2388 9.90674 56.2716 9.95687 56.3146 9.99732C56.3673 10.0429 56.4355 10.0666 56.5051 10.0634C56.5711 10.0574 56.6323 10.0263 56.6761 9.97659C56.7121 9.93094 56.7369 9.8776 56.7489 9.82073C56.7608 9.76387 56.7594 9.70503 56.7448 9.64879Z" fill="#8A4A43"/>
<path d="M56.2006 9.22131C56.2382 9.22131 56.2498 9.46749 56.4714 9.63463C56.693 9.80177 56.9586 9.7642 56.9612 9.79788C56.9638 9.83157 56.9042 9.84841 56.7927 9.85748C56.6464 9.86582 56.5019 9.82223 56.3846 9.7344C56.2714 9.65083 56.1955 9.52612 56.1734 9.38716C56.1592 9.28351 56.1838 9.22002 56.2006 9.22131Z" fill="#263238"/>
<path d="M55.9583 6.50415C55.9376 6.56764 55.707 6.54821 55.4401 6.59226C55.1732 6.63631 54.9568 6.72183 54.9218 6.66611C54.905 6.6402 54.9399 6.5793 55.0255 6.51581C55.1388 6.43484 55.2698 6.38199 55.4077 6.36163C55.545 6.33927 55.6857 6.34948 55.8184 6.39143C55.9182 6.42641 55.97 6.47435 55.9583 6.50415Z" fill="#263238"/>
<path d="M58.0871 6.26314C58.0482 6.31755 57.8876 6.27091 57.6984 6.27609C57.5092 6.28127 57.3486 6.32792 57.3097 6.27609C57.2916 6.25018 57.3097 6.19706 57.3836 6.14653C57.4757 6.08312 57.5845 6.04842 57.6964 6.0468C57.8082 6.04519 57.918 6.07673 58.012 6.13746C58.0793 6.1841 58.1039 6.23722 58.0871 6.26314Z" fill="#263238"/>
<path d="M53.5588 8.25974C53.5329 8.24938 52.5222 8.00061 52.5948 9.02418C52.6673 10.0478 53.6831 9.75623 53.6831 9.72643C53.6831 9.69663 53.5588 8.25974 53.5588 8.25974Z" fill="#B56760"/>
<path d="M53.3411 9.36254C53.3411 9.36254 53.3243 9.3755 53.2957 9.39234C53.2556 9.41255 53.2095 9.41716 53.1662 9.4053C53.056 9.3742 52.9511 9.20965 52.9317 9.02567C52.923 8.93806 52.9336 8.84961 52.9628 8.76654C52.9697 8.73391 52.9846 8.70349 53.006 8.67796C53.0275 8.65243 53.0549 8.63257 53.0858 8.62013C53.1058 8.61305 53.1276 8.6132 53.1475 8.62053C53.1674 8.62787 53.1841 8.64194 53.1947 8.66029C53.2102 8.6875 53.205 8.70953 53.2115 8.71082C53.218 8.71212 53.2323 8.69139 53.2206 8.64993C53.2125 8.62523 53.1966 8.60384 53.1752 8.58903C53.1605 8.57928 53.144 8.57264 53.1266 8.56952C53.1092 8.56641 53.0914 8.56687 53.0742 8.57089C53.033 8.58245 52.9954 8.60435 52.965 8.63451C52.9346 8.66467 52.9124 8.70208 52.9006 8.74322C52.8641 8.83534 52.8508 8.93498 52.8617 9.03344C52.8837 9.23816 53.0042 9.42214 53.1545 9.45453C53.1826 9.46056 53.2117 9.46007 53.2395 9.45311C53.2674 9.44615 53.2932 9.43289 53.3152 9.41437C53.3411 9.38846 53.345 9.36254 53.3411 9.36254Z" fill="#8A4A43"/>
<path d="M54.9218 5.86424C54.7822 5.76357 54.6131 5.71207 54.4411 5.71783C53.994 5.6999 53.5508 5.8081 53.1623 6.03008C52.9513 6.13555 52.7784 6.30398 52.6673 6.51207C52.615 6.61694 52.5962 6.73541 52.6136 6.85133C52.631 6.96726 52.6837 7.07501 52.7645 7.1599C52.6229 7.26173 52.5231 7.41168 52.484 7.5817C52.4449 7.75172 52.469 7.93017 52.5518 8.0837C52.6347 8.23723 52.7707 8.35531 52.9343 8.41588C53.0979 8.47645 53.278 8.47536 53.4409 8.4128C53.4548 8.4904 53.4883 8.56318 53.538 8.62434C53.5878 8.68551 53.6522 8.73307 53.7253 8.76257C53.7985 8.79208 53.8779 8.80257 53.9561 8.79306C54.0344 8.78355 54.109 8.75436 54.1729 8.70821C54.2394 8.65836 54.2968 8.59744 54.3426 8.52812C54.5188 8.26898 54.5007 7.78441 54.4217 7.47604C54.5235 7.46441 54.6213 7.42994 54.7079 7.37519C54.7945 7.32045 54.8676 7.24686 54.9218 7.1599C55.0284 6.9836 55.0923 6.78482 55.1084 6.57944C55.1382 6.3216 55.1136 6.02879 54.9218 5.86424Z" fill="#263238"/>
<path d="M54.2636 3.03306C54.1949 3.05249 52.5598 3.68089 52.3201 5.00764C52.0804 6.3344 52.2631 6.692 52.2631 6.692C52.2033 6.74382 52.1514 6.80405 52.1089 6.8708C52.0506 6.9628 52.2126 7.34502 52.4264 7.26857C53.9721 6.29294 55.9182 5.93145 58.1078 5.6788L59.7728 5.41189C60.2483 5.39764 60.3947 5.24993 60.1796 5.16183C60.015 5.09316 58.6105 4.75628 58.6105 4.75628L58.3229 4.60469L57.4924 3.75085C57.4924 3.75085 57.5585 3.60574 57.3732 3.51893C57.1879 3.43212 55.6163 2.63788 54.2636 3.03306Z" fill="white"/>
<g opacity="0.3">
<path d="M52.828 4.0037C52.828 4.0037 54.6082 3.44009 55.4828 3.71348L55.3805 3.67979L56.2019 3.90523C56.3405 3.9441 56.5025 3.97779 56.6191 3.89357C56.2281 3.66442 55.798 3.50977 55.3507 3.4375C54.5499 3.29239 53.323 3.35847 52.828 4.0037Z" fill="#121212"/>
</g>
<path d="M52.8034 4.01652C52.8492 3.96955 52.8986 3.92623 52.9511 3.88695C53.0926 3.77585 53.2465 3.6815 53.4098 3.60579C53.6522 3.49348 53.9097 3.4171 54.1742 3.37905C54.4986 3.32418 54.8309 3.34009 55.1485 3.42569C55.3107 3.47372 55.4699 3.53126 55.6253 3.59802C55.7743 3.6641 55.9221 3.71851 56.0581 3.78459C56.1821 3.85375 56.3123 3.91143 56.4468 3.95692C56.5646 3.99143 56.6888 3.99808 56.8096 3.97635C57.2579 3.91675 57.5196 3.7833 57.495 3.75868C57.49 3.77513 57.4795 3.78933 57.4652 3.79884C57.4246 3.82605 57.3812 3.84865 57.3356 3.86622C57.1679 3.92738 56.9942 3.97081 56.8174 3.99579C56.6933 4.01899 56.5656 4.01323 56.4442 3.97894C56.3101 3.93292 56.1801 3.87571 56.0555 3.80791C55.9259 3.74183 55.7731 3.68742 55.6228 3.62263C55.4689 3.55575 55.3109 3.49862 55.1498 3.45161C54.8359 3.36812 54.5079 3.35178 54.1872 3.40367C53.9247 3.44094 53.6687 3.51463 53.4266 3.62263C53.2639 3.69646 53.1097 3.78769 52.9666 3.89472C52.9161 3.9323 52.8772 3.96339 52.8526 3.98542C52.837 3.99693 52.8205 4.00732 52.8034 4.01652Z" fill="#263238"/>
<g opacity="0.3">
<path d="M52.2398 5.55701C52.5421 5.49345 52.8364 5.3961 53.1169 5.26679C53.4512 5.13722 53.7855 5.02968 54.1133 4.88716C54.3634 4.77962 54.6601 4.67208 54.8026 4.45959C54.8242 4.52168 54.8297 4.58825 54.8186 4.65305C54.8075 4.71786 54.7802 4.77879 54.7391 4.83015C54.5859 4.96724 54.4107 5.07761 54.2208 5.15665C53.4966 5.47539 52.9887 5.69047 52.21 5.86409C52.2131 5.76247 52.223 5.66118 52.2398 5.5609" fill="#121212"/>
</g>
<path d="M52.3538 4.86124C52.1607 4.98174 52.0415 5.06077 52.0623 5.23828C52.0791 5.38598 52.1348 5.5609 52.2838 5.56608C52.3285 5.56421 52.3724 5.55411 52.4134 5.53628L54.6044 4.74981C54.682 4.7308 54.7504 4.68489 54.7974 4.62025C54.8196 4.56335 54.8184 4.50001 54.7941 4.44398C54.7699 4.38794 54.7245 4.34374 54.6678 4.32095C54.5541 4.27795 54.4303 4.26894 54.3115 4.29503C53.6345 4.39325 52.9738 4.58239 52.3473 4.85735" fill="white"/>
<path d="M54.7689 4.66189C54.7937 4.63095 54.8094 4.59371 54.8143 4.55435C54.82 4.50163 54.8109 4.44836 54.788 4.40052C54.7651 4.35268 54.7293 4.31218 54.6847 4.28356C54.5366 4.21999 54.3714 4.20812 54.2157 4.24987C54.0356 4.28486 53.8386 4.32761 53.6339 4.37944C53.2823 4.46239 52.9388 4.57687 52.6078 4.72149C52.4782 4.77721 52.381 4.82903 52.3123 4.86531L52.2333 4.90677C52.2243 4.9125 52.2148 4.91728 52.2048 4.92102C52.2126 4.91387 52.2213 4.90777 52.2307 4.90289L52.3072 4.85495C52.3745 4.81608 52.473 4.76166 52.5987 4.70335C52.9288 4.55252 53.2729 4.43448 53.6261 4.35093C53.8321 4.29911 54.0304 4.25894 54.2105 4.22137C54.3721 4.17922 54.5433 4.19433 54.6951 4.26412C54.742 4.29523 54.779 4.33904 54.802 4.39043C54.8249 4.44182 54.8328 4.49867 54.8246 4.55435C54.82 4.58446 54.808 4.61296 54.7896 4.63727C54.778 4.65541 54.7689 4.66319 54.7689 4.66189Z" fill="#263238"/>
<path d="M57.7541 4.02568L56.3302 4.20448L56.509 4.5867L58.0482 4.32757L57.7541 4.02568Z" fill="white"/>
<path d="M55.7912 5.60517C55.7912 5.60517 56.4092 5.41471 57.1762 5.19703C57.9433 4.97936 58.5652 4.80834 58.5678 4.80834C58.5704 4.80834 57.9498 4.9988 57.184 5.21777C56.4183 5.43673 55.7938 5.60517 55.7912 5.60517Z" fill="#263238"/>
<path d="M65.7134 9.01268L62.1892 12.8349L57.9666 13.6512L59.1975 17.3179L63.0482 16.0002C63.7584 15.7625 64.3729 15.3017 64.7999 14.6864C65.7069 13.3376 67.2617 10.5325 67.2617 10.5325L65.7134 9.01268Z" fill="white"/>
<path d="M63.3682 11.556L65.3972 13.7548L65.988 12.7701L64.1171 10.7437L63.3682 11.556Z" fill="white"/>
<path d="M66.5335 8.09258C66.5335 8.09258 68.1997 6.7425 68.5418 6.70623C68.8838 6.66995 69.1171 6.57666 69.3516 6.77878C69.5861 6.98091 70.0486 7.55618 70.1031 7.73628C70.1575 7.91637 70.037 8.31414 70.037 8.31414C69.9335 8.1278 69.7954 7.96289 69.6302 7.82827C69.5006 7.73109 69.0069 7.58857 68.9357 8.05631C68.8914 8.31355 68.8914 8.57646 68.9357 8.8337L69.2117 8.79483L69.393 9.36752L67.57 9.44525L67.0881 10.3522L65.7134 9.0125L66.5335 8.09258Z" fill="#B56760"/>
<g opacity="0.3">
<path d="M58.0171 13.6512C58.0171 13.6512 58.9876 14.0917 59.4061 15.0829C59.8246 16.0741 59.5706 17.1896 59.5706 17.1896L58.0171 13.6512Z" fill="#121212"/>
</g>
<path d="M53.148 41.754C52.5391 44.5928 51.8692 53.3592 51.8692 53.3592L56.1527 53.5018L57.6958 44.655C57.6958 44.655 58.3929 41.5454 58.8191 39.839C59.1988 38.3127 60.475 26.5403 60.475 26.5403L53.056 26.714C53.056 26.714 52.7723 27.3877 52.5805 29.1977C52.4251 30.667 52.4328 31.4885 52.5481 32.2153C52.6164 32.6429 52.7741 33.0512 53.0107 33.4138L53.5614 34.6019L53.148 41.754Z" fill="white"/>
<path d="M74.9268 14.2613H73.6013V16.4756H74.9268V14.2613Z" fill="#E0E0E0"/>
<path d="M76.4194 16.4095H72.2914V17.0133H76.4194V16.4095Z" fill="#E0E0E0"/>
<path d="M72.1269 10.7709H70.3985V11.6934H72.1269V10.7709Z" fill="#E0E0E0"/>
<path d="M76.4207 8.87525H71.9934V14.3442H76.4207V8.87525Z" fill="#E0E0E0"/>
<path d="M75.1082 12.3989C75.6061 11.901 75.6061 11.0937 75.1082 10.5958C74.6103 10.0979 73.803 10.0979 73.3052 10.5958C72.8073 11.0937 72.8073 11.901 73.3051 12.3989C73.803 12.8968 74.6103 12.8968 75.1082 12.3989Z" fill="white"/>
<path d="M75.4814 11.4977C75.4723 11.4977 75.4814 11.3837 75.4269 11.1906C75.3514 10.9172 75.1874 10.6766 74.9605 10.5065C74.7942 10.3823 74.5994 10.3015 74.394 10.2717C74.1885 10.2418 73.9789 10.2637 73.784 10.3355C73.5541 10.4191 73.3546 10.5699 73.2114 10.7682C73.0557 10.9798 72.9718 11.2356 72.9718 11.4983C72.9718 11.761 73.0557 12.0168 73.2114 12.2284C73.3552 12.4259 73.5546 12.5761 73.784 12.6599C73.9789 12.7316 74.1885 12.7535 74.394 12.7237C74.5994 12.6938 74.7942 12.6131 74.9605 12.4889C75.1874 12.3187 75.3514 12.0781 75.4269 11.8047C75.4775 11.6117 75.4723 11.4977 75.4814 11.4977C75.4847 11.5248 75.4847 11.5522 75.4814 11.5793C75.4827 11.6127 75.4806 11.6461 75.4749 11.6791C75.4715 11.7228 75.4642 11.7662 75.4529 11.8086C75.3964 12.0507 75.2711 12.2711 75.0919 12.4434C74.9128 12.6156 74.6876 12.7322 74.4435 12.7791C74.2137 12.8233 73.9762 12.8055 73.7555 12.7273C73.6362 12.6852 73.5239 12.6254 73.4225 12.5498C73.3151 12.4728 73.221 12.3786 73.144 12.2712C72.9758 12.0469 72.8849 11.7741 72.8849 11.4938C72.8849 11.2134 72.9758 10.9407 73.144 10.7164C73.221 10.6093 73.3151 10.5157 73.4225 10.4391C73.5233 10.3625 73.6358 10.3026 73.7555 10.2616C73.9759 10.1824 74.2136 10.1641 74.4435 10.2085C74.6876 10.2554 74.9128 10.372 75.0919 10.5442C75.2711 10.7164 75.3964 10.9369 75.4529 11.1789C75.4642 11.2214 75.4715 11.2647 75.4749 11.3085C75.4805 11.3414 75.4827 11.3749 75.4814 11.4083C75.4855 11.4379 75.4855 11.468 75.4814 11.4977Z" fill="#263238"/>
<path d="M71.9934 8.87521C72.0189 8.87337 72.0444 8.87337 72.0699 8.87521H72.3018L73.1945 8.86614L76.4194 8.84801H76.4531V8.88169C76.4531 10.4469 76.4531 12.3282 76.4596 14.3507C76.4687 14.3429 76.3831 14.4284 76.4194 14.3921H74.0976H71.9908H71.9533V14.3559C71.9533 12.7259 71.9662 11.3564 71.9714 10.3885C71.9714 9.91304 71.9714 9.5373 71.9805 9.27557C71.9805 9.14601 71.9805 9.05272 71.9805 8.98405C71.9772 8.95131 71.9772 8.91832 71.9805 8.88558C71.9805 8.88558 71.9805 8.89594 71.9805 8.91408C71.9805 8.93222 71.9805 8.95943 71.9805 8.99182C71.9805 9.06265 71.9805 9.16242 71.9805 9.29112C71.9805 9.55025 71.9805 9.93895 71.9895 10.4119C71.9895 11.3732 72.0012 12.7363 72.0077 14.3559L71.9727 14.3196H74.0795H76.3987C76.435 14.2846 76.3495 14.3701 76.3585 14.3598C76.3585 12.3372 76.3585 10.4559 76.3585 8.89076L76.3922 8.92445L73.188 8.90761L72.2888 8.89854H72.0504C72.0311 8.89157 72.0121 8.88379 71.9934 8.87521Z" fill="#263238"/>
<path d="M76.3533 16.4094C76.3533 16.4314 75.4464 16.4496 74.314 16.4496C73.1816 16.4496 72.2746 16.4314 72.2746 16.4094C72.2746 16.3874 73.188 16.3693 74.314 16.3693C75.4399 16.3693 76.3533 16.3874 76.3533 16.4094Z" fill="#263238"/>
<path d="M74.0743 11.4524L74.4293 11.5625L74.5627 10.618L74.0743 11.4524Z" fill="white"/>
<path d="M69.5187 15.0181C69.9074 14.6864 70.037 14.4169 70.1989 13.8066C70.3909 13.0799 70.5073 12.3352 70.5462 11.5846C70.6162 10.0414 70.3181 9.01138 70.1575 8.57215C70.0846 8.37034 69.9718 8.18527 69.8258 8.02797C69.6522 7.84528 69.3995 7.66778 69.13 7.7792C68.6403 7.98003 69.0005 8.5566 69.13 8.72245C69.363 9.18297 69.5096 9.68226 69.5628 10.1956C69.6599 11.4135 69.4332 13.414 69.2466 14.045C69.0601 14.676 69.0588 14.8393 69.0588 14.8393C69.0588 14.8393 69.3995 15.0751 69.4371 15.0828C69.4677 15.0659 69.4952 15.044 69.5187 15.0181Z" fill="#E0E0E0"/>
<path d="M69.5187 15.018C69.5187 15.018 69.5109 15.0271 69.4941 15.0439L69.4591 15.0724C69.4516 15.0792 69.4428 15.0845 69.4332 15.088C69.4208 15.086 69.4089 15.0816 69.3982 15.075C69.3153 15.0297 69.1987 14.9454 69.0458 14.8483C69.0649 14.6778 69.0983 14.5092 69.1456 14.3443C69.1948 14.1538 69.2635 13.9439 69.3049 13.7042C69.4042 13.1421 69.473 12.5751 69.5109 12.0056C69.5343 11.683 69.5511 11.3409 69.5537 10.9846C69.5647 10.6148 69.5413 10.2448 69.4837 9.87941C69.4477 9.68844 69.3988 9.50014 69.3373 9.3158C69.2792 9.12552 69.2041 8.94081 69.1132 8.76384C68.9823 8.59641 68.8934 8.40003 68.8541 8.19116C68.8451 8.13444 68.8488 8.07644 68.8649 8.02133C68.8811 7.96622 68.9092 7.91537 68.9473 7.87243C68.9861 7.83077 69.0328 7.79729 69.0847 7.77396C69.1349 7.7469 69.1899 7.72975 69.2466 7.72343C69.3938 7.71246 69.5399 7.75578 69.6574 7.84522C69.7711 7.92643 69.8717 8.02477 69.9554 8.13674C70.1114 8.35783 70.2247 8.6061 70.2896 8.86879C70.4299 9.35413 70.5202 9.85252 70.5591 10.3562C70.6271 11.2082 70.5835 12.0654 70.4296 12.9061C70.3661 13.2637 70.2922 13.585 70.2132 13.8636C70.1502 14.1012 70.0579 14.3302 69.9385 14.5451C69.8585 14.6803 69.7594 14.8034 69.6444 14.9105L69.5524 14.9908C69.5317 15.0076 69.52 15.0167 69.5187 15.0154C69.5174 15.0141 69.5602 14.9765 69.634 14.9001C69.744 14.7908 69.8386 14.667 69.9152 14.5321C70.0295 14.3134 70.1166 14.0815 70.1743 13.8415C70.2495 13.5643 70.3194 13.2429 70.3803 12.8853C70.5284 12.0487 70.568 11.1965 70.4982 10.3497C70.4584 9.85074 70.3677 9.35711 70.2275 8.87657C70.1642 8.62153 70.0544 8.38038 69.9035 8.16525C69.8236 8.05935 69.7279 7.96628 69.6198 7.88927C69.516 7.80932 69.3864 7.77015 69.2557 7.77914C69.2068 7.78441 69.1593 7.79892 69.1158 7.8219C69.0713 7.84191 69.0312 7.87053 68.9979 7.90612C68.9667 7.94249 68.9437 7.98516 68.9305 8.03122C68.9173 8.07729 68.9142 8.12565 68.9214 8.17302C68.9598 8.37166 69.0451 8.55824 69.1702 8.7172C69.2637 8.89872 69.3409 9.0882 69.4008 9.2834C69.4619 9.47095 69.5108 9.66224 69.5472 9.85609C69.6044 10.2255 69.6269 10.5994 69.6146 10.9729C69.6146 11.3318 69.5913 11.6739 69.5654 11.9978C69.5243 12.569 69.4512 13.1374 69.3464 13.7003C69.3024 13.9426 69.2285 14.1538 69.178 14.3417C69.1291 14.5036 69.0932 14.6691 69.0704 14.8366V14.8262C69.2207 14.9325 69.3296 15.0128 69.4151 15.0621L69.441 15.075C69.4496 15.0725 69.4576 15.0681 69.4643 15.0621L69.5006 15.0361C69.5061 15.0296 69.5122 15.0236 69.5187 15.018Z" fill="#263238"/>
<path d="M53.7998 12.3502L53.6767 13.0835C53.2374 13.883 52.2009 15.452 52.3383 17.8529C52.5171 20.8329 52.7904 26.4418 52.7904 26.4418L52.7775 26.5196C52.7432 26.7289 52.7616 26.9435 52.831 27.1439C52.9005 27.3443 53.0188 27.5243 53.1752 27.6675L59.9503 27.8139C60.3518 27.7466 60.7114 27.5258 60.9532 27.1982C61.195 26.8706 61.2999 26.4618 61.2459 26.0583L60.1783 18.1029L58.1195 13.4062L57.9264 13.0032L57.6945 12.8633L53.7998 12.3502Z" fill="white"/>
<path d="M52.3862 18.6706L52.5481 21.6675L60.51 21.6117L60.339 18.7133L52.3862 18.6706Z" fill="white"/>
<path d="M57.4134 12.8349C57.4127 12.9021 57.408 12.9692 57.3991 13.0357C57.3833 13.2171 57.3777 13.3992 57.3823 13.5812V13.6123L57.3525 13.6058C56.9547 13.5268 56.4144 13.4322 55.8184 13.3532C55.1874 13.269 54.6134 13.2094 54.1988 13.1588C53.9915 13.1355 53.8231 13.1135 53.7078 13.0979C53.6473 13.0925 53.5875 13.0817 53.529 13.0655C53.5892 13.059 53.6501 13.059 53.7104 13.0655L54.2027 13.1057C54.6199 13.1433 55.1939 13.1951 55.8275 13.2793C56.4248 13.3597 56.9664 13.4607 57.3628 13.5514L57.333 13.576C57.3323 13.3922 57.3453 13.2086 57.3719 13.0267C57.378 12.9613 57.3919 12.8969 57.4134 12.8349Z" fill="#263238"/>
<path d="M60.0746 18.0071C60.0403 17.9494 60.0112 17.8887 59.9878 17.8257C59.9334 17.6962 59.8583 17.5264 59.7741 17.323C59.594 16.8981 59.3413 16.3124 59.0563 15.6685L58.3151 14.0269L58.091 13.528C58.0608 13.4682 58.0361 13.4058 58.0171 13.3415C58.0546 13.3975 58.0875 13.4564 58.1156 13.5177C58.1739 13.6317 58.2581 13.7988 58.3579 14.0074C58.56 14.422 58.8321 14.9999 59.1172 15.6451C59.4022 16.2904 59.6484 16.8786 59.8181 17.3088C59.9023 17.5239 59.9684 17.6975 60.0125 17.8193C60.0382 17.8801 60.059 17.943 60.0746 18.0071Z" fill="#263238"/>
<path d="M60.3636 27.5573C60.3393 27.5655 60.314 27.5703 60.2884 27.5716L60.0721 27.5962C59.8842 27.6169 59.6108 27.6416 59.2726 27.6675C58.5976 27.7206 57.6634 27.7724 56.6308 27.788C55.5981 27.8035 54.6601 27.7815 53.9837 27.7491C53.6456 27.7335 53.3722 27.718 53.1843 27.7024L52.9666 27.6843C52.9412 27.6846 52.9159 27.6811 52.8915 27.6739C52.9165 27.6711 52.9417 27.6711 52.9666 27.6739H53.1856L53.9863 27.6999C54.6627 27.7193 55.5968 27.7335 56.6295 27.718C57.6621 27.7024 58.595 27.6584 59.27 27.6169L60.0695 27.5677L60.2871 27.5547C60.3126 27.5539 60.3382 27.5548 60.3636 27.5573Z" fill="#263238"/>
<path d="M67.548 15.233L68.5418 14.1563C68.5851 14.1095 68.6376 14.0721 68.696 14.0465C68.7544 14.0209 68.8175 14.0075 68.8813 14.0073H69.2272C69.2272 14.0073 69.1184 14.5722 69.5278 14.6201C69.6422 14.6335 69.7578 14.6092 69.8571 14.551C69.9565 14.4928 70.0342 14.4038 70.0784 14.2975C70.0784 14.2975 70.69 14.5722 70.6265 14.9816C70.563 15.3911 70.3752 15.5465 70.3752 15.5465C70.3752 15.5465 70.5332 15.8925 70.4076 16.1438C70.321 16.3033 70.19 16.4343 70.0305 16.5209C69.9061 16.6793 69.7574 16.817 69.59 16.929C69.4021 17.0236 68.008 17.0936 68.008 17.0936L66.7927 18.34L65.8986 16.3784L67.548 15.233Z" fill="#B56760"/>
<g opacity="0.3">
<path d="M53.7479 17.0147C53.7479 17.0147 53.6715 17.6353 54.4955 18.8701C55.3196 20.1049 56.6463 22.2596 58.468 22.7312C60.2897 23.2028 60.637 23.0525 60.637 23.0525L60.3364 20.811L53.7479 17.0147Z" fill="#121212"/>
</g>
<path d="M53.4305 15.6218C53.499 16.7481 54.0004 17.8043 54.8298 18.5694C56.0996 19.7601 58.5665 22.3592 60.164 22.3942C62.4405 22.4434 67.1477 18.41 67.1477 18.41L66.1733 15.8615L60.3364 18.6601L57.3382 14.7511C57.0932 14.4261 56.7814 14.1573 56.4238 13.9629C56.0662 13.7684 55.6711 13.6528 55.2651 13.6239C54.7819 13.5954 54.274 13.6873 53.8853 14.0592C53.4966 14.4311 53.4007 15.0245 53.4305 15.6218Z" fill="white"/>
<path d="M63.1972 17.2879L64.3827 20.5063L65.3765 19.8041L64.3153 16.7632L63.1972 17.2879Z" fill="white"/>
<path d="M53.4305 15.6217C53.4305 15.6217 53.4227 15.5543 53.4214 15.4247C53.4174 15.2345 53.4331 15.0443 53.4681 14.8572C53.5053 14.6059 53.609 14.3692 53.7685 14.1715C53.9279 13.9737 54.1374 13.8222 54.375 13.7326C54.582 13.6527 54.8011 13.6089 55.0229 13.603C55.5398 13.5865 56.0509 13.7163 56.4973 13.9775C56.7493 14.1232 56.9782 14.3057 57.1763 14.5191C57.2796 14.6322 57.3769 14.7507 57.4678 14.8741L57.7554 15.2485L60.3636 18.6406L60.326 18.6315L66.163 15.8303L66.1954 15.8147L66.2096 15.8484C66.4299 16.4289 66.6657 17.043 66.9028 17.6623L67.1826 18.3957L67.1917 18.4177L67.1736 18.4332C66.2323 19.224 65.2492 19.9636 64.2285 20.6488C63.7336 20.9766 63.2374 21.2863 62.7346 21.5558C62.2462 21.8297 61.7336 22.0578 61.2032 22.2373C60.9457 22.3225 60.6799 22.3802 60.4102 22.4096C60.2774 22.4206 60.144 22.4206 60.0112 22.4096C59.8793 22.3933 59.7492 22.3651 59.6225 22.3254C59.1472 22.1621 58.6982 21.9308 58.2892 21.6387C57.5568 21.1198 56.8639 20.5473 56.2162 19.9258C55.9169 19.646 55.637 19.3752 55.3714 19.1187L54.9827 18.7468C54.8531 18.6263 54.7339 18.5123 54.6225 18.3931C54.2419 17.99 53.9393 17.52 53.7298 17.0067C53.5966 16.6816 53.506 16.3406 53.4603 15.9922C53.4435 15.873 53.437 15.7823 53.4344 15.7201C53.4318 15.6579 53.4344 15.6281 53.4344 15.6281C53.4344 15.6281 53.4344 15.6592 53.4447 15.7201C53.4551 15.781 53.459 15.8717 53.4771 15.9909C53.5286 16.3367 53.6226 16.6749 53.757 16.9977C53.9713 17.5094 54.2788 17.9769 54.664 18.3762C54.7754 18.4941 54.8985 18.6069 55.0242 18.7274L55.4129 19.0979C55.6785 19.3571 55.9596 19.6162 56.2602 19.9012C56.9064 20.5177 57.5967 21.0863 58.3255 21.6024C58.7309 21.89 59.1755 22.1178 59.6458 22.2788C59.7681 22.3164 59.8934 22.3437 60.0202 22.3604C60.1496 22.3708 60.2796 22.3708 60.4089 22.3604C60.6734 22.3311 60.934 22.2737 61.1863 22.1894C61.7091 22.0074 62.2143 21.7784 62.6958 21.5053C63.1972 21.2345 63.6908 20.9248 64.1845 20.5983C65.2025 19.9138 66.183 19.1751 67.1217 18.3853L67.1127 18.4229C67.0233 18.191 66.9287 17.9422 66.8328 17.6908C66.5944 17.0689 66.3599 16.4535 66.1383 15.8769L66.185 15.895L60.3493 18.6911L60.3273 18.7014L60.3118 18.682L57.7114 15.2822L57.4237 14.9078C57.3291 14.7782 57.2384 14.6629 57.1374 14.554C56.9445 14.3428 56.7219 14.1608 56.4766 14.0137C56.0375 13.7555 55.5347 13.6258 55.0255 13.6393C54.8076 13.646 54.5924 13.6898 54.3893 13.7689C54.1559 13.8559 53.9499 14.0036 53.7926 14.1968C53.6352 14.3899 53.5321 14.6214 53.494 14.8676C53.4573 15.0532 53.4382 15.242 53.437 15.4312C53.437 15.496 53.437 15.5452 53.437 15.5776C53.437 15.61 53.4305 15.6217 53.4305 15.6217Z" fill="#263238"/>
<path d="M60.247 19.8961C60.2402 19.6961 60.2502 19.4959 60.2768 19.2975C60.2801 19.0975 60.3 18.8982 60.3364 18.7015C60.3651 18.9009 60.3651 19.1033 60.3364 19.3027C60.3338 19.5037 60.3037 19.7033 60.247 19.8961Z" fill="#263238"/>
<g opacity="0.3">
<path d="M53.7155 13.0848C53.6935 13.0926 57.6025 13.8777 57.6025 13.8777L57.4082 12.9449L57.3525 13.5823C57.3525 13.5823 54.0148 12.9902 53.7155 13.0848Z" fill="#121212"/>
</g>
<path d="M52.7438 25.5065C52.7397 25.4812 52.7375 25.4556 52.7373 25.43C52.7373 25.3717 52.7373 25.3004 52.7282 25.2085C52.7282 25.0154 52.7114 24.7381 52.6946 24.3948C52.6609 23.7081 52.5883 22.7597 52.5015 21.7141C52.4147 20.6685 52.3499 19.7174 52.3292 19.0294C52.3175 18.6861 52.3136 18.4075 52.3162 18.2145C52.3162 18.1238 52.3162 18.0512 52.3162 17.9929C52.3157 17.9668 52.3178 17.9408 52.3227 17.9152C52.3285 17.9407 52.3312 17.9668 52.3305 17.9929C52.3305 18.0499 52.3305 18.1225 52.3395 18.2145C52.3395 18.4062 52.3551 18.6848 52.3732 19.0281C52.4069 19.7148 52.4795 20.662 52.565 21.7089C52.6505 22.7558 52.7166 23.7042 52.7373 24.3922C52.749 24.7368 52.7542 25.0154 52.7503 25.2072C52.7503 25.2979 52.7503 25.3717 52.7503 25.43C52.7518 25.4557 52.7496 25.4814 52.7438 25.5065Z" fill="#263238"/>
<path d="M28.0511 54.5812L31.7048 53.3309C31.7048 53.3309 34.2029 56.6257 34.9012 56.4612L32.7323 49.2884L26.9575 51.0013L28.0511 54.5812Z" fill="#455A64"/>
<path d="M30.724 51.2123C30.7242 51.1371 30.752 51.0647 30.8022 51.0088C30.8524 50.9529 30.9214 50.9174 30.9961 50.9091C31.0715 50.9065 31.1451 50.9328 31.2017 50.9826C31.2583 51.0325 31.2937 51.1022 31.3006 51.1773C31.3 51.2572 31.27 51.3341 31.2162 51.3932C31.1623 51.4522 31.0886 51.4893 31.0091 51.4973C30.9303 51.4914 30.8568 51.4554 30.8037 51.3968C30.7507 51.3382 30.7221 51.2615 30.724 51.1825" fill="#E0E0E0"/>
<path d="M32.8813 49.2403L32.3216 49.4048L34.4503 56.29C34.4503 56.29 34.6849 56.5672 34.8999 56.4636L32.8813 49.2403Z" fill="#E0E0E0"/>
<path d="M31.7035 53.4616C31.7385 53.4487 31.7035 53.2699 31.7619 53.0626C31.8202 52.8553 31.9419 52.7205 31.9186 52.692C31.8953 52.6635 31.7087 52.7775 31.6388 53.0289C31.5688 53.2803 31.6737 53.4785 31.7035 53.4616Z" fill="#263238"/>
<path d="M32.2477 54.1198C32.284 54.1198 32.2983 53.9475 32.4097 53.7829C32.5211 53.6184 32.6688 53.5381 32.6559 53.5031C32.6429 53.4681 32.4395 53.5031 32.3034 53.713C32.1674 53.9229 32.2089 54.1289 32.2477 54.1198Z" fill="#263238"/>
<path d="M33.2726 54.2741C33.2726 54.2404 33.0808 54.2443 32.915 54.392C32.7491 54.5397 32.7245 54.7276 32.7582 54.7327C32.7919 54.7379 32.8632 54.6032 33.0005 54.4879C33.1378 54.3725 33.2843 54.3103 33.2726 54.2741Z" fill="#263238"/>
<path d="M30.8393 53.6534C30.8666 53.6287 30.7694 53.4836 30.724 53.2815C30.6787 53.0794 30.6929 52.9058 30.6579 52.8928C30.623 52.8799 30.5413 53.0703 30.5996 53.3074C30.6579 53.5445 30.8225 53.6741 30.8393 53.6534Z" fill="#263238"/>
<path d="M27.6067 44.8389C27.4654 44.8 21.2774 51.439 21.1361 52.5364C20.9949 53.6338 21.2203 54.59 21.9524 55.2094C22.6844 55.8287 31.0104 53.8036 31.0104 53.8036L30.2226 50.3157L33.2324 49.3024L30.5426 44.3789L27.6067 44.8389Z" fill="white"/>
<g opacity="0.3">
<path d="M26.1426 46.3108L25.9443 46.5233C25.9443 46.5233 29.4919 50.2444 30.5802 50.1939L32.3216 49.6044L26.4289 45.9882L26.1426 46.3108Z" fill="#121212"/>
</g>
<path d="M30.2433 50.4052C30.2433 50.4234 28.9567 50.8185 27.3579 51.2889C25.7591 51.7592 24.4582 52.1246 24.453 52.1064C24.4478 52.0883 25.7396 51.6931 27.3385 51.2241C28.9373 50.755 30.2382 50.3871 30.2433 50.4052Z" fill="#263238"/>
<path d="M22.5147 50.7888L23.7171 54.6045C23.7171 54.6045 20.2421 57.109 20.3963 57.8359L27.8788 55.7693L26.2488 49.7471L22.5147 50.7888Z" fill="#455A64"/>
<path d="M25.9417 53.6417C26.0199 53.6437 26.0946 53.6747 26.1513 53.7285C26.208 53.7823 26.2427 53.8553 26.2488 53.9333C26.2496 54.0112 26.2205 54.0865 26.1675 54.1436C26.1145 54.2007 26.0416 54.2354 25.9638 54.2403C25.8813 54.2383 25.8026 54.2058 25.7427 54.1491C25.6829 54.0924 25.6462 54.0155 25.6399 53.9333C25.6502 53.7778 25.8199 53.6119 25.9715 53.6456" fill="#E0E0E0"/>
<path d="M27.928 55.9259L27.7699 55.3415L20.5868 57.3744C20.5868 57.3744 20.294 57.6115 20.3963 57.8357L27.928 55.9259Z" fill="#E0E0E0"/>
<path d="M23.5849 54.6004C23.5966 54.6367 23.7845 54.6004 23.9957 54.6704C24.2069 54.7403 24.3468 54.866 24.3766 54.8414C24.4064 54.8168 24.2937 54.6224 24.0345 54.5447C23.7754 54.4669 23.5668 54.5693 23.5849 54.6004Z" fill="#263238"/>
<path d="M22.8905 55.1422C22.8905 55.1798 23.0667 55.1979 23.2338 55.3184C23.4009 55.4389 23.4813 55.5918 23.5176 55.5775C23.5538 55.5633 23.5176 55.3534 23.309 55.207C23.1004 55.0606 22.8814 55.1072 22.8905 55.1422Z" fill="#263238"/>
<path d="M22.7039 56.2046C22.7389 56.2046 22.7402 56.0064 22.5899 55.8327C22.4396 55.6591 22.2478 55.6254 22.2413 55.6604C22.2349 55.6954 22.3709 55.7731 22.4901 55.9195C22.6093 56.066 22.6663 56.2111 22.7039 56.2046Z" fill="#263238"/>
<path d="M23.4074 53.7C23.432 53.7298 23.5862 53.6326 23.7961 53.5898C24.006 53.5471 24.1848 53.5678 24.1965 53.5302C24.2081 53.4927 24.0151 53.4007 23.7689 53.4603C23.5227 53.5199 23.3815 53.6741 23.4074 53.7Z" fill="#263238"/>
<g opacity="0.3">
<path d="M27.9319 54.4967L27.4719 52.6867L27.8153 52.5273L25.7215 46.829L25.3224 47.1775L26.9679 52.3965L27.5561 54.5758L27.9319 54.4967Z" fill="#121212"/>
</g>
<path d="M22.9928 40.391C22.5869 40.3036 22.167 40.3034 21.761 40.3902C21.3549 40.4771 20.9719 40.6492 20.6373 40.8951C20.075 41.3174 19.6008 41.9938 19.7575 43.0562C20.0957 45.4195 23.1159 53.4863 23.1159 53.4863L27.2931 52.2295C27.3177 52.2217 27.3411 52.1531 27.3281 52.1751C27.2931 52.2295 25.2084 45.5102 25.255 45.5892C25.3017 45.6683 29.4724 49.0305 31.2008 49.6485C31.9748 49.9293 32.8185 49.9537 33.6074 49.718C34.3962 49.4824 35.0883 48.9992 35.5815 48.3399C35.9857 47.7737 36.0142 45.2861 35.5815 43.971C35.5815 43.971 23.5227 40.553 23.2973 40.4727C23.1977 40.4389 23.096 40.4117 22.9928 40.391Z" fill="white"/>
<path d="M22.8218 42.849C23.4894 43.3003 24.0533 43.8888 24.4757 44.5751C24.8982 45.2614 25.1696 46.0298 25.2719 46.8292" fill="white"/>
<path d="M35.6463 48.2322L35.5957 48.3113C35.5633 48.3644 35.505 48.4408 35.4299 48.5328C35.1959 48.8035 34.9251 49.0399 34.6253 49.2351C34.4076 49.3783 34.1773 49.5015 33.9373 49.603C33.6489 49.7215 33.3475 49.8054 33.0394 49.8531C32.6828 49.905 32.3206 49.905 31.964 49.8531C31.5613 49.793 31.1708 49.6692 30.807 49.4864C30.6152 49.3944 30.4183 49.2882 30.2252 49.1819C30.0321 49.0757 29.8365 48.9578 29.6344 48.8295C29.4323 48.7012 29.2327 48.5782 29.0306 48.4408C28.8285 48.3035 28.6199 48.1661 28.4113 48.021C27.5769 47.4419 26.7023 46.7863 25.7953 46.0646L25.4559 45.7886C25.3989 45.7407 25.3431 45.6953 25.2848 45.6435L25.2408 45.602C25.2602 45.602 25.189 45.602 25.2835 45.602C25.2926 45.5683 25.2835 45.593 25.2835 45.5865V45.5994L25.29 45.6254L25.3211 45.7316L25.5893 46.5958L26.1581 48.389C26.5468 49.6112 26.9519 50.8827 27.3735 52.2034L27.3838 52.2345L27.3527 52.2436L23.1198 53.5172L23.09 53.5263L23.0783 53.4978C22.8049 52.7619 22.5186 51.978 22.2349 51.1824C21.6298 49.4877 21.0545 47.8267 20.5505 46.2071C20.2914 45.3973 20.0594 44.5966 19.8729 43.8011C19.821 43.6028 19.7861 43.402 19.7498 43.2025C19.7095 43.0034 19.6916 42.8004 19.6967 42.5974C19.7018 42.1943 19.8228 41.8012 20.0452 41.465C20.2687 41.1513 20.5553 40.8878 20.8867 40.6915C21.218 40.4951 21.5868 40.3702 21.9692 40.3248C22.3344 40.2758 22.7055 40.2942 23.0641 40.3792L23.3232 40.4466L23.5823 40.5217L24.0851 40.672L27.7803 41.7746L33.1301 43.3748L34.5799 43.814L34.957 43.9293L35.0865 43.9708C35.0865 43.9708 35.0425 43.9604 34.957 43.9358L34.5799 43.827L33.1223 43.4007L27.7647 41.82L24.0656 40.7252L23.5668 40.5762L23.3077 40.4997L23.0485 40.4349C22.6966 40.3525 22.3325 40.3354 21.9744 40.3844C21.6057 40.4318 21.2499 40.5516 20.9275 40.7368C20.5953 40.9249 20.31 41.1858 20.0931 41.5C19.8783 41.8269 19.7618 42.2087 19.7576 42.6C19.7527 42.7987 19.7705 42.9974 19.8107 43.1921C19.847 43.3903 19.8806 43.5886 19.9325 43.7868C20.119 44.5785 20.3574 45.3779 20.6114 46.1864C21.118 47.8059 21.6946 49.4657 22.2958 51.1604C22.5795 51.9547 22.8658 52.7385 23.1392 53.4732L23.0978 53.4537L27.3307 52.1814L27.3087 52.2229L26.0972 48.4084C25.9037 47.7969 25.7159 47.1996 25.5336 46.6165L25.2667 45.751L25.2356 45.6435L25.2278 45.6163V45.6007C25.2278 45.5917 25.2214 45.6111 25.2278 45.5722C25.2965 45.5917 25.2745 45.5632 25.2797 45.5722L25.3172 45.6059L25.4844 45.7471L25.8225 46.0231C26.7295 46.7461 27.6002 47.403 28.432 47.9835C28.6406 48.1286 28.8453 48.2711 29.0487 48.4045C29.2522 48.538 29.453 48.6637 29.6512 48.7932C29.8495 48.9228 30.0477 49.0316 30.2395 49.147C30.4312 49.2623 30.6282 49.3594 30.8173 49.4514C31.1766 49.6342 31.5629 49.7585 31.9614 49.8194C32.3149 49.8712 32.6742 49.8712 33.0277 49.8194C33.3333 49.7739 33.6325 49.6926 33.9191 49.5771C34.1584 49.4778 34.3879 49.3563 34.6045 49.2143C34.9048 49.0228 35.177 48.7904 35.413 48.5237C35.4895 48.4292 35.5491 48.3592 35.5828 48.3061C35.6164 48.253 35.6463 48.2322 35.6463 48.2322Z" fill="#263238"/>
<path d="M23.3517 43.7389C23.4735 43.7901 23.5891 43.8548 23.6964 43.9319C23.9623 44.1061 24.2121 44.3038 24.4427 44.5227C24.6739 44.7421 24.8819 44.9848 25.0633 45.247C25.1319 45.3481 25.1838 45.4323 25.2162 45.4919C25.236 45.5217 25.2509 45.5545 25.2602 45.5891C25.2512 45.5891 25.1708 45.4673 25.0244 45.2742C24.8338 45.0239 24.6237 44.7891 24.396 44.572C24.1673 44.3557 23.9245 44.1548 23.6691 43.9708C23.5587 43.9 23.4527 43.8225 23.3517 43.7389Z" fill="#263238"/>
<path d="M24.7782 43.2738C24.8397 43.3724 24.8889 43.4781 24.9246 43.5886C25.0257 43.8508 25.1067 44.1202 25.1669 44.3945C25.228 44.6684 25.2687 44.9465 25.2887 45.2264C25.3036 45.3421 25.3036 45.4592 25.2887 45.5749C25.2649 45.4617 25.2489 45.3469 25.2408 45.2315C25.2149 45.019 25.1721 44.7275 25.1009 44.4088C25.0406 44.1375 24.9666 43.8693 24.8793 43.6055C24.8366 43.4979 24.8028 43.3869 24.7782 43.2738Z" fill="#263238"/>
<path d="M28.2584 25.947L29.5048 31.6984C29.7173 32.6767 29.8287 34.1602 28.2662 34.4193C26.8941 34.5489 26.2799 33.3491 26.083 32.4357C25.9897 32.0029 25.9106 31.6427 25.8977 31.5987C25.8977 31.5987 24.4038 31.7788 23.984 30.3522C23.7806 29.6629 23.4787 28.2092 23.2209 26.8915C23.0875 26.2086 23.2161 25.5005 23.581 24.908C23.9459 24.3155 24.5204 23.8821 25.1903 23.6938L25.3276 23.655C26.8409 23.3297 27.972 24.4298 28.2584 25.947Z" fill="#FFBE9D"/>
<path d="M25.899 31.6038C26.5595 31.4163 27.1525 31.0436 27.608 30.5297C27.608 30.5297 27.4538 31.7372 25.9897 32.0106L25.899 31.6038Z" fill="#EB996E"/>
<path d="M23.6342 27.5484C23.6679 27.5718 23.857 27.4694 24.1317 27.4668C24.4064 27.4642 24.6137 27.5562 24.6422 27.5316C24.6707 27.507 24.6215 27.4798 24.5321 27.437C24.4032 27.38 24.2634 27.3522 24.1226 27.3554C23.9875 27.3564 23.8544 27.3888 23.7339 27.45C23.6458 27.5018 23.6186 27.5394 23.6342 27.5484Z" fill="#263238"/>
<path d="M25.9068 27.1675C25.9456 27.1675 26.07 26.999 26.3149 26.8747C26.5598 26.7503 26.7826 26.7451 26.7982 26.7062C26.8137 26.6674 26.758 26.67 26.6582 26.6712C26.5184 26.6784 26.3818 26.716 26.2579 26.7814C26.1354 26.8423 26.0289 26.931 25.9469 27.0405C25.899 27.1131 25.8886 27.1649 25.9068 27.1675Z" fill="#263238"/>
<path d="M25.978 27.5886C25.9893 27.6298 26.0161 27.665 26.0529 27.6867C26.0896 27.7085 26.1334 27.7151 26.175 27.7052C26.1961 27.7018 26.2164 27.6941 26.2345 27.6826C26.2527 27.6712 26.2682 27.6561 26.2804 27.6384C26.2925 27.6207 26.3009 27.6007 26.305 27.5797C26.3092 27.5587 26.309 27.537 26.3045 27.516C26.293 27.475 26.2661 27.44 26.2294 27.4183C26.1927 27.3966 26.1491 27.3898 26.1076 27.3994C26.0864 27.4028 26.0661 27.4105 26.048 27.4219C26.0299 27.4334 26.0143 27.4485 26.0022 27.4662C25.9901 27.4839 25.9817 27.5038 25.9775 27.5249C25.9734 27.5459 25.9735 27.5676 25.978 27.5886Z" fill="#263238"/>
<path d="M23.8868 28.073C23.8981 28.1142 23.9249 28.1494 23.9617 28.1711C23.9984 28.1929 24.0422 28.1995 24.0838 28.1896C24.1042 28.1854 24.1237 28.1773 24.1409 28.1655C24.1582 28.1538 24.173 28.1388 24.1845 28.1213C24.1959 28.1039 24.2038 28.0843 24.2076 28.0638C24.2115 28.0432 24.2112 28.0221 24.2068 28.0017C24.1959 27.9603 24.1691 27.9249 24.1322 27.9031C24.0954 27.8813 24.0515 27.8748 24.0099 27.8851C23.9894 27.8891 23.9698 27.8972 23.9524 27.9089C23.9351 27.9205 23.9202 27.9356 23.9087 27.9531C23.8973 27.9706 23.8894 27.9902 23.8856 28.0108C23.8819 28.0314 23.8823 28.0525 23.8868 28.073Z" fill="#263238"/>
<path d="M25.5595 28.7975C25.4332 28.7933 25.3069 28.8054 25.1838 28.8338C25.1255 28.8429 25.0698 28.8467 25.0542 28.8118C25.0332 28.7549 25.03 28.693 25.0451 28.6343C25.0594 28.484 25.0749 28.3259 25.0905 28.16C25.1501 27.4863 25.1773 26.9382 25.1501 26.9369C25.1229 26.9356 25.0529 27.4785 24.9933 28.1523C24.9791 28.3181 24.9661 28.4762 24.9544 28.6278C24.9387 28.7053 24.9501 28.7858 24.9868 28.8558C25.0005 28.8733 25.018 28.8874 25.038 28.8971C25.058 28.9067 25.0799 28.9117 25.1022 28.9115C25.1358 28.9118 25.1694 28.9075 25.2019 28.8986C25.3249 28.8801 25.445 28.8461 25.5595 28.7975Z" fill="#263238"/>
<path d="M25.7409 26.0505C25.7746 26.0985 25.9612 26.0194 26.197 25.9832C26.4328 25.9469 26.6349 25.9598 26.6505 25.9028C26.6582 25.8756 26.6116 25.8329 26.5209 25.8018C26.4048 25.7635 26.2812 25.7542 26.1607 25.7746C26.04 25.7927 25.9256 25.8403 25.8277 25.9132C25.7552 25.9715 25.7254 26.0259 25.7409 26.0505Z" fill="#263238"/>
<path d="M23.5227 26.9718C23.5577 27.0106 23.7365 26.9225 23.9659 26.8681C24.1952 26.8137 24.3908 26.8046 24.4064 26.7541C24.4064 26.7308 24.3662 26.6984 24.2768 26.6802C24.1598 26.6586 24.0395 26.663 23.9244 26.6932C23.8078 26.7206 23.6984 26.7723 23.6031 26.8448C23.5357 26.9031 23.5072 26.9523 23.5227 26.9718Z" fill="#263238"/>
<path d="M28.4385 27.0445C28.4605 27.0263 29.3454 26.477 29.5838 27.4643C29.8223 28.4516 28.787 28.4917 28.7779 28.4645C28.7689 28.4373 28.4385 27.0445 28.4385 27.0445Z" fill="#FFBE9D"/>
<path d="M28.9865 28.02C28.9865 28.02 29.0073 28.0277 29.0397 28.0329C29.0849 28.041 29.1315 28.0307 29.1692 28.0044C29.2638 27.9396 29.3105 27.7531 29.2716 27.5743C29.2535 27.4889 29.2163 27.4087 29.1628 27.3397C29.1459 27.3112 29.1224 27.2872 29.0942 27.2698C29.0659 27.2524 29.0339 27.2422 29.0008 27.24C28.9798 27.2395 28.9592 27.2463 28.9427 27.2593C28.9261 27.2723 28.9146 27.2907 28.9101 27.3112C28.9036 27.3423 28.9101 27.3605 28.9101 27.3644C28.9101 27.3683 28.8855 27.3527 28.8829 27.3099C28.8828 27.2843 28.891 27.2593 28.9062 27.2387C28.917 27.2249 28.9305 27.2134 28.9459 27.2049C28.9612 27.1964 28.9782 27.1912 28.9956 27.1895C29.0381 27.1877 29.0804 27.1967 29.1185 27.2158C29.1566 27.2348 29.1892 27.2632 29.2133 27.2983C29.2768 27.3729 29.3212 27.4618 29.3429 27.5574C29.3856 27.7582 29.3299 27.9694 29.1977 28.0459C29.1729 28.06 29.1453 28.0685 29.1169 28.0707C29.0885 28.0729 29.0599 28.0689 29.0332 28.0588C28.9943 28.0394 28.984 28.02 28.9865 28.02Z" fill="#EB996E"/>
<path d="M25.934 29.4451C25.9184 29.4218 26.1011 29.3233 26.2009 29.1134C26.2418 29.0212 26.2705 28.9241 26.2864 28.8245C26.3006 28.7467 26.3136 28.6949 26.324 28.6949C26.3343 28.6949 26.3421 28.7454 26.3434 28.8245C26.3432 28.9337 26.3194 29.0415 26.2734 29.1406C26.2261 29.2411 26.1522 29.3267 26.0596 29.3881C25.9897 29.4373 25.9391 29.4451 25.934 29.4451Z" fill="#263238"/>
<path d="M21.7943 26.2436C21.7547 26.2711 21.723 26.3086 21.7025 26.3522C21.682 26.3959 21.6735 26.4443 21.6777 26.4923C21.6896 26.5624 21.7242 26.6266 21.7762 26.6751C21.8282 26.7236 21.8946 26.7536 21.9654 26.7605C22.0363 26.7644 22.107 26.75 22.1708 26.7187C22.2345 26.6874 22.2891 26.6402 22.3294 26.5817C22.2894 26.626 22.2566 26.6763 22.2323 26.7307C22.2095 26.7883 22.208 26.8521 22.2281 26.9106C22.2483 26.9691 22.2887 27.0185 22.3421 27.0498C22.3954 27.0811 22.4583 27.0922 22.5191 27.0813C22.58 27.0703 22.635 27.0379 22.6741 26.9899C22.735 27.0573 22.7842 27.1285 22.836 27.1985L22.8477 27.2114C22.8801 27.2555 22.9125 27.2982 22.9501 27.341L23.4282 27.9253C23.366 27.5133 23.2131 26.9419 23.1522 26.5286C23.4574 26.4566 23.7449 26.3238 23.9975 26.1381C24.2502 25.9525 24.4629 25.7178 24.6228 25.448C24.7964 25.1552 24.9078 24.8093 25.176 24.6007C25.5232 24.3325 26.0091 24.3778 26.4445 24.4348L26.4237 24.4232C26.6564 24.4779 26.8763 24.5769 27.0716 24.7147C27.1448 25.5408 27.3949 26.3415 27.8049 27.0624C27.8671 27.17 28.02 27.3876 28.1418 27.4084C28.3841 27.4498 28.4009 27.2101 28.5071 27.0611C28.61 26.9548 28.7483 26.8898 28.8958 26.8785C28.9387 26.5173 28.9595 26.1538 28.958 25.7901L29.0254 25.4092L28.8958 25.0205C28.6173 24.7108 29.0254 24.44 28.8272 24.072C28.6289 23.7041 28.3322 23.3413 27.9202 23.283H27.9124C27.5393 23.2156 27.1143 23.2998 26.8759 23.5965C26.6997 23.0938 26.1633 22.7764 25.6308 22.7466C25.0983 22.7168 24.3053 22.9617 23.8609 23.2558C23.5163 23.4825 23.2131 23.8647 22.8697 24.4076C22.7233 24.637 22.6637 25.3211 22.5562 25.5737L21.7943 26.2436Z" fill="#263238"/>
<path d="M26.1154 22.0807C26.1892 22.0807 28.0057 22.1753 28.6665 23.4036C29.3273 24.6319 29.2677 25.0543 29.2677 25.0543C29.3431 25.0872 29.4134 25.1309 29.4763 25.1839C29.5644 25.2564 29.5281 25.6853 29.291 25.6788C27.4538 25.2137 25.417 25.4832 23.1755 25.9379L21.4458 26.2061C20.9716 26.3448 20.7798 26.245 20.9638 26.0895C21.1037 25.969 22.3813 25.1826 22.3813 25.1826L22.6171 24.9403L23.1612 23.8312C23.1454 23.8113 23.1338 23.7883 23.1273 23.7637C23.1209 23.7391 23.1196 23.7134 23.1236 23.6883C23.1276 23.6631 23.1369 23.6391 23.1507 23.6178C23.1646 23.5964 23.1827 23.5782 23.204 23.5643C23.3595 23.4218 24.6539 22.1248 26.1154 22.0807Z" fill="white"/>
<path d="M22.6171 24.9428C22.6171 24.9428 22.6404 24.9428 22.6844 24.9312L22.8762 24.8949C23.042 24.8586 23.2843 24.8197 23.5849 24.7757C24.368 24.6699 25.1588 24.6335 25.9482 24.6668C26.7378 24.7031 27.5247 24.7844 28.305 24.9104C28.6056 24.9558 28.8479 24.9972 29.015 25.0244L29.2081 25.0555L29.2755 25.0646L29.2094 25.0491L29.0163 25.0128C28.8505 24.9817 28.6082 24.9376 28.3089 24.8832C27.5282 24.7531 26.7403 24.6709 25.9495 24.637C25.1581 24.6041 24.3653 24.6435 23.581 24.7549C22.9812 24.8456 22.6171 24.9428 22.6171 24.9428Z" fill="#263238"/>
<g opacity="0.3">
<path d="M27.8425 22.5782C27.8425 22.5782 25.9055 22.595 25.1294 23.1457L25.2201 23.0796L24.4815 23.5668C24.352 23.6484 24.2094 23.7352 24.0669 23.6885C24.3788 23.337 24.7531 23.0462 25.1708 22.8308C25.9158 22.4279 27.1493 22.0988 27.8425 22.5782Z" fill="#121212"/>
</g>
<path d="M27.8736 22.5782C27.813 22.5466 27.7502 22.5193 27.6857 22.4966C27.5101 22.432 27.3274 22.3885 27.1415 22.367C26.866 22.3337 26.587 22.3411 26.3136 22.389C25.9767 22.4395 25.6545 22.5619 25.3691 22.7479C25.2241 22.8469 25.0856 22.9551 24.9545 23.0718C24.8249 23.1846 24.6953 23.2856 24.5865 23.3958C24.4862 23.5029 24.3769 23.6012 24.26 23.6899C24.1545 23.7596 24.0343 23.8039 23.9089 23.8194C23.4463 23.9049 23.1457 23.8583 23.1613 23.8259C23.1718 23.8403 23.1868 23.8508 23.204 23.8557C23.2529 23.8698 23.3034 23.8777 23.3543 23.879C23.5413 23.8862 23.7285 23.8732 23.9127 23.8402C24.0423 23.8239 24.1661 23.7772 24.2742 23.7041C24.3931 23.6159 24.5041 23.5175 24.6059 23.41C24.716 23.3025 24.8456 23.2001 24.9726 23.0887C25.1033 22.9733 25.2409 22.866 25.3846 22.7674C25.6671 22.5835 25.9856 22.4621 26.3188 22.411C26.5893 22.3619 26.8656 22.3523 27.1389 22.3825C27.3237 22.4022 27.5058 22.4422 27.6818 22.5017C27.744 22.5238 27.7907 22.5419 27.823 22.5549C27.8554 22.5678 27.8736 22.5782 27.8736 22.5782Z" fill="#263238"/>
<g opacity="0.3">
<path d="M28.9231 23.9191C28.5849 23.9749 28.3128 23.9308 27.9656 23.9191C27.5937 23.9023 27.2296 23.8997 26.8591 23.866C26.5792 23.8388 26.2514 23.8285 26.0428 23.6652C26.0408 23.7334 26.0565 23.801 26.0883 23.8613C26.12 23.9217 26.1669 23.9729 26.2242 24.0098C26.4196 24.0958 26.6281 24.1483 26.8409 24.1653C27.6611 24.2457 28.2273 24.2949 29.0436 24.2133C29.0072 24.1136 28.9639 24.0166 28.914 23.923" fill="#121212"/>
</g>
<path d="M28.5875 23.2702C28.8168 23.3272 28.9593 23.3673 28.9969 23.5474C29.028 23.699 29.028 23.8895 28.8842 23.9426C28.8387 23.9554 28.7913 23.9598 28.7443 23.9556L26.3304 23.8843C26.2483 23.8909 26.1663 23.869 26.0985 23.8221C26.0584 23.7737 26.0387 23.7115 26.0438 23.6488C26.0489 23.5861 26.0783 23.5279 26.1257 23.4865C26.2241 23.4074 26.3434 23.3588 26.4691 23.3466C27.1686 23.2259 27.8811 23.2002 28.5875 23.2702Z" fill="white"/>
<path d="M26.1413 23.8493C26.1063 23.8275 26.0783 23.796 26.0609 23.7586C26.0385 23.7078 26.0308 23.6516 26.0388 23.5966C26.0469 23.5416 26.0702 23.49 26.1063 23.4476C26.2315 23.3371 26.3904 23.2722 26.5572 23.2637C26.7463 23.2416 26.9549 23.2183 27.1739 23.2028C27.5474 23.1721 27.9229 23.1747 28.296 23.2105C28.4385 23.2248 28.5551 23.2442 28.6328 23.2572L28.7235 23.274H28.7559C28.7462 23.2688 28.7357 23.2653 28.7248 23.2637L28.6354 23.2416C28.5564 23.2248 28.4411 23.2028 28.2973 23.1859C27.9234 23.1437 27.5462 23.1385 27.1713 23.1704C26.9524 23.1859 26.7438 23.2092 26.5546 23.2326C26.3815 23.2424 26.2174 23.3125 26.0907 23.4308C26.0531 23.476 26.0293 23.5311 26.0222 23.5894C26.0151 23.6478 26.0249 23.707 26.0506 23.7599C26.0655 23.7878 26.0863 23.8121 26.1115 23.8312C26.1296 23.8454 26.14 23.8506 26.1413 23.8493Z" fill="#263238"/>
<path d="M22.9902 24.181L24.453 23.8998L24.3999 24.3352L22.7985 24.5736L22.9902 24.181Z" fill="white"/>
<path d="M25.4338 25.1049C25.4338 25.0958 24.7627 25.1153 23.9361 25.1451C23.1094 25.1749 22.4396 25.2085 22.4396 25.2163C22.4396 25.2241 23.1107 25.2059 23.9374 25.1749C24.764 25.1438 25.4338 25.1127 25.4338 25.1049Z" fill="#263238"/>
<path d="M7.7662 35.1345H6.6325V32.6624C6.63043 32.3082 6.76897 31.9677 7.01771 31.7155C7.26646 31.4634 7.60508 31.3202 7.95926 31.3175H9.14479V32.468H7.95926C7.90794 32.4684 7.85884 32.489 7.82267 32.5254C7.7865 32.5618 7.7662 32.6111 7.7662 32.6624V35.1345Z" fill="#E0E0E0"/>
<path d="M8.35573 32.801C8.31936 32.6595 8.33963 32.5094 8.41222 32.3827C8.48481 32.2559 8.60399 32.1624 8.74443 32.1221C9.33007 31.9498 10.2383 31.7334 10.4858 31.9589C10.8602 32.3009 11.7542 33.125 11.7542 33.125L13.6589 33.581L13.7729 35.2887L10.421 34.3286C10.421 34.3286 9.51405 34.3779 9.59049 33.8894C9.59049 33.8894 9.13572 33.7106 9.2018 33.4346C9.26787 33.1586 9.64102 33.0926 9.64102 33.0926L9.5594 32.6041L8.36091 32.814L8.35573 32.801Z" fill="#FFBE9D"/>
<path d="M8.91286 33.1624C9.54615 33.1624 10.0595 32.6491 10.0595 32.0158C10.0595 31.3825 9.54615 30.8691 8.91286 30.8691C8.27958 30.8691 7.7662 31.3825 7.7662 32.0158C7.7662 32.6491 8.27958 33.1624 8.91286 33.1624Z" fill="white"/>
<path d="M8.91286 33.2272C8.67326 33.2272 8.43904 33.1562 8.23982 33.023C8.0406 32.8899 7.88532 32.7007 7.79363 32.4794C7.70194 32.258 7.67795 32.0144 7.7247 31.7794C7.77144 31.5444 7.88682 31.3286 8.05624 31.1591C8.22566 30.9897 8.44152 30.8743 8.67652 30.8276C8.91152 30.7809 9.1551 30.8048 9.37646 30.8965C9.59782 30.9882 9.78702 31.1435 9.92014 31.3427C10.0533 31.5419 10.1243 31.7762 10.1243 32.0158C10.1243 32.3371 9.99667 32.6452 9.76948 32.8724C9.54229 33.0996 9.23416 33.2272 8.91286 33.2272ZM8.91286 30.9339C8.69889 30.9339 8.48972 30.9973 8.3118 31.1162C8.13389 31.2351 7.99522 31.4041 7.91334 31.6017C7.83145 31.7994 7.81003 32.017 7.85177 32.2268C7.89352 32.4367 7.99656 32.6295 8.14786 32.7808C8.29916 32.9321 8.49193 33.0351 8.7018 33.0769C8.91166 33.1186 9.12919 33.0972 9.32688 33.0153C9.52457 32.9334 9.69353 32.7947 9.81241 32.6168C9.93129 32.4389 9.99474 32.2297 9.99474 32.0158C9.9944 31.7289 9.8803 31.454 9.67749 31.2511C9.47467 31.0483 9.19969 30.9342 8.91286 30.9339Z" fill="#E0E0E0"/>
<path d="M10.4016 32.6909L8.88824 32.3022C8.88824 32.3022 8.4827 32.1882 8.69389 32.6274C8.90508 33.0666 9.53996 32.9682 9.78354 33.2286C10.0271 33.489 10.1658 33.9283 11.1751 34.0915" fill="#FFBE9D"/>
<path d="M11.1751 34.0902C11.1079 34.0877 11.0411 34.079 10.9756 34.0643C10.7963 34.0307 10.6221 33.9741 10.4573 33.8959C10.3426 33.8395 10.2362 33.7676 10.1411 33.6821C10.0348 33.5825 9.93843 33.4727 9.85351 33.3543C9.81007 33.2932 9.75714 33.2394 9.69674 33.1949C9.63079 33.1534 9.55924 33.1216 9.48425 33.1003C9.31702 33.0584 9.15258 33.0061 8.9919 32.9436C8.90913 32.9051 8.83371 32.8525 8.76904 32.7881C8.71231 32.7211 8.66839 32.6442 8.63948 32.5614C8.62424 32.5196 8.61423 32.476 8.60968 32.4318C8.60838 32.4077 8.61235 32.3837 8.6213 32.3613C8.63025 32.3389 8.64397 32.3188 8.6615 32.3022C8.69865 32.2739 8.7444 32.2593 8.79107 32.2608C8.83223 32.261 8.87318 32.2667 8.91286 32.2776L9.69026 32.4862L10.2085 32.6339C10.274 32.648 10.3378 32.6688 10.399 32.6961C10.3324 32.689 10.2665 32.6765 10.202 32.6585L9.67212 32.529L8.88695 32.3333C8.85519 32.3217 8.82132 32.3169 8.78759 32.3194C8.75386 32.3218 8.72104 32.3315 8.6913 32.3476C8.64725 32.3826 8.6615 32.4681 8.6913 32.5393C8.71906 32.6144 8.76034 32.6838 8.8131 32.744C8.87202 32.8015 8.9404 32.8484 9.01522 32.8827C9.17293 32.9448 9.33433 32.9972 9.4985 33.0395C9.57976 33.0622 9.65709 33.0971 9.72783 33.1431C9.79298 33.1919 9.85022 33.2505 9.89757 33.3167C9.97915 33.4336 10.0715 33.5424 10.1735 33.6419C10.2664 33.7246 10.3696 33.7947 10.4806 33.8505C10.6418 33.9305 10.8112 33.9927 10.9859 34.0358C11.0504 34.0485 11.1137 34.0667 11.1751 34.0902Z" fill="#EB996E"/>
<path d="M8.90508 32.0159L9.07481 31.9174L8.57858 31.2476L8.90508 32.0159Z" fill="white"/>
<path d="M8.00719 31.2152C8.01496 31.223 7.95148 31.2826 7.88669 31.4018C7.8023 31.5579 7.75196 31.7301 7.73899 31.9071C7.72324 32.0847 7.74352 32.2636 7.79859 32.4331C7.82934 32.5014 7.85573 32.5715 7.87762 32.643C7.81994 32.5897 7.77557 32.5236 7.74806 32.45C7.67647 32.2767 7.64801 32.0886 7.66513 31.9019C7.67797 31.7144 7.73767 31.5331 7.83875 31.3746C7.92556 31.2593 8.0033 31.2087 8.00719 31.2152Z" fill="#263238"/>
<path d="M13.6459 33.3775L20.0646 34.0901L25.531 32.8138L25.5815 37.3383C25.5815 37.3383 19.6098 37.1271 19.2199 37.0947C18.8299 37.0623 13.5112 36.3627 13.5112 36.3627L13.6459 33.3775Z" fill="white"/>
<path d="M14.8872 33.515L14.8535 36.5443L15.9962 36.6933L16.0209 33.6407L14.8872 33.515Z" fill="white"/>
<path d="M29.1964 30.0619L29.6758 30.4649L32.8839 31.5429L34.7354 34.2767C34.7354 34.2767 35.597 42.4135 35.5504 43.1261C35.5037 43.8387 35.5866 43.9708 35.5866 43.9708L25.8238 41.1968L25.3056 36.7566L25.531 32.8139L26.0039 32.0754L26.5416 32.9525L27.4888 31.6297L29.1964 30.0619Z" fill="white"/>
<path d="M35.0308 37.1454L25.2589 36.7735L25.439 38.3646L35.2122 38.9697L35.0308 37.1454Z" fill="white"/>
<path d="M24.9441 34.8288C24.9537 34.8483 24.9599 34.8693 24.9622 34.891C24.9726 34.9415 24.9842 35.0011 24.9998 35.075C25.0322 35.2343 25.0724 35.4637 25.119 35.7539C25.211 36.3292 25.3146 37.1273 25.4183 38.0083C25.5219 38.8894 25.6165 39.6927 25.6982 40.2641C25.737 40.5439 25.7707 40.7746 25.7953 40.9456C25.8044 41.0194 25.8135 41.0752 25.8199 41.1309C25.8234 41.1528 25.8234 41.1751 25.8199 41.197C25.8124 41.1764 25.8068 41.1551 25.8031 41.1335C25.7927 41.0842 25.7798 41.0233 25.7655 40.9495C25.7331 40.7901 25.693 40.5608 25.6463 40.2706C25.5543 39.6953 25.4494 38.8984 25.347 38.0161C25.2447 37.1338 25.1475 36.3317 25.0672 35.7617C25.027 35.4805 24.9946 35.2512 24.97 35.0801C24.9596 35.005 24.9519 34.9441 24.9454 34.8936C24.9421 34.8721 24.9416 34.8503 24.9441 34.8288Z" fill="#263238"/>
<path d="M26.5468 32.9578C26.5671 32.9249 26.5905 32.8941 26.6168 32.8658L26.8267 32.6222L27.5743 31.7813L27.595 31.758L27.6183 31.7787L28.2882 32.3812L28.3439 32.4317H28.2947C28.6976 31.9044 29.0617 31.4315 29.3312 31.092L29.6486 30.6942C29.6876 30.6434 29.7309 30.5962 29.7782 30.553C29.7493 30.6085 29.715 30.661 29.6758 30.7098C29.5968 30.816 29.497 30.9547 29.3752 31.1205C29.1161 31.4677 28.7598 31.9445 28.3569 32.4719L28.3348 32.5017L28.3076 32.4771C28.2908 32.4602 28.2713 32.4434 28.2519 32.4265L27.5859 31.8202H27.63L26.8643 32.6429L26.6414 32.8761C26.6136 32.9074 26.5818 32.9348 26.5468 32.9578Z" fill="#263238"/>
<path d="M26.4237 33.0252C26.2603 32.8965 26.119 32.742 26.0052 32.5679H26.0584C26.0221 32.6158 25.9845 32.6689 25.9482 32.7246C25.8591 32.8611 25.7803 33.004 25.7124 33.1522L25.693 33.195L25.6671 33.1587C25.5987 33.0771 25.5412 32.9869 25.496 32.8905C25.5765 32.9599 25.6479 33.0391 25.7085 33.1263H25.6632C25.7261 32.9712 25.8052 32.8231 25.899 32.6845C25.9353 32.6288 25.9741 32.5744 26.0117 32.5251L26.0402 32.4901L26.0648 32.5264C26.2592 32.8205 26.4367 33.0136 26.4237 33.0252Z" fill="#263238"/>
<path d="M19.1525 36.228L22.7648 39.1575L23.6368 38.1106L20.1087 35.1319L19.1525 36.228Z" fill="#263238"/>
<path d="M19.6124 35.6826C19.6124 35.6826 19.26 35.2446 18.4567 34.8883C17.9772 34.6764 17.436 34.6501 16.9382 34.8145L16.8902 34.6953C17.42 34.5141 17.9987 34.5405 18.5098 34.7691C19.3442 35.141 19.6992 35.5841 19.7135 35.6035L19.6124 35.6826Z" fill="#263238"/>
<path d="M21.99 36.7203C21.99 36.7203 22.6883 36.8084 22.9293 36.9327C23.1703 37.0571 23.8687 37.5223 23.8687 37.5223L25.2797 37.7892L24.9428 40.1214L23.9983 39.6523L21.9187 39.8596C21.9187 39.8596 21.4652 39.756 21.4652 39.4321C21.3572 39.3664 21.265 39.2776 21.1953 39.1721C21.1257 39.0666 21.0802 38.947 21.0623 38.8218C21.0623 38.8218 20.5051 38.0911 20.4546 37.9498C20.4041 37.8086 20.6878 37.4756 20.6878 37.4756C20.6878 37.4756 21.2812 37.9783 21.6427 38.0574C22.0042 38.1364 22.3307 37.9939 22.3618 37.762C22.424 37.289 21.99 36.7203 21.99 36.7203Z" fill="#E0E0E0"/>
<g opacity="0.3">
<path d="M25.7474 40.7394C25.7474 40.7394 30.483 42.438 32.0715 42.337C33.4177 42.2515 34.0798 41.6205 34.186 40.7394C34.2923 39.8584 34.4452 36.1165 34.4452 36.1165L31.9044 40.5218L25.7215 40.3287L25.7474 40.7394Z" fill="#121212"/>
</g>
<path d="M33.4346 40.5023C33.7753 39.5293 34.1498 37.6519 34.1498 37.6519L34.7406 34.5345C34.7605 33.7211 34.4879 32.9276 33.9723 32.2982C33.5836 31.8344 33.042 31.4366 32.319 31.4405C30.7862 31.447 30.8406 34.2715 30.8406 34.2715L30.4234 38.3166L24.4271 37.3487L24.0462 40.2316L31.0985 41.754C31.3937 41.8273 31.7013 41.8354 32 41.7779C32.2987 41.7204 32.5813 41.5986 32.8282 41.421C33.12 41.1844 33.3318 40.8636 33.4346 40.5023Z" fill="white"/>
<path d="M32.4887 31.6958C32.4887 31.7062 32.3656 31.7101 32.1778 31.7606C31.9327 31.8237 31.7056 31.9426 31.5141 32.1081C31.3226 32.2735 31.1719 32.481 31.0739 32.7142C30.9974 32.893 30.9767 33.0135 30.965 33.0122C30.964 32.9035 30.9861 32.7957 31.0298 32.6961C31.1192 32.4485 31.2709 32.2282 31.4701 32.0562C31.6693 31.8842 31.9095 31.7663 32.1674 31.714C32.2721 31.6856 32.3815 31.6794 32.4887 31.6958Z" fill="#263238"/>
<path d="M25.9599 37.5937L25.7474 40.5945L26.9757 40.8588L27.1648 37.7907L25.9599 37.5937Z" fill="white"/>
<path d="M34.7406 34.5398C34.7406 34.5398 34.7406 34.5645 34.7289 34.615C34.7173 34.6655 34.7082 34.7445 34.6913 34.8327C34.6564 35.0283 34.6045 35.3108 34.5385 35.6735C34.4724 36.0363 34.3882 36.4846 34.2936 37.0016C34.2443 37.2607 34.1964 37.538 34.1355 37.8308C34.0746 38.1236 34.0059 38.432 33.9347 38.7546C33.8634 39.0772 33.7792 39.4167 33.6846 39.7665C33.638 39.9414 33.5861 40.119 33.5304 40.299C33.4762 40.4843 33.4074 40.665 33.3244 40.8393C33.2377 41.0217 33.1198 41.1875 32.9759 41.3291C32.8226 41.4685 32.6476 41.5819 32.4576 41.6647C32.0561 41.8345 31.6128 41.8796 31.1853 41.7942L25.6139 40.5945L24.0475 40.2563L24.0164 40.2498V40.2187C24.146 39.2237 24.2755 38.2584 24.3973 37.3359V37.3035H24.4297L30.4338 38.2985L30.4066 38.3193C30.5362 37.0638 30.6489 36.0545 30.7227 35.3548C30.7616 35.0089 30.7914 34.7407 30.8121 34.5554C30.8225 34.466 30.8303 34.3973 30.8367 34.3481C30.8432 34.2988 30.8471 34.2768 30.8471 34.2768C30.8471 34.2768 30.8471 34.3014 30.8471 34.3481C30.8471 34.3947 30.8367 34.466 30.829 34.5567C30.8108 34.742 30.7849 35.0115 30.7525 35.3574C30.6826 36.0571 30.5815 37.0677 30.4571 38.3232V38.3478H30.4325L24.4349 37.3799L24.4712 37.3514C24.3507 38.2752 24.2237 39.2392 24.0928 40.2356L24.0669 40.198L25.6334 40.5362L31.2047 41.7398C31.6208 41.8214 32.0519 41.7762 32.4421 41.6103C32.6278 41.5319 32.7987 41.4224 32.9474 41.2863C33.0878 41.1502 33.2027 40.99 33.2868 40.8134C33.3683 40.6419 33.4363 40.4643 33.4903 40.2822C33.5473 40.1034 33.5991 39.9272 33.6457 39.7523C33.7416 39.4037 33.8245 39.0669 33.9049 38.7443C33.9852 38.4216 34.0487 38.1133 34.1109 37.8217C34.1731 37.5302 34.2223 37.2529 34.2728 36.9951C34.3726 36.4768 34.4594 36.0337 34.532 35.6684C34.6045 35.303 34.6615 35.0205 34.6978 34.8301C34.7173 34.7368 34.7315 34.6642 34.7419 34.6137C34.7522 34.5632 34.7406 34.5398 34.7406 34.5398Z" fill="#263238"/>
<path d="M31.1205 39.3468C30.9739 39.1819 30.8437 39.0031 30.7318 38.813L30.4792 38.4243C30.4439 38.374 30.3935 38.3363 30.3353 38.3168C30.3353 38.3168 30.3535 38.3051 30.391 38.3168C30.4416 38.3306 30.4868 38.3596 30.5206 38.3997C30.6009 38.4956 30.689 38.6316 30.7914 38.7884C30.9194 38.9631 31.0296 39.1502 31.1205 39.3468Z" fill="#263238"/>
<g opacity="0.3">
<path d="M26.7515 32.7271L27.5652 32.2257L28.4605 33.1754L29.6266 30.7395L28.3167 32.4563L27.5924 31.802L26.7515 32.7271Z" fill="#121212"/>
</g>
<path d="M6.1246 31.3369H4.64884V35.1137H6.1246V31.3369Z" fill="#E0E0E0"/>
<path d="M5.41975 31.5571C6.46879 31.5571 7.31919 30.6969 7.31919 29.6357C7.31919 28.5745 6.46879 27.7142 5.41975 27.7142C4.37072 27.7142 3.52032 28.5745 3.52032 29.6357C3.52032 30.6969 4.37072 31.5571 5.41975 31.5571Z" fill="white"/>
<path d="M5.41975 31.622C5.02605 31.6261 4.64002 31.5132 4.31066 31.2974C3.98131 31.0817 3.7235 30.7729 3.56999 30.4104C3.41647 30.0478 3.37416 29.6478 3.44845 29.2612C3.52273 28.8745 3.71025 28.5187 3.98719 28.2388C4.26412 27.9589 4.61799 27.7677 5.00384 27.6894C5.38969 27.611 5.79011 27.6491 6.15426 27.7988C6.51841 27.9485 6.82985 28.2031 7.04904 28.5302C7.26822 28.8572 7.38525 29.2421 7.38527 29.6358C7.38769 30.1597 7.18204 30.6632 6.81351 31.0356C6.44497 31.408 5.94369 31.619 5.41975 31.622ZM5.41975 27.7791C5.05168 27.775 4.69069 27.8804 4.38265 28.0819C4.0746 28.2834 3.83341 28.5719 3.68969 28.9108C3.54598 29.2497 3.50624 29.6236 3.57552 29.9851C3.64481 30.3466 3.81998 30.6794 4.0788 30.9412C4.33762 31.2029 4.66839 31.3818 5.02911 31.4551C5.38983 31.5285 5.7642 31.4929 6.10467 31.353C6.44515 31.2131 6.73636 30.9752 6.9413 30.6694C7.14625 30.3637 7.25568 30.0039 7.25571 29.6358C7.25812 29.1462 7.06613 28.6757 6.72189 28.3276C6.37765 27.9795 5.90932 27.7822 5.41975 27.7791Z" fill="#E0E0E0"/>
<path d="M5.18395 29.6357L5.54673 29.7407L5.84214 28.3906L5.18395 29.6357Z" fill="white"/>
<path d="M6.34486 31.4147C6.2705 31.4811 6.18182 31.5294 6.08573 31.5559C5.8612 31.6321 5.62407 31.6642 5.38737 31.6505C5.15091 31.6402 4.91769 31.5916 4.69678 31.5067C4.60188 31.4773 4.51378 31.4293 4.43765 31.3654C4.43765 31.3564 4.5413 31.4069 4.70974 31.4613C4.9288 31.5317 5.15623 31.5726 5.38607 31.5831C5.61523 31.5955 5.84489 31.571 6.06629 31.5106C6.2438 31.4613 6.3345 31.4043 6.34486 31.4147Z" fill="#263238"/>
<path d="M9.57365 35.1461C9.57365 35.1643 7.88928 35.1656 5.80197 35.1461C3.71466 35.1267 2.0316 35.1008 2.0316 35.0827C2.0316 35.0645 3.71596 35.0619 5.80327 35.0827C7.89058 35.1034 9.57365 35.1228 9.57365 35.1461Z" fill="#263238"/>
</svg>
