<svg width="35" height="35" viewBox="0 0 35 35" fill="none" xmlns="http://www.w3.org/2000/svg">
<path d="M17.5 35C19.8905 35 22.1381 34.5425 24.2426 33.6275C26.3587 32.7124 28.223 31.4485 29.8358 29.8358C31.4485 28.223 32.7124 26.3644 33.6275 24.2598C34.5425 22.1438 35 19.8905 35 17.5C35 15.1095 34.5425 12.8619 33.6275 10.7574C32.7124 8.64134 31.4485 6.77696 29.8358 5.16422C28.223 3.55147 26.3587 2.28758 24.2426 1.37255C22.1266 0.457516 19.8734 0 17.4828 0C15.0923 0 12.8391 0.457516 10.723 1.37255C8.61846 2.28758 6.7598 3.55147 5.14706 5.16422C3.54575 6.77696 2.28758 8.64134 1.37255 10.7574C0.457516 12.8619 0 15.1095 0 17.5C0 19.8905 0.457516 22.1438 1.37255 24.2598C2.28758 26.3644 3.55147 28.223 5.16422 29.8358C6.77696 31.4485 8.63562 32.7124 10.7402 33.6275C12.8562 34.5425 15.1095 35 17.5 35ZM17.5343 26.3358C17.1454 26.3358 16.8252 26.2157 16.5735 25.9755C16.3219 25.7239 16.1961 25.3979 16.1961 24.9976V16.1961L16.3333 12.4387L14.5662 14.5662L12.473 16.6765C12.21 16.9395 11.8954 17.0711 11.5294 17.0711C11.1634 17.0711 10.8546 16.951 10.6029 16.7108C10.3627 16.4592 10.2426 16.1503 10.2426 15.7843C10.2426 15.4069 10.3627 15.098 10.6029 14.8578L16.5049 8.9902C16.8366 8.64706 17.1797 8.47549 17.5343 8.47549C17.8889 8.47549 18.232 8.64706 18.5637 8.9902L24.4657 14.8578C24.7059 15.1095 24.826 15.4183 24.826 15.7843C24.826 16.1503 24.7002 16.4592 24.4485 16.7108C24.1969 16.951 23.8881 17.0711 23.5221 17.0711C23.1332 17.0711 22.8186 16.9395 22.5784 16.6765L20.5025 14.5662L18.7181 12.4216L18.8554 16.1961V24.9976C18.8554 25.3979 18.7296 25.7239 18.4779 25.9755C18.2377 26.2157 17.9232 26.3358 17.5343 26.3358Z" fill="#C7C7CC"/>
</svg>
