<svg width="16" height="16" viewBox="0 0 16 16" fill="none" xmlns="http://www.w3.org/2000/svg">
<path fill-rule="evenodd" clip-rule="evenodd" d="M2.30937 13.6899C3.28671 14.6666 4.85737 14.6666 8.00004 14.6666C11.1427 14.6666 12.714 14.6666 13.69 13.6899C14.6667 12.7146 14.6667 11.1426 14.6667 7.99992C14.6667 4.85725 14.6667 3.28592 13.69 2.30925C12.7147 1.33325 11.1427 1.33325 8.00004 1.33325C4.85737 1.33325 3.28604 1.33325 2.30937 2.30925C1.33337 3.28659 1.33337 4.85725 1.33337 7.99992C1.33337 11.1426 1.33337 12.7139 2.30937 13.6899ZM11.2894 5.46392L8.94871 11.5746C8.73604 12.1279 7.96004 12.1459 7.79471 11.6013L7.09004 9.28325C7.06352 9.19501 7.01554 9.11472 6.95039 9.04957C6.88523 8.98442 6.80495 8.93644 6.71671 8.90992L4.39871 8.20525C3.85404 8.03992 3.87204 7.26392 4.42537 7.05192L10.536 4.70992C10.6415 4.66551 10.7578 4.65355 10.87 4.67557C10.9823 4.69758 11.0855 4.75257 11.1663 4.83351C11.2472 4.91444 11.3021 5.01765 11.324 5.12995C11.3459 5.24224 11.3339 5.35852 11.2894 5.46392Z" fill="black"/>
</svg>
