<svg width="20" height="20" viewBox="0 0 20 20" fill="none" xmlns="http://www.w3.org/2000/svg">
<path d="M7.49984 3.71661C8.30833 3.46032 9.15169 3.331 9.99984 3.33328C13.4848 3.33328 15.8565 5.41662 17.2707 7.25328C17.979 8.17495 18.3332 8.63411 18.3332 9.99995C18.3332 11.3666 17.979 11.8258 17.2707 12.7466C15.8565 14.5833 13.4848 16.6666 9.99984 16.6666C6.51484 16.6666 4.14317 14.5833 2.729 12.7466C2.02067 11.8266 1.6665 11.3658 1.6665 9.99995C1.6665 8.63328 2.02067 8.17412 2.729 7.25328C3.16097 6.68887 3.64201 6.16377 4.1665 5.68411" stroke="#D9D9D9" stroke-width="1.25" stroke-linecap="round"/>
<path d="M12.5 10C12.5 10.663 12.2366 11.2989 11.7678 11.7678C11.2989 12.2366 10.663 12.5 10 12.5C9.33696 12.5 8.70107 12.2366 8.23223 11.7678C7.76339 11.2989 7.5 10.663 7.5 10C7.5 9.33696 7.76339 8.70107 8.23223 8.23223C8.70107 7.76339 9.33696 7.5 10 7.5C10.663 7.5 11.2989 7.76339 11.7678 8.23223C12.2366 8.70107 12.5 9.33696 12.5 10Z" stroke="#D9D9D9" stroke-width="1.25"/>
</svg>
