<svg width="30" height="30" viewBox="0 0 30 30" fill="none" xmlns="http://www.w3.org/2000/svg">
<path fill-rule="evenodd" clip-rule="evenodd" d="M15 3.4375C11.9334 3.4375 8.99246 4.65569 6.82407 6.82408C4.65568 8.99247 3.43749 11.9334 3.43749 15C3.43749 16.8512 3.87249 18.5987 4.64374 20.1475C4.95374 20.77 5.07249 21.5125 4.87749 22.2437L4.13249 25.025C4.10121 25.1415 4.10115 25.2642 4.13231 25.3808C4.16346 25.4973 4.22474 25.6036 4.30999 25.689C4.39524 25.7744 4.50145 25.8358 4.61796 25.8672C4.73447 25.8985 4.85717 25.8986 4.97374 25.8675L7.75749 25.1225C8.46097 24.9425 9.206 25.0256 9.85249 25.3563C11.4515 26.1523 13.2138 26.5653 15 26.5625C18.0666 26.5625 21.0075 25.3443 23.1759 23.1759C25.3443 21.0075 26.5625 18.0666 26.5625 15C26.5625 11.9334 25.3443 8.99247 23.1759 6.82408C21.0075 4.65569 18.0666 3.4375 15 3.4375ZM1.56249 15C1.56249 7.57875 7.57874 1.5625 15 1.5625C22.4212 1.5625 28.4375 7.57875 28.4375 15C28.4375 22.4212 22.4212 28.4375 15 28.4375C12.8525 28.4375 10.82 27.9325 9.01624 27.035C8.77868 26.9085 8.50314 26.8729 8.24124 26.935L5.45874 27.6787C3.55374 28.1887 1.81124 26.4462 2.32124 24.5412L3.06624 21.7587C3.1283 21.4969 3.09275 21.2213 2.96624 20.9838C2.04056 19.125 1.55998 17.0765 1.56249 15ZM9.06249 13.125C9.06249 12.8764 9.16127 12.6379 9.33708 12.4621C9.5129 12.2863 9.75135 12.1875 9.99999 12.1875H20C20.2486 12.1875 20.4871 12.2863 20.6629 12.4621C20.8387 12.6379 20.9375 12.8764 20.9375 13.125C20.9375 13.3736 20.8387 13.6121 20.6629 13.7879C20.4871 13.9637 20.2486 14.0625 20 14.0625H9.99999C9.75135 14.0625 9.5129 13.9637 9.33708 13.7879C9.16127 13.6121 9.06249 13.3736 9.06249 13.125ZM9.06249 17.5C9.06249 17.2514 9.16127 17.0129 9.33708 16.8371C9.5129 16.6613 9.75135 16.5625 9.99999 16.5625H16.875C17.1236 16.5625 17.3621 16.6613 17.5379 16.8371C17.7137 17.0129 17.8125 17.2514 17.8125 17.5C17.8125 17.7486 17.7137 17.9871 17.5379 18.1629C17.3621 18.3387 17.1236 18.4375 16.875 18.4375H9.99999C9.75135 18.4375 9.5129 18.3387 9.33708 18.1629C9.16127 17.9871 9.06249 17.7486 9.06249 17.5Z" fill="black"/>
</svg>
