<svg width="22" height="22" viewBox="0 0 22 22" fill="none" xmlns="http://www.w3.org/2000/svg">
<path d="M0.767442 15.093C0.767442 12.1993 0.767442 10.7513 1.66688 9.85293C2.5653 8.95349 4.01321 8.95349 6.90698 8.95349H15.093C17.9868 8.95349 19.4347 8.95349 20.3331 9.85293C21.2326 10.7513 21.2326 12.1993 21.2326 15.093C21.2326 17.9868 21.2326 19.4347 20.3331 20.3331C19.4347 21.2326 17.9868 21.2326 15.093 21.2326H6.90698C4.01321 21.2326 2.5653 21.2326 1.66688 20.3331C0.767442 19.4347 0.767442 17.9868 0.767442 15.093Z" stroke="black" stroke-width="1.5"/>
<path d="M11 13.0465V17.1395M4.86046 8.95349V6.90698C4.86046 5.27867 5.50731 3.71706 6.65869 2.56567C7.81008 1.41428 9.37169 0.767442 11 0.767442C12.6283 0.767442 14.1899 1.41428 15.3413 2.56567C16.4927 3.71706 17.1395 5.27867 17.1395 6.90698V8.95349" stroke="black" stroke-width="1.5" stroke-linecap="round"/>
</svg>
