<svg width="50" height="30" viewBox="0 0 50 30" fill="none" xmlns="http://www.w3.org/2000/svg">
<path d="M2.28873 11.9366V8.59155C2.28873 7.41784 2.53521 6.31455 3.02817 5.28169C3.5446 4.22535 4.22535 3.30986 5.07042 2.53521C5.93896 1.76056 6.93661 1.15024 8.06338 0.704227C9.21361 0.234742 10.4225 0 11.6901 0C12.9577 0 14.1549 0.223005 15.2817 0.669014C16.4319 1.11502 17.4296 1.72535 18.2746 2.5C19.1432 3.27465 19.8239 4.19014 20.3169 5.24648C20.8333 6.27934 21.0915 7.39437 21.0915 8.59155V9.40141H14.7183V8.59155C14.7183 8.16901 14.6361 7.76995 14.4718 7.39437C14.331 6.99531 14.1197 6.64319 13.838 6.33803C13.5798 6.03286 13.2629 5.78638 12.8873 5.59859C12.5352 5.4108 12.1361 5.3169 11.6901 5.3169C10.8216 5.3169 10.0939 5.64554 9.50704 6.30282C8.94366 6.96009 8.66197 7.723 8.66197 8.59155V11.9366H12.3239V17.2535H8.66197V30H2.28873V17.2535H0V11.9366H2.28873ZM21.0915 30H14.7183V11.9366H21.0915V30Z" fill="black"/>
<path d="M32.2835 20.2113L24.9595 11.9366H33.2694L36.368 15.669L39.537 11.9366H47.8469L40.3469 20.2113L49.3962 30H40.9455L36.3328 24.6479L31.6849 30H23.2694L32.2835 20.2113Z" fill="black"/>
<path d="M21.0915 30H14.7183V11.9366H21.0915V30Z" fill="#FFFF00"/>
</svg>
