<svg width="22" height="22" viewBox="0 0 22 22" fill="none" xmlns="http://www.w3.org/2000/svg">
<path d="M11 11C12.6954 11 14.0698 9.62562 14.0698 7.93023C14.0698 6.23485 12.6954 4.86047 11 4.86047C9.30461 4.86047 7.93023 6.23485 7.93023 7.93023C7.93023 9.62562 9.30461 11 11 11Z" stroke="#121212" stroke-width="1.5"/>
<path d="M17.1089 19.186C16.9451 16.2268 16.0396 14.0698 11 14.0698C5.96049 14.0698 5.05491 16.2268 4.89119 19.186" stroke="#121212" stroke-width="1.5" stroke-linecap="round"/>
<path d="M5.88372 2.13657C7.43858 1.23703 9.20368 0.764686 11 0.767454C16.6514 0.767454 21.2326 5.34857 21.2326 11C21.2326 16.6515 16.6514 21.2326 11 21.2326C5.34856 21.2326 0.767442 16.6515 0.767442 11C0.767442 9.13666 1.26577 7.38792 2.13656 5.88373" stroke="#121212" stroke-width="1.5" stroke-linecap="round"/>
</svg>
