<svg width="10" height="10" viewBox="0 0 10 10" fill="none" xmlns="http://www.w3.org/2000/svg">
<path d="M2.90382 2.90382C2.93285 2.87472 2.96733 2.85163 3.0053 2.83587C3.04326 2.82012 3.08397 2.81201 3.12507 2.81201C3.16617 2.81201 3.20688 2.82012 3.24484 2.83587C3.28281 2.85163 3.31729 2.87472 3.34632 2.90382L5.00007 4.5582L6.65382 2.90382C6.68287 2.87477 6.71737 2.85172 6.75533 2.83599C6.79329 2.82027 6.83398 2.81218 6.87507 2.81218C6.91616 2.81218 6.95685 2.82027 6.99481 2.83599C7.03277 2.85172 7.06727 2.87477 7.09632 2.90382C7.12537 2.93288 7.14842 2.96737 7.16415 3.00533C7.17987 3.04329 7.18796 3.08398 7.18796 3.12507C7.18796 3.16616 7.17987 3.20685 7.16415 3.24481C7.14842 3.28277 7.12537 3.31727 7.09632 3.34632L5.44194 5.00007L7.09632 6.65382C7.12537 6.68287 7.14842 6.71737 7.16415 6.75533C7.17987 6.79329 7.18796 6.83398 7.18796 6.87507C7.18796 6.91616 7.17987 6.95685 7.16415 6.99481C7.14842 7.03277 7.12537 7.06727 7.09632 7.09632C7.06727 7.12537 7.03277 7.14842 6.99481 7.16415C6.95685 7.17987 6.91616 7.18796 6.87507 7.18796C6.83398 7.18796 6.79329 7.17987 6.75533 7.16415C6.71737 7.14842 6.68287 7.12537 6.65382 7.09632L5.00007 5.44194L3.34632 7.09632C3.31727 7.12537 3.28277 7.14842 3.24481 7.16415C3.20685 7.17987 3.16616 7.18796 3.12507 7.18796C3.08398 7.18796 3.04329 7.17987 3.00533 7.16415C2.96737 7.14842 2.93288 7.12537 2.90382 7.09632C2.87477 7.06727 2.85172 7.03277 2.83599 6.99481C2.82027 6.95685 2.81218 6.91616 2.81218 6.87507C2.81218 6.83398 2.82027 6.79329 2.83599 6.75533C2.85172 6.71737 2.87477 6.68287 2.90382 6.65382L4.5582 5.00007L2.90382 3.34632C2.87472 3.31729 2.85163 3.28281 2.83587 3.24484C2.82012 3.20688 2.81201 3.16617 2.81201 3.12507C2.81201 3.08397 2.82012 3.04326 2.83587 3.0053C2.85163 2.96733 2.87472 2.93285 2.90382 2.90382Z" fill="black"/>
</svg>
