<svg width="390" height="83" viewBox="0 0 390 83" fill="none" xmlns="http://www.w3.org/2000/svg">
<path d="M15.8778 69C15.8778 63.4772 20.355 59 25.8778 59H364.122C369.645 59 374.122 63.4772 374.122 69H15.8778Z" fill="white"/>
<path d="M15.8778 69C15.8778 63.4772 20.355 59 25.8778 59H364.122C369.645 59 374.122 63.4772 374.122 69H15.8778Z" fill="black" fill-opacity="0.15"/>
<path fill-rule="evenodd" clip-rule="evenodd" d="M390 0H0V83C0 79.2774 0 77.4162 0.489435 75.9098C1.47861 72.8654 3.86545 70.4786 6.90983 69.4894C8.41616 69 10.2774 69 14 69H15.8779C15.8779 63.4772 20.355 59 25.8779 59H364.122C369.645 59 374.122 63.4772 374.122 69H376C379.723 69 381.584 69 383.09 69.4894C386.135 70.4786 388.521 72.8654 389.511 75.9098C390 77.4162 390 79.2774 390 83V0Z" fill="black"/>
<rect x="178.626" y="74" width="35.7252" height="5" rx="2.5" fill="#D1D1D6"/>
<path d="M337.267 35H351.497C352.27 35 352.976 34.9359 353.615 34.8078C354.255 34.6733 354.807 34.3594 355.272 33.8662C355.731 33.3794 356.02 32.7997 356.141 32.1271C356.268 31.4481 356.331 30.6987 356.331 29.8788V27.1212C356.331 26.3013 356.268 25.5551 356.141 24.8825C356.02 24.2035 355.731 23.6206 355.272 23.1338C354.807 22.6406 354.255 22.3299 353.615 22.2018C352.976 22.0673 352.27 22 351.497 22H337.249C336.489 22 335.789 22.0673 335.149 22.2018C334.516 22.3363 333.967 22.647 333.502 23.1338C333.043 23.627 332.751 24.2099 332.624 24.8825C332.503 25.5551 332.443 26.2917 332.443 27.0924V29.8788C332.443 30.6987 332.503 31.4481 332.624 32.1271C332.744 32.7997 333.037 33.3794 333.502 33.8662C333.967 34.3594 334.516 34.6733 335.149 34.8078C335.789 34.9359 336.495 35 337.267 35ZM337.023 33.4531C336.558 33.4531 336.1 33.4082 335.647 33.3186C335.201 33.2225 334.839 33.0303 334.561 32.7421C334.289 32.4474 334.111 32.0663 334.027 31.5987C333.942 31.1247 333.9 30.6378 333.9 30.1382V26.881C333.9 26.375 333.942 25.8849 334.027 25.4109C334.111 24.9305 334.289 24.5462 334.561 24.2579C334.832 23.9633 335.195 23.7711 335.647 23.6814C336.106 23.5918 336.573 23.5469 337.05 23.5469H351.751C352.215 23.5469 352.671 23.595 353.117 23.6911C353.57 23.7807 353.932 23.9697 354.204 24.2579C354.481 24.5526 354.662 24.9369 354.747 25.4109C354.831 25.8785 354.874 26.359 354.874 26.8522V30.1382C354.874 30.6378 354.831 31.1247 354.747 31.5987C354.662 32.0663 354.481 32.4474 354.204 32.7421C353.932 33.0303 353.57 33.2225 353.117 33.3186C352.671 33.4082 352.215 33.4531 351.751 33.4531H337.023ZM357.562 30.9837C357.803 30.9645 358.054 30.8524 358.313 30.6475C358.573 30.4361 358.79 30.1478 358.965 29.7827C359.146 29.4176 359.237 28.9884 359.237 28.4952C359.237 28.0084 359.146 27.5824 358.965 27.2173C358.79 26.8522 358.573 26.5639 358.313 26.3526C358.054 26.1412 357.803 26.0291 357.562 26.0163V30.9837ZM336.543 32.3385H352.23C352.544 32.3385 352.798 32.3129 352.991 32.2616C353.184 32.204 353.344 32.1079 353.471 31.9734C353.706 31.7236 353.824 31.2848 353.824 30.6571V26.3429C353.824 26.0099 353.796 25.7408 353.742 25.5358C353.688 25.3309 353.597 25.1611 353.471 25.0266C353.344 24.8921 353.184 24.7992 352.991 24.748C352.798 24.6903 352.544 24.6615 352.23 24.6615H336.57C336.251 24.6615 335.991 24.6903 335.792 24.748C335.593 24.7992 335.43 24.8921 335.303 25.0266C335.182 25.1611 335.095 25.3341 335.041 25.5455C334.986 25.7504 334.959 26.0227 334.959 26.3622V30.6571C334.959 30.9901 334.986 31.2592 335.041 31.4642C335.095 31.6691 335.182 31.8389 335.303 31.9734C335.43 32.1079 335.59 32.204 335.783 32.2616C335.982 32.3129 336.236 32.3385 336.543 32.3385Z" fill="white"/>
<path d="M316.068 34C316.151 34 316.234 33.9759 316.318 33.9278C316.401 33.8845 316.513 33.793 316.655 33.6534L318.443 31.9639C318.496 31.911 318.528 31.8484 318.538 31.7762C318.553 31.6992 318.533 31.6294 318.479 31.5668C318.24 31.2635 317.905 30.9988 317.475 30.7726C317.05 30.5463 316.581 30.4332 316.068 30.4332C315.541 30.4332 315.062 30.5511 314.632 30.787C314.202 31.0229 313.867 31.2972 313.628 31.6101C313.594 31.6679 313.582 31.728 313.591 31.7906C313.606 31.8532 313.643 31.911 313.701 31.9639L315.482 33.6534C315.624 33.7882 315.736 33.8797 315.819 33.9278C315.902 33.9759 315.985 34 316.068 34ZM311.781 30.0722C311.859 30.1444 311.945 30.1781 312.038 30.1733C312.131 30.1637 312.214 30.1203 312.287 30.0433C312.727 29.562 313.284 29.1649 313.958 28.852C314.632 28.5391 315.336 28.3851 316.068 28.3899C316.811 28.3851 317.519 28.5439 318.194 28.8664C318.868 29.1841 319.43 29.5836 319.879 30.065C319.947 30.1372 320.023 30.1733 320.106 30.1733C320.194 30.1733 320.277 30.1372 320.355 30.065L321.491 28.9531C321.55 28.8953 321.582 28.8303 321.587 28.7581C321.591 28.6811 321.567 28.6113 321.513 28.5487C321.147 28.1011 320.683 27.7016 320.121 27.3502C319.564 26.9988 318.939 26.722 318.245 26.5199C317.556 26.3129 316.83 26.2094 316.068 26.2094C315.306 26.2094 314.578 26.3129 313.885 26.5199C313.196 26.722 312.573 26.9988 312.016 27.3502C311.459 27.7016 310.995 28.1011 310.623 28.5487C310.57 28.6113 310.543 28.6787 310.543 28.7509C310.548 28.8231 310.582 28.8905 310.645 28.9531L311.781 30.0722ZM308.74 27.0542C308.813 27.1264 308.896 27.1625 308.989 27.1625C309.082 27.1576 309.163 27.1191 309.231 27.0469C310.13 26.1035 311.161 25.3887 312.324 24.9025C313.491 24.4116 314.739 24.1661 316.068 24.1661C317.407 24.1661 318.66 24.4116 319.828 24.9025C320.995 25.3935 322.026 26.1107 322.92 27.0542C322.989 27.1215 323.067 27.1552 323.155 27.1552C323.243 27.1504 323.323 27.1119 323.397 27.0397L324.408 26.0433C324.471 25.9759 324.503 25.9061 324.503 25.8339C324.508 25.7617 324.484 25.6943 324.43 25.6318C323.858 24.9338 323.135 24.3129 322.261 23.769C321.386 23.2202 320.419 22.7894 319.359 22.4765C318.299 22.1588 317.202 22 316.068 22C314.935 22 313.838 22.1564 312.778 22.4693C311.718 22.7822 310.75 23.213 309.876 23.7617C309.001 24.3105 308.278 24.9338 307.707 25.6318C307.658 25.6943 307.634 25.7617 307.634 25.8339C307.638 25.9061 307.67 25.9759 307.729 26.0433L308.74 27.0542Z" fill="white"/>
<path d="M282.604 35H284.377C284.608 35 284.794 34.9251 284.936 34.7753C285.079 34.6256 285.15 34.4284 285.15 34.1838V30.8214C285.15 30.5768 285.079 30.3821 284.936 30.2373C284.794 30.0876 284.608 30.0127 284.377 30.0127H282.604C282.374 30.0127 282.188 30.0876 282.045 30.2373C281.903 30.3821 281.832 30.5768 281.832 30.8214V34.1838C281.832 34.4284 281.903 34.6256 282.045 34.7753C282.188 34.9251 282.374 35 282.604 35ZM288.114 35H289.887C290.118 35 290.304 34.9251 290.446 34.7753C290.588 34.6256 290.66 34.4284 290.66 34.1838V28.485C290.66 28.2404 290.588 28.0432 290.446 27.8934C290.304 27.7437 290.118 27.6688 289.887 27.6688H288.114C287.884 27.6688 287.697 27.7437 287.555 27.8934C287.413 28.0432 287.342 28.2404 287.342 28.485V34.1838C287.342 34.4284 287.413 34.6256 287.555 34.7753C287.697 34.9251 287.884 35 288.114 35ZM293.624 35H295.397C295.628 35 295.814 34.9251 295.956 34.7753C296.098 34.6256 296.169 34.4284 296.169 34.1838V25.7742C296.169 25.5296 296.098 25.3324 295.956 25.1826C295.814 25.0328 295.628 24.9579 295.397 24.9579H293.624C293.394 24.9579 293.207 25.0328 293.065 25.1826C292.923 25.3324 292.852 25.5296 292.852 25.7742V34.1838C292.852 34.4284 292.923 34.6256 293.065 34.7753C293.207 34.9251 293.394 35 293.624 35ZM299.127 35H300.914C301.145 35 301.329 34.9251 301.466 34.7753C301.608 34.6256 301.679 34.4284 301.679 34.1838V22.8162C301.679 22.5716 301.608 22.3744 301.466 22.2247C301.329 22.0749 301.145 22 300.914 22H299.127C298.896 22 298.71 22.0749 298.568 22.2247C298.425 22.3744 298.354 22.5716 298.354 22.8162V34.1838C298.354 34.4284 298.425 34.6256 298.568 34.7753C298.71 34.9251 298.896 35 299.127 35Z" fill="white"/>
<path d="M61.3137 22.7231C63.8704 22.7231 66.095 24.541 66.095 28.8574V28.874C66.095 32.9082 64.2771 35.2988 61.2639 35.2988C59.0642 35.2988 57.4207 33.9956 57.0388 32.1611L57.0222 32.0698H59.1306L59.1555 32.1528C59.471 32.9912 60.2097 33.5391 61.2639 33.5391C63.1648 33.5391 63.97 31.6797 64.0613 29.3887C64.0613 29.2974 64.0696 29.2061 64.0696 29.1147H63.9036C63.4636 30.061 62.4177 30.8994 60.7742 30.8994C58.4749 30.8994 56.8645 29.2227 56.8645 26.9482V26.9316C56.8645 24.4995 58.7156 22.7231 61.3137 22.7231ZM61.3054 29.2559C62.6585 29.2559 63.6961 28.2764 63.6961 26.9233V26.9067C63.6961 25.5371 62.6585 24.4663 61.3303 24.4663C60.0105 24.4663 58.9563 25.5205 58.9563 26.8569V26.8735C58.9563 28.2598 59.9441 29.2559 61.3054 29.2559ZM69.4555 27.2388C68.7002 27.2388 68.1357 26.6577 68.1357 25.9272C68.1357 25.1885 68.7002 24.6157 69.4555 24.6157C70.2192 24.6157 70.7754 25.1885 70.7754 25.9272C70.7754 26.6577 70.2192 27.2388 69.4555 27.2388ZM69.4555 33.3979C68.7002 33.3979 68.1357 32.8252 68.1357 32.0864C68.1357 31.3477 68.7002 30.7749 69.4555 30.7749C70.2192 30.7749 70.7754 31.3477 70.7754 32.0864C70.7754 32.8252 70.2192 33.3979 69.4555 33.3979ZM78.6266 35V32.7007H72.7663V30.9492C74.3185 28.2515 76.0202 25.4956 77.6471 23.022H80.6769V30.9326H82.2873V32.7007H80.6769V35H78.6266ZM74.7585 30.9824H78.6598V24.7319H78.5353C77.3068 26.6079 75.9206 28.8242 74.7585 30.8579V30.9824ZM86.8431 35V25.1304H86.702L83.7221 27.2388V25.2217L86.8514 23.022H88.9847V35H86.8431Z" fill="white"/>
</svg>
